<?xml version="1.0" encoding="UTF-8"?>
<svg version="1.1" xmlns="http://www.w3.org/2000/svg" width="475" height="111">
<path d="M0 0 C0 3.63 0 7.26 0 11 C0.66 8.03 1.32 5.06 2 2 C2.66 2 3.32 2 4 2 C4.66 1.34 5.32 0.68 6 0 C10.63768456 -0.98104866 14.37641448 -1.01493341 19 0 C19 0.66 19 1.32 19 2 C19.66 2 20.32 2 21 2 C21.66 2.66 22.32 3.32 23 4 C23 2.68 23 1.36 23 0 C60.37590305 -1.97162359 60.37590305 -1.97162359 69 2 C69.33 1.01 69.66 0.02 70 -1 C73.3 -1 76.6 -1 80 -1 C80.86588547 2.73826921 81.12864497 6.20132624 81.1328125 10.03515625 C81.13410156 11.17404297 81.13539063 12.31292969 81.13671875 13.48632812 C81.13285156 14.66646484 81.12898438 15.84660156 81.125 17.0625 C81.12886719 18.24650391 81.13273437 19.43050781 81.13671875 20.65039062 C81.13542969 21.78798828 81.13414062 22.92558594 81.1328125 24.09765625 C81.13168457 25.13414307 81.13055664 26.17062988 81.12939453 27.23852539 C81.01584081 29.66193316 80.69717345 31.68728112 80 34 C80.99 34 81.98 34 83 34 C82.67 23.11 82.34 12.22 82 1 C84.40545638 -0.20272819 85.94996953 -0.10071472 88.625 -0.0625 C89.85089844 -0.04896484 89.85089844 -0.04896484 91.1015625 -0.03515625 C91.72804688 -0.02355469 92.35453125 -0.01195312 93 0 C93.495 1.485 93.495 1.485 94 3 C93.67 3.66 93.34 4.32 93 5 C93.99 5.495 93.99 5.495 95 6 C94.835 6.95519531 94.67 7.91039063 94.5 8.89453125 C93.84196807 13.49727925 93.92790254 18.04802847 94 22.6875 C94.02560163 24.35800665 94.04660188 26.02859158 94.0625 27.69921875 C94.07410156 28.42971436 94.08570313 29.16020996 94.09765625 29.9128418 C93.99702362 32.06361276 93.59182741 33.93472039 93 36 C93.66 36 94.32 36 95 36 C94.92313965 34.88141602 94.92313965 34.88141602 94.84472656 33.74023438 C94.62337849 30.32787323 94.43644153 26.91443905 94.25 23.5 C94.16878906 22.32695313 94.08757812 21.15390625 94.00390625 19.9453125 C93.60304536 12.0171749 94.10669588 6.35553151 99.50732422 0.3137207 C102.0180532 -1.89600004 104.58116805 -1.33702489 107.77734375 -1.23828125 C110.44409968 -0.95239002 112.59374722 -0.16666801 115 1 C115.66 1 116.32 1 117 1 C117.33 0.34 117.66 -0.32 118 -1 C118.92897095 -0.94670532 118.92897095 -0.94670532 119.87670898 -0.89233398 C122.7299356 -0.73303836 125.58365092 -0.5852072 128.4375 -0.4375 C129.41138672 -0.38142578 130.38527344 -0.32535156 131.38867188 -0.26757812 C136.05711641 -0.03337522 140.51451829 0.03829975 145.16015625 -0.53515625 C146.42730469 -0.68855469 147.69445312 -0.84195313 149 -1 C150 0 150 0 150.11352539 3.69360352 C150.11336624 5.33871292 150.10766988 6.98382731 150.09765625 8.62890625 C150.09553383 9.92525246 150.09553383 9.92525246 150.09336853 11.24778748 C150.08775239 14.01939292 150.07519719 16.7909188 150.0625 19.5625 C150.05748708 21.4368478 150.05292381 23.31119685 150.04882812 25.18554688 C150.03777772 29.79039544 150.0205023 34.39518421 150 39 C150.66 39.33 151.32 39.66 152 40 C151.34 40 150.68 40 150 40 C150.20625 40.78375 150.4125 41.5675 150.625 42.375 C150.74875 43.24125 150.8725 44.1075 151 45 C150.01 45.99 150.01 45.99 149 47 C146.03 46.67 143.06 46.34 140 46 C139.67 34.45 139.34 22.9 139 11 C137.35 10.67 135.7 10.34 134 10 C134.33 21.22 134.66 32.44 135 44 C132.525 45.485 132.525 45.485 130 47 C127.69 46.34 125.38 45.68 123 45 C123.33 33.45 123.66 21.9 124 10 C123.01 10 122.02 10 121 10 C120.67 10.66 120.34 11.32 120 12 C119.67 12.33 119.34 12.66 119 13 C118.63371323 14.99422795 118.29868656 16.99453311 118 19 C115.03 19.33 112.06 19.66 109 20 C107 17 107 17 107 16 C106.34 16 105.68 16 105 16 C105.08378906 16.71285156 105.16757812 17.42570312 105.25390625 18.16015625 C105.84189161 23.69019573 106.09194306 28.54028471 105 34 C105.66 34 106.32 34 107 34 C107 31.36 107 28.72 107 26 C113.96428571 23.72321429 113.96428571 23.72321429 118 25 C119.60033771 37.15391609 119.60033771 37.15391609 117 42 C114.27430997 44.88144374 112.39773733 45.89152618 108.5625 46.9375 C103.70137043 47.02278297 100.86593527 45.49274822 97.125 42.5 C96 41 96 41 96 38 C95.01 38 94.02 38 93 38 C93.33 38.99 93.66 39.98 94 41 C92.515 41.495 92.515 41.495 91 42 C90.4225 42.66 89.845 43.32 89.25 44 C86.21821659 46.69491859 84.00262787 46.857049 80 47 C77.5625 46.0625 77.5625 46.0625 76 45 C75.505 45.99 75.505 45.99 75 47 C72 45 72 45 71 42 C69.515 41.505 69.515 41.505 68 41 C68.495 42.98 68.495 42.98 69 45 C65.94736336 45.98120464 64.05263664 45.98120464 61 45 C60.505 45.99 60.505 45.99 60 47 C58 45 58 45 57.83984375 42.43359375 C57.87207031 41.44488281 57.90429688 40.45617187 57.9375 39.4375 C57.99168936 37.62569047 58.02036523 35.81250532 58 34 C57.67 33.67 57.34 33.34 57 33 C57.02320313 33.84304687 57.04640625 34.68609375 57.0703125 35.5546875 C57.08835937 36.65039062 57.10640625 37.74609375 57.125 38.875 C57.14820313 39.96554688 57.17140625 41.05609375 57.1953125 42.1796875 C57 45 57 45 55 47 C53.33333333 47 51.66666667 47 50 47 C50 46.34 50 45.68 50 45 C48.515 45.495 48.515 45.495 47 46 C44.99496491 43.99496491 45.74411337 39.99974556 45.68359375 37.24609375 C45.66281265 36.47064713 45.64203156 35.6952005 45.62062073 34.89625549 C45.55504198 32.41009692 45.49620201 29.92382955 45.4375 27.4375 C45.39432267 25.75584796 45.35070864 24.07420706 45.30664062 22.39257812 C45.19935221 18.26183129 45.09810868 14.13097464 45 10 C43.35 10.33 41.7 10.66 40 11 C39.950623 15.52065428 39.91429177 20.04115217 39.89013672 24.56201172 C39.88006882 26.10045098 39.86641354 27.63887107 39.84912109 29.17724609 C39.82490683 31.38644133 39.81352509 33.59538395 39.8046875 35.8046875 C39.79436493 36.49432587 39.78404236 37.18396423 39.77340698 37.89450073 C39.77300522 39.59800906 39.87808974 41.30085943 40 43 C40.66 43.66 41.32 44.32 42 45 C36.58461538 48.07692308 36.58461538 48.07692308 33.625 47.6875 C33.08875 47.460625 32.5525 47.23375 32 47 C32 46.67 32 46.34 32 46 C31.01 45.67 30.02 45.34 29 45 C28.97519317 40.81909587 28.95708951 36.63823128 28.94506836 32.45727539 C28.94005435 31.03636936 28.93324148 29.61546844 28.92456055 28.19458008 C28.91236612 26.14663424 28.90674228 24.0987569 28.90234375 22.05078125 C28.89710693 20.82012939 28.89187012 19.58947754 28.88647461 18.3215332 C28.98606183 15.40780381 29.32200678 12.82692674 30 10 C29.01 10.33 28.02 10.66 27 11 C26.01 10.67 25.02 10.34 24 10 C23.896875 10.763125 23.79375 11.52625 23.6875 12.3125 C22.94399108 15.21894395 22.15141968 16.03566029 20 18 C20 18.66 20 19.32 20 20 C20.66 20.33 21.32 20.66 22 21 C22 22.32 22 23.64 22 25 C22.66 25.33 23.32 25.66 24 26 C23.67 26.66 23.34 27.32 23 28 C23.66 28.33 24.32 28.66 25 29 C24.34 31.97 23.68 34.94 23 38 C23.99 38.495 23.99 38.495 25 39 C24.34 39 23.68 39 23 39 C23 39.99 23 40.98 23 42 C22.34 42 21.68 42 21 42 C21 42.66 21 43.32 21 44 C13.23468507 47.2096635 13.23468507 47.2096635 8.6875 46.4375 C5.32289473 44.63782741 2.61729497 42.91686332 1.40625 39.15625 C0.9731081 36.85726606 0.83205464 34.71373496 0.8125 32.375 C0.79832031 31.59898438 0.78414063 30.82296875 0.76953125 30.0234375 C1 28 1 28 3 26 C3 26.66 3 27.32 3 28 C4.65 27.34 6.3 26.68 8 26 C7.01 25.34 6.02 24.68 5 24 C4.67 23.01 4.34 22.02 4 21 C2.35 20.34 0.7 19.68 -1 19 C-0.67 27.58 -0.34 36.16 0 45 C-5 47 -5 47 -9 47 C-11.25 45.4375 -11.25 45.4375 -13 43 C-13.25 39.25 -13.25 39.25 -13 36 C-13.06058594 36.63808594 -13.12117188 37.27617188 -13.18359375 37.93359375 C-13.26738281 38.75988281 -13.35117187 39.58617187 -13.4375 40.4375 C-13.51871094 41.26121094 -13.59992188 42.08492187 -13.68359375 42.93359375 C-14 45 -14 45 -15 46 C-18.00003445 46.14177857 -20.99757235 46.04228771 -24 46 C-24.9544238 38.35384947 -25.12165393 30.82411144 -25.0625 23.125 C-25.05798828 22.01125 -25.05347656 20.8975 -25.04882812 19.75 C-25.04016991 17.69676621 -25.02944264 15.64353921 -25.01586914 13.59033203 C-24.99589296 10.32960452 -24.99857367 7.072743 -25.0625 3.8125 C-25 1 -25 1 -24 0 C-22.20969562 -0.07289513 -20.41666282 -0.08366137 -18.625 -0.0625 C-17.64789063 -0.05347656 -16.67078125 -0.04445312 -15.6640625 -0.03515625 C-14.34535156 -0.01775391 -14.34535156 -0.01775391 -13 0 C-9.9028464 0.07933905 -9.9028464 0.07933905 -6.5 -0.5625 C-3 -1 -3 -1 0 0 Z M117 1 C116.67 1.99 116.34 2.98 116 4 C116.33 4.66 116.66 5.32 117 6 C117.66 5.67 118.32 5.34 119 5 C118.67 3.68 118.34 2.36 118 1 C117.67 1 117.34 1 117 1 Z M45 4 C46 8 46 8 46 8 Z M-12 5 C-11 8 -11 8 -11 8 Z M69 5 C70 8 70 8 70 8 Z M23 6 C24 10 24 10 24 10 Z M139 6 C140 8 140 8 140 8 Z M11 9 C11.33 9.66 11.66 10.32 12 11 C12.33 10.34 12.66 9.68 13 9 C12.34 9 11.68 9 11 9 Z M57 9 C56.67 9.66 56.34 10.32 56 11 C56.99 10.67 57.98 10.34 59 10 C58.34 9.67 57.68 9.34 57 9 Z M12 12 C13 14 13 14 13 14 Z M57 12 C56.67 12.99 56.34 13.98 56 15 C56.99 15 57.98 15 59 15 C59 14.01 59 13.02 59 12 C58.34 12 57.68 12 57 12 Z M13 14 C13.66 14.66 14.32 15.32 15 16 C16.32 15.34 17.64 14.68 19 14 C17.02 14 15.04 14 13 14 Z M69 16 C66.32864599 19.83883465 67.15942195 23.39895643 67.875 27.75 C68.03162109 28.79607422 68.03162109 28.79607422 68.19140625 29.86328125 C68.44967636 31.57725559 68.72332952 33.2888995 69 35 C69.33 35 69.66 35 70 35 C70 28.73 70 22.46 70 16 C69.67 16 69.34 16 69 16 Z M17 17 C18 19 18 19 18 19 Z M8 26 C8 26.66 8 27.32 8 28 C8.66 27.67 9.32 27.34 10 27 C9.34 26.67 8.68 26.34 8 26 Z M56 26 C56.33 27.65 56.66 29.3 57 31 C57.66 30.01 58.32 29.02 59 28 C58.67 27.34 58.34 26.68 58 26 C57.34 26 56.68 26 56 26 Z M11 28 C11.33 28.99 11.66 29.98 12 31 C12 30.01 12 29.02 12 28 C11.67 28 11.34 28 11 28 Z M13 30 C14 32 14 32 14 32 Z M-14 31 C-13 34 -13 34 -13 34 Z M12 34 C12 34.99 12 35.98 12 37 C12.66 36.67 13.32 36.34 14 36 C14 35.34 14 34.68 14 34 C13.34 34 12.68 34 12 34 Z M80 35 C80.66 35.66 81.32 36.32 82 37 C82.33 36.34 82.66 35.68 83 35 C82.01 35 81.02 35 80 35 Z M68 36 C68.33 37.32 68.66 38.64 69 40 C69.66 40 70.32 40 71 40 C71 38.35 71 36.7 71 35 C69.7763932 34.9254644 69.7763932 34.9254644 68 36 Z M35 45 C36 47 36 47 36 47 Z " fill="#020202" transform="translate(271,61)"/>
<path d="M0 0 C0.33 0.66 0.66 1.32 1 2 C4.63 2 8.26 2 12 2 C12.19916016 3.32064453 12.19916016 3.32064453 12.40234375 4.66796875 C12.57894531 5.82941406 12.75554688 6.99085937 12.9375 8.1875 C13.11152344 9.33605469 13.28554688 10.48460938 13.46484375 11.66796875 C13.91379313 14.46325212 14.42082162 17.22933586 15 20 C15.16759984 17.8750734 15.33405201 15.75005624 15.5 13.625 C15.63921875 11.84996094 15.63921875 11.84996094 15.78125 10.0390625 C15.90195454 8.36213157 16 6.68126944 16 5 C16 4.01 16 3.02 16 2 C16.66 2 17.32 2 18 2 C18.66 1.67 19.32 1.34 20 1 C21.9753988 0.85220038 23.95678924 0.77881034 25.9375 0.75 C27.52884766 0.71132813 27.52884766 0.71132813 29.15234375 0.671875 C32 1 32 1 33.87890625 2.515625 C34.24886719 3.00546875 34.61882813 3.4953125 35 4 C34.67 4.66 34.34 5.32 34 6 C33.91308999 8.84429357 33.88446198 11.66379176 33.90234375 14.5078125 C33.90446617 15.76874222 33.90446617 15.76874222 33.90663147 17.05514526 C33.91223763 19.74513275 33.92479114 22.43503759 33.9375 25.125 C33.94251421 26.94661338 33.94707725 28.76822807 33.95117188 30.58984375 C33.96220906 35.05992777 33.9794778 39.52994986 34 44 C34.16768291 41.06255476 34.33418858 38.12505096 34.5 35.1875 C34.54769531 34.35412109 34.59539063 33.52074219 34.64453125 32.66210938 C34.68964844 31.85966797 34.73476563 31.05722656 34.78125 30.23046875 C34.8440918 29.12288208 34.8440918 29.12288208 34.90820312 27.99291992 C34.98479533 26.33009506 35 24.6645879 35 23 C35.66 23 36.32 23 37 23 C36.8246875 22.46246094 36.649375 21.92492187 36.46875 21.37109375 C35.7094607 17.53035537 36.41401043 13.83542897 36.84375 9.97265625 C36.99532664 7.08891074 36.6984201 4.78854496 36 2 C36.99 2.33 37.98 2.66 39 3 C39.33 2.34 39.66 1.68 40 1 C44.95 1.33 49.9 1.66 55 2 C56.17288654 5.51865963 56 8.28789718 56 12 C56.12525536 13.35218474 56.271103 14.70256419 56.43359375 16.05078125 C57.05217914 21.38130719 57.56058492 26.71989282 58.0625 32.0625 C58.15337891 33.02349609 58.24425781 33.98449219 58.33789062 34.97460938 C58.55924874 37.31634524 58.77994029 39.65814182 59 42 C59.19627391 40.41773035 59.38165538 38.83410729 59.5625 37.25 C59.71912109 35.92742187 59.71912109 35.92742187 59.87890625 34.578125 C59.99456676 32.11567549 59.73638695 30.33461936 59 28 C59.66 28 60.32 28 61 28 C60.979375 26.783125 60.95875 25.56625 60.9375 24.3125 C60.93333099 21.92782746 61.0192398 19.90620597 61.5 17.5625 C62.25001516 13.7186723 62.06902139 9.90354315 62 6 C62 4.33333333 62 2.66666667 62 1 C62.99 1 63.98 1 65 1 C66.0725 0.94199219 67.145 0.88398437 68.25 0.82421875 C69.4875 0.77910156 70.725 0.73398437 72 0.6875 C73.2375 0.62949219 74.475 0.57148437 75.75 0.51171875 C79 1 79 1 81 3.33203125 C82 6 82 6 81 9 C81.10846427 11.36462994 81.29536564 13.72592801 81.5234375 16.08203125 C81.58906891 16.7738298 81.65470032 17.46562836 81.72232056 18.1783905 C81.86236554 19.6420821 82.00545707 21.10548495 82.15136719 22.56860352 C82.37307664 24.79320135 82.58582582 27.01850871 82.796875 29.24414062 C83.3710584 35.19582232 83.95161974 41.10896619 85 47 C80.62689805 50.03687636 80.62689805 50.03687636 77.875 49.875 C75.67122293 48.8465707 74.45143413 47.95943608 73 46 C73 44.68 73 43.36 73 42 C72.34 41.67 71.68 41.34 71 41 C69.70366379 42.06645115 69.70366379 42.06645115 69.9375 44.5625 C69.958125 45.366875 69.97875 46.17125 70 47 C67.69 47.66 65.38 48.32 63 49 C63 48.34 63 47.68 63 47 C62.44828125 47.16371094 61.8965625 47.32742187 61.328125 47.49609375 C58.73385993 48.05760414 56.40164589 48.09739008 53.75 48.0625 C52.85796875 48.05347656 51.9659375 48.04445312 51.046875 48.03515625 C50.37140625 48.02355469 49.6959375 48.01195312 49 48 C47.95550089 44.86650268 48.06576355 44.01031744 49 41 C47.02 41.495 47.02 41.495 45 42 C45 43.65 45 45.3 45 47 C43.329375 47.185625 43.329375 47.185625 41.625 47.375 C37.96896323 47.6465813 37.96896323 47.6465813 36 50 C35.54625 49.505 35.0925 49.01 34.625 48.5 C33.12364481 46.77390663 33.12364481 46.77390663 31 47 C30.505 47.99 30.505 47.99 30 49 C29.01 48.505 29.01 48.505 28 48 C28 48.66 28 49.32 28 50 C27.34 49.67 26.68 49.34 26 49 C26.33 48.34 26.66 47.68 27 47 C25.515 47.495 25.515 47.495 24 48 C23.34 47.34 22.68 46.68 22 46 C21.154375 46.53625 20.30875 47.0725 19.4375 47.625 C15.15482358 49.33807057 13.22250055 48.60455021 9 47 C8.93941406 46.31292969 8.87882813 45.62585938 8.81640625 44.91796875 C8.73261719 44.01691406 8.64882812 43.11585937 8.5625 42.1875 C8.48128906 41.29417969 8.40007813 40.40085938 8.31640625 39.48046875 C8.06510233 36.87256441 8.06510233 36.87256441 7 34 C6.93941406 34.92683594 6.87882813 35.85367188 6.81640625 36.80859375 C6.73261719 38.00613281 6.64882812 39.20367187 6.5625 40.4375 C6.48128906 41.63246094 6.40007813 42.82742187 6.31640625 44.05859375 C6 47 6 47 5 48 C2.32941149 48.14115161 -0.32432238 48.04247107 -3 48 C-4.15410254 45.69179492 -4.1210297 44.39215724 -4.11352539 41.82568359 C-4.11344986 40.96494232 -4.11337433 40.10420105 -4.11329651 39.21737671 C-4.10813522 38.28712677 -4.10297394 37.35687683 -4.09765625 36.3984375 C-4.0962413 35.44683746 -4.09482635 34.49523743 -4.09336853 33.51480103 C-4.08776012 30.46816903 -4.07520619 27.42160987 -4.0625 24.375 C-4.05748608 22.31250106 -4.05292299 20.25000097 -4.04882812 18.1875 C-4.03778796 13.12497183 -4.02051767 8.06249827 -4 3 C-2.68 2.67 -1.36 2.34 0 2 C0 1.34 0 0.68 0 0 Z M46 16 C45.67 21.28 45.34 26.56 45 32 C45.99 32 46.98 32 48 32 C47.67 26.72 47.34 21.44 47 16 C46.67 16 46.34 16 46 16 Z M71 19 C72 21 72 21 72 21 Z M23 22 C24 25 24 25 24 25 Z M71 23 C70.67 25.97 70.34 28.94 70 32 C70.99 31.67 71.98 31.34 73 31 C73 28.36 73 25.72 73 23 C72.34 23 71.68 23 71 23 Z M6 24 C7 28 7 28 7 28 Z M22 28 C22.99 29.485 22.99 29.485 24 31 C24 30.01 24 29.02 24 28 C23.34 28 22.68 28 22 28 Z M22 31 C21.66179834 32.5823006 21.32964061 34.16589375 21 35.75 C20.814375 36.63171875 20.62875 37.5134375 20.4375 38.421875 C19.88846325 41.22143965 19.88846325 41.22143965 20 45 C20.99 44.67 21.98 44.34 23 44 C24.29676812 39.38926889 23.71109139 35.66159911 23 31 C22.67 31 22.34 31 22 31 Z " fill="#020202" transform="translate(6,59)"/>
<path d="M0 0 C0.33 0.66 0.66 1.32 1 2 C2.33076989 2.34342449 3.66431979 2.67619874 5 3 C5.66 3.66 6.32 4.32 7 5 C7.66 5.33 8.32 5.66 9 6 C9.33 4.68 9.66 3.36 10 2 C9.34 1.67 8.68 1.34 8 1 C12.02457316 -0.34152439 15.8055795 -0.27060777 20 0 C20.66 0.99 21.32 1.98 22 3 C22.33 2.484375 22.66 1.96875 23 1.4375 C25.42485854 -0.30536708 26.22538412 -0.12428665 29.125 0.1875 C31.043125 0.5896875 31.043125 0.5896875 33 1 C34.15410254 3.30820508 34.1210297 4.60784276 34.11352539 7.17431641 C34.11344986 8.03505768 34.11337433 8.89579895 34.11329651 9.78262329 C34.10813522 10.71287323 34.10297394 11.64312317 34.09765625 12.6015625 C34.0962413 13.55316254 34.09482635 14.50476257 34.09336853 15.48519897 C34.08776012 18.53183097 34.07520619 21.57839013 34.0625 24.625 C34.05748608 26.68749894 34.05292299 28.74999903 34.04882812 30.8125 C34.03778796 35.87502817 34.02051767 40.93750173 34 46 C30.58389775 46.94314127 27.54865136 47.08065117 24 47 C23.87625 46.195625 23.7525 45.39125 23.625 44.5625 C23.41875 43.716875 23.2125 42.87125 23 42 C22.01 41.505 22.01 41.505 21 41 C21.3403125 41.86625 21.3403125 41.86625 21.6875 42.75 C22 45 22 45 20.5625 47.25 C20.046875 47.8275 19.53125 48.405 19 49 C11.05 47.05 11.05 47.05 9 44 C8.7827899 41.35003674 8.71648446 38.94923442 8.8125 36.3125 C8.83280273 35.2596582 8.83280273 35.2596582 8.85351562 34.18554688 C8.88879818 32.45670171 8.94260417 30.72825235 9 29 C8.7902259 39.71754953 8.7902259 39.71754953 6 43.5625 C2.23675674 46.62013515 -1.1780199 47.70201247 -6 48 C-9.80804192 46.73065269 -11.38051141 45.02248683 -14 42 C-16.62532321 35.55402011 -16.33076118 29.35890073 -16.3125 22.5 C-16.32861328 21.28957031 -16.34472656 20.07914063 -16.36132812 18.83203125 C-16.36197266 17.66027344 -16.36261719 16.48851562 -16.36328125 15.28125 C-16.36626221 14.21970703 -16.36924316 13.15816406 -16.37231445 12.06445312 C-15.94249785 8.52671015 -14.74628621 6.08219083 -13 3 C-13.66 2.67 -14.32 2.34 -15 2 C-10.01885239 1.10594786 -5.0302076 0.52537724 0 0 Z M21 5 C21.33 7.31 21.66 9.62 22 12 C22.33 12 22.66 12 23 12 C23 9.69 23 7.38 23 5 C22.34 5 21.68 5 21 5 Z M-5 13 C-5 20.92 -5 28.84 -5 37 C-4.01 36.67 -3.02 36.34 -2 36 C-1.97097571 32.72918529 -1.95319316 29.4584037 -1.9375 26.1875 C-1.92912109 25.25873047 -1.92074219 24.32996094 -1.91210938 23.37304688 C-1.90888672 22.48037109 -1.90566406 21.58769531 -1.90234375 20.66796875 C-1.89710693 19.84578857 -1.89187012 19.0236084 -1.88647461 18.17651367 C-1.91258476 15.81827404 -1.91258476 15.81827404 -3 13 C-3.66 13 -4.32 13 -5 13 Z " fill="#010101" transform="translate(438,60)"/>
<path d="M0 0 C2.475 1.485 2.475 1.485 5 3 C5.99 2.34 6.98 1.68 8 1 C11.3203125 0.98828125 11.3203125 0.98828125 15.125 1.3125 C16.38570312 1.41175781 17.64640625 1.51101562 18.9453125 1.61328125 C22 2 22 2 23 3 C23.21474894 4.35522984 23.37069875 5.71990448 23.5 7.0859375 C23.58193604 7.92946777 23.66387207 8.77299805 23.74829102 9.64208984 C23.83135498 10.5439502 23.91441895 11.44581055 24 12.375 C24.08757568 13.28588379 24.17515137 14.19676758 24.26538086 15.13525391 C24.798923 20.71531909 25.29414691 26.2985235 25.78125 31.8828125 C25.96705665 33.68115545 26.25417536 35.46856873 26.5625 37.25 C27.09287684 40.58379728 27.25910955 43.63157583 27 47 C23.62385079 49.25076614 21.93268335 49 18 49 C18 48.34 18 47.68 18 47 C17.34 47 16.68 47 16 47 C16 45.02 16 43.04 16 41 C15.01 41 14.02 41 13 41 C12.34 43.31 11.68 45.62 11 48 C9.37585622 48.19477739 7.75063577 48.38059458 6.125 48.5625 C4.76761719 48.71912109 4.76761719 48.71912109 3.3828125 48.87890625 C1 49 1 49 -1 48 C-1 48.66 -1 49.32 -1 50 C-2.65 50 -4.3 50 -6 50 C-6 49.34 -6 48.68 -6 48 C-6.66 47.67 -7.32 47.34 -8 47 C-8.6328125 45.15234375 -8.6328125 45.15234375 -9.125 42.9375 C-9.37636719 41.83728516 -9.37636719 41.83728516 -9.6328125 40.71484375 C-9.75398438 40.14894531 -9.87515625 39.58304688 -10 39 C-9.938125 40.3921875 -9.938125 40.3921875 -9.875 41.8125 C-10 45 -10 45 -12 48 C-15 48.125 -15 48.125 -18 48 C-18.99 48.495 -18.99 48.495 -20 49 C-22.58642863 45.13725973 -22.23754903 41.11903103 -22.16015625 36.65625 C-22.15495468 35.85014282 -22.14975311 35.04403564 -22.14439392 34.21350098 C-22.1266125 31.64214894 -22.09545175 29.07119888 -22.0625 26.5 C-22.03484019 23.92884035 -22.0101251 21.35773907 -21.99131775 18.78649902 C-21.97910763 17.18822095 -21.96155029 15.58997255 -21.93800354 13.99182129 C-21.87620561 9.89971589 -21.87620561 9.89971589 -22.56761169 5.88830566 C-23 4 -23 4 -22 2 C-18.37 2 -14.74 2 -11 2 C-10.67 2.66 -10.34 3.32 -10 4 C-9.67 3.34 -9.34 2.68 -9 2 C-6.03 2 -3.06 2 0 2 C0 1.34 0 0.68 0 0 Z M1 4 C0.87882812 4.65226562 0.75765625 5.30453125 0.6328125 5.9765625 C-0.81692261 13.53748871 -0.81692261 13.53748871 -2.1875 17 C-3.38591107 21.42490241 -2.65654759 25.51063404 -2 30 C-1.34 30 -0.68 30 0 30 C-0.3403125 30.99 -0.3403125 30.99 -0.6875 32 C-1.12330056 36.18368542 0.33630342 39.21203546 2 43 C2.33 43 2.66 43 3 43 C2.98839844 42.25234375 2.97679687 41.5046875 2.96484375 40.734375 C2.95130859 39.25710937 2.95130859 39.25710937 2.9375 37.75 C2.92589844 36.77546875 2.91429687 35.8009375 2.90234375 34.796875 C2.98882282 32.32011456 3.31502787 30.36214654 4 28 C5.45102379 20.09998161 5.70372762 11.87974025 4 4 C3.01 4 2.02 4 1 4 Z M-12 5 C-12 7.31 -12 9.62 -12 12 C-11.34 11.67 -10.68 11.34 -10 11 C-10 9.35 -10 7.7 -10 6 C-10.66 5.67 -11.32 5.34 -12 5 Z M5 6 C6 10 6 10 6 10 Z M14 22 C13.67 23.65 13.34 25.3 13 27 C13.66 26.34 14.32 25.68 15 25 C14.67 24.01 14.34 23.02 14 22 Z M14 27 C15 29 15 29 15 29 Z M13 29 C13 29.99 13 30.98 13 32 C13.99 32 14.98 32 16 32 C15.16666667 29.83333333 15.16666667 29.83333333 13 29 Z " fill="#020202" transform="translate(125,59)"/>
<path d="M0 0 C0.99 0.66 1.98 1.32 3 2 C3.66 2 4.32 2 5 2 C5.99 4.97 6.98 7.94 8 11 C7.89751953 9.86691406 7.89751953 9.86691406 7.79296875 8.7109375 C8 6 8 6 9.36328125 4.1640625 C14.40138532 0.18608053 18.02772557 -0.5826136 24.38671875 -0.11328125 C27.45168118 1.19242023 29.22158697 2.78396603 31.03833008 5.58129883 C33.17256968 10.94913629 32.62466606 16.81636107 32.5 22.5 C32.50386719 24.43939453 32.50386719 24.43939453 32.5078125 26.41796875 C32.38410733 38.45448146 32.38410733 38.45448146 29 44 C25.94838936 46.94816621 22.74357804 47.9459216 18.5625 48.25 C17.716875 48.1675 16.87125 48.085 16 48 C16 47.34 16 46.68 16 46 C15.401875 45.9175 14.80375 45.835 14.1875 45.75 C11.32587525 44.76887152 10.48679185 43.60188573 9 41 C9 39.68 9 38.36 9 37 C8.34 37 7.68 37 7 37 C7.33 38.65 7.66 40.3 8 42 C7.34 42 6.68 42 6 42 C5.1028125 42.928125 5.1028125 42.928125 4.1875 43.875 C1.76301155 46.23021735 0.26625105 47.16444741 -3 48 C-7.30933405 47.92304761 -9.38965736 47.47471094 -12.8125 44.8125 C-17.84903973 38.33694892 -17.30470663 31.41746033 -17.25 23.5625 C-17.25773438 22.45583984 -17.26546875 21.34917969 -17.2734375 20.20898438 C-17.24736478 9.30406993 -17.24736478 9.30406993 -15 4 C-10.85534696 0.19835273 -5.45378866 -0.64162219 0 0 Z M19 10 C20 12 20 12 20 12 Z M7 12 C7 13.98 7 15.96 7 18 C7.66 18 8.32 18 9 18 C8.67 16.02 8.34 14.04 8 12 C7.67 12 7.34 12 7 12 Z M21 12 C21 12.99 21 13.98 21 15 C20.01 15 19.02 15 18 15 C18 21.6 18 28.2 18 35 C18.66 35.33 19.32 35.66 20 36 C20 35.34 20 34.68 20 34 C20.66 34 21.32 34 22 34 C22 26.74 22 19.48 22 12 C21.67 12 21.34 12 21 12 Z M-5 15 C-5.33 16.32 -5.66 17.64 -6 19 C-5.01 18.67 -4.02 18.34 -3 18 C-3 17.01 -3 16.02 -3 15 C-3.66 15 -4.32 15 -5 15 Z M-6 20 C-6 22.64 -6 25.28 -6 28 C-5.01 27.67 -4.02 27.34 -3 27 C-0.72025599 26.77698156 1.55777666 26.62134081 3.84375 26.4765625 C6.40771424 25.90988924 7.34237456 24.98702536 9 23 C7.88710102 21.38275389 7.88710102 21.38275389 6 20 C3.02807238 19.63680691 3.02807238 19.63680691 -0.1875 19.8125 C-1.81751953 19.85310547 -1.81751953 19.85310547 -3.48046875 19.89453125 C-4.31191406 19.92933594 -5.14335937 19.96414062 -6 20 Z M7 26 C7.66 26.66 8.32 27.32 9 28 C9 27.34 9 26.68 9 26 C8.34 26 7.68 26 7 26 Z M7 28 C7.33 30.64 7.66 33.28 8 36 C8.33 36 8.66 36 9 36 C9 33.69 9 31.38 9 29 C8.34 28.67 7.68 28.34 7 28 Z M-6 29 C-6 31.64 -6 34.28 -6 37 C-5.01 36.67 -4.02 36.34 -3 36 C-3 33.69 -3 31.38 -3 29 C-3.99 29 -4.98 29 -6 29 Z " fill="#020202" transform="translate(213,60)"/>
<path d="M0 0 C2 1 2 1 3.875 2.9375 C6.87443058 5.84871203 8.80133081 7 13 7 C13.99 8.98 13.99 8.98 15 11 C18.465 10.505 18.465 10.505 22 10 C22 9.34 22 8.68 22 8 C24 6 24 6 25.9375 5.0625 C28.0659956 4.10666812 28.0659956 4.10666812 29.5625 2.375 C31 1 31 1 34 1 C35.35824882 2.30794331 36.68456137 3.64900897 38 5 C39.31394988 6.08637918 40.64912134 7.14739862 42 8.1875 C42.99 8.95126953 42.99 8.95126953 44 9.73046875 C46.02527251 11.01604212 47.65619053 11.56576744 50 12 C50 12.99 50 13.98 50 15 C51.65 15 53.3 15 55 15 C55 15.99 55 16.98 55 18 C55.7425 18.28875 56.485 18.5775 57.25 18.875 C59.56739797 19.82302644 61.77917115 20.84845911 64 22 C64 22.66 64 23.32 64 24 C64.515625 24.2475 65.03125 24.495 65.5625 24.75 C69.62792341 26.83483252 73.63741063 28.94020827 77.25 31.75 C79.04843652 33.2906191 79.04843652 33.2906191 82 33 C83.68997323 34.64302953 85.35216394 36.31471312 87 38 C91.06294252 41.58281242 91.06294252 41.58281242 96 43 C96 43.66 96 44.32 96 45 C97.65 45 99.3 45 101 45 C101.4021875 45.928125 101.4021875 45.928125 101.8125 46.875 C102.95556848 49.2995233 102.95556848 49.2995233 106 51 C105.34 52.65 104.68 54.3 104 56 C103.01 55.67 102.02 55.34 101 55 C101 54.34 101 53.68 101 53 C100.43410156 52.72285156 99.86820313 52.44570313 99.28515625 52.16015625 C96.17306612 50.58017203 93.15503979 48.84527556 90.12109375 47.12109375 C87.9133739 45.88016296 87.9133739 45.88016296 85 45 C84.443125 44.4225 83.88625 43.845 83.3125 43.25 C80.67037687 40.6792856 77.87878834 38.99617725 74.70703125 37.1484375 C73 36 73 36 72 34 C70.0998823 32.75825204 70.0998823 32.75825204 68 32 C67.01 32.495 67.01 32.495 66 33 C65.2575 32.21625 64.515 31.4325 63.75 30.625 C61.41297094 28.39419953 59.86228885 27.283095 57 26 C55 24 55 24 54 22 C52.02111039 21.27306096 50.02045442 20.60183749 48 20 C48 19.34 48 18.68 48 18 C47.0925 17.731875 46.185 17.46375 45.25 17.1875 C42.23392506 16.08547262 40.46743706 14.97394965 38 13 C35.410248 11.5432645 32.96337612 10.39511682 30 10 C29.34 10.66 28.68 11.32 28 12 C27.01 12.66 26.02 13.32 25 14 C25.495 16.475 25.495 16.475 26 19 C27.32 19 28.64 19 30 19 C30.66 19.33 31.32 19.66 32 20 C32.66 20 33.32 20 34 20 C34.495 21.98 34.495 21.98 35 24 C35.66 24 36.32 24 37 24 C37 24.66 37 25.32 37 26 C37.763125 26.28875 38.52625 26.5775 39.3125 26.875 C42.94505229 28.39560328 45.88174309 30.63442579 49 33 C49.66 32.67 50.32 32.34 51 32 C51 32.99 51 33.98 51 35 C51.515625 35.2475 52.03125 35.495 52.5625 35.75 C54.60717462 36.79855108 56.57827602 37.9064373 58.5625 39.0625 C61.83523224 41.05081818 61.83523224 41.05081818 65 42 C66.33333333 43.33333333 67.66666667 44.66666667 69 46 C69.66 46 70.32 46 71 46 C71 46.66 71 47.32 71 48 C71.99 47.67 72.98 47.34 74 47 C74 47.66 74 48.32 74 49 C74.99 49.33 75.98 49.66 77 50 C78.1875 53.0625 78.1875 53.0625 79 56 C76 57 76 57 73.375 56.1875 C71 55 71 55 70 53 C69.01 53.495 69.01 53.495 68 54 C67.34 53.01 66.68 52.02 66 51 C65.34 50.67 64.68 50.34 64 50 C64 49.34 64 48.68 64 48 C62.35 47.67 60.7 47.34 59 47 C59 46.34 59 45.68 59 45 C57.989375 44.79375 56.97875 44.5875 55.9375 44.375 C51.96983267 43.27109256 49.6834653 41.15575967 46.7109375 38.3984375 C44.35727162 36.47466493 41.925165 35.71345488 39 35 C39 34.01 39 33.02 39 32 C38.2575 31.71125 37.515 31.4225 36.75 31.125 C34.43260203 30.17697356 32.22082885 29.15154089 30 28 C30 27.34 30 26.68 30 26 C29.01 26 28.02 26 27 26 C27 25.34 27 24.68 27 24 C25.72125 23.731875 24.4425 23.46375 23.125 23.1875 C19.50324145 22.42809901 19.19948132 22.29922197 17 19 C15.34958048 17.57940332 15.34958048 17.57940332 13.5 16.3125 C12.8915625 15.87550781 12.283125 15.43851563 11.65625 14.98828125 C10.03520203 13.82919689 10.03520203 13.82919689 8 14 C7.01 13.01 7.01 13.01 6 12 C5.01 11.505 5.01 11.505 4 11 C3.01 10.01 3.01 10.01 2 9 C-1.08347826 8.83318891 -1.08347826 8.83318891 -4 9 C-4.37125 9.9590625 -4.37125 9.9590625 -4.75 10.9375 C-6 13 -6 13 -8.0625 13.625 C-8.701875 13.74875 -9.34125 13.8725 -10 14 C-10.33 14.66 -10.66 15.32 -11 16 C-12.99065541 17.01847486 -14.99248185 18.01517978 -17 19 C-18.0725 19.721875 -19.145 20.44375 -20.25 21.1875 C-23 23 -23 23 -25 23 C-25.33 23.66 -25.66 24.32 -26 25 C-29.6661534 28.01148315 -33.49081813 30.49693938 -38 32 C-38.433125 32.433125 -38.86625 32.86625 -39.3125 33.3125 C-41.63260518 35.63260518 -44.21464096 37.28137421 -47 39 C-47.66 39 -48.32 39 -49 39 C-49.33 39.66 -49.66 40.32 -50 41 C-51.32029193 41.69213542 -52.65645681 42.35415643 -54 43 C-56.35230169 44.54946835 -58.66291914 46.15132924 -60.9765625 47.7578125 C-63 49 -63 49 -65 49 C-65.33 49.99 -65.66 50.98 -66 52 C-66.66 52 -67.32 52 -68 52 C-69.37310707 53.29233607 -70.71034824 54.62437146 -72 56 C-74.31 55.34 -76.62 54.68 -79 54 C-78.01 53.505 -78.01 53.505 -77 53 C-77 52.34 -77 51.68 -77 51 C-75.02709413 48.65130253 -73.99693138 47.99897713 -71 47 C-69.42951994 45.56039328 -68.0318751 44.03622171 -66.625 42.4375 C-64.5704808 40.6200407 -62.56764932 39.9554044 -60 39 C-56.25070831 37.37738745 -56.25070831 37.37738745 -53 35 C-52.91299658 33.36527118 -52.89298937 31.72685945 -52.90234375 30.08984375 C-52.90717773 28.60581055 -52.90717773 28.60581055 -52.91210938 27.09179688 C-52.92048828 26.05087891 -52.92886719 25.00996094 -52.9375 23.9375 C-52.94201172 22.89271484 -52.94652344 21.84792969 -52.95117188 20.77148438 C-52.96300087 18.1809334 -52.97948311 15.59049441 -53 13 C-49.56061116 11.1268756 -47.66278115 10.86016037 -43.75 11.375 C-42.85796875 11.48585938 -41.9659375 11.59671875 -41.046875 11.7109375 C-40.37140625 11.80632813 -39.6959375 11.90171875 -39 12 C-38.67 11.34 -38.34 10.68 -38 10 C-37.01 10 -36.02 10 -35 10 C-32.60963393 13.5855491 -32 16.7085077 -32 21 C-31.01 21 -30.02 21 -29 21 C-28.34 19.68 -27.68 18.36 -27 17 C-26.34 17 -25.68 17 -25 17 C-24.34 16.34 -23.68 15.68 -23 15 C-22.01 14.34 -21.02 13.68 -20 13 C-20 12.67 -20 12.34 -20 12 C-18.88625 11.87625 -18.88625 11.87625 -17.75 11.75 C-14.40709424 10.83829843 -13.2758418 9.5694988 -11 7 C-8.04433041 3.66295369 -6.37866096 2.69136752 -2 2 C-1.34 1.34 -0.68 0.68 0 0 Z M22 14 C23 16 23 16 23 16 Z M-47 17 C-47.16788373 18.62487471 -47.33426787 20.24990442 -47.5 21.875 C-47.5928125 22.77992187 -47.685625 23.68484375 -47.78125 24.6171875 C-48.03047295 26.93313211 -48.03047295 26.93313211 -48 29 C-46.02 29.99 -46.02 29.99 -44 31 C-40.73929837 28.7613625 -40.73929837 28.7613625 -38 26 C-37.58423289 22.4956772 -37.41060653 20.17878694 -39 17 C-41.64 17 -44.28 17 -47 17 Z M-48 30 C-47.34 30.66 -46.68 31.32 -46 32 C-46 31.34 -46 30.68 -46 30 C-46.66 30 -47.32 30 -48 30 Z " fill="#010101" transform="translate(80,0)"/>
<path d="M0 0 C0.33 0.66 0.66 1.32 1 2 C1.99 1.67 2.98 1.34 4 1 C6.46105545 4.69158318 6.25575793 7.46623554 6.1953125 11.73046875 C6.1924826 12.48088943 6.18965271 13.23131012 6.18673706 14.00447083 C6.17555062 16.39897675 6.15044928 18.79310731 6.125 21.1875 C6.11496819 22.81184355 6.10584269 24.43619297 6.09765625 26.06054688 C6.07561637 30.040509 6.0410974 34.02019088 6 38 C8.33294775 38.04241723 10.66702567 38.04092937 13 38 C14.37269314 36.8581093 14.37269314 36.8581093 14.06591797 33.79711914 C14.04535323 32.3764011 14.02045757 30.95574185 13.9921875 29.53515625 C13.97467072 27.99805348 13.95776248 26.46094368 13.94140625 24.92382812 C13.91041199 22.4897949 13.87487849 20.05610808 13.82861328 17.62231445 C13.78637958 15.28071698 13.76286233 12.93952973 13.7421875 10.59765625 C13.72356659 9.86740738 13.70494568 9.13715851 13.6857605 8.38478088 C13.67529297 6.33227539 13.67529297 6.33227539 14 3 C14.99 2.34 15.98 1.68 17 1 C17.66 1.33 18.32 1.66 19 2 C19.33 1.34 19.66 0.68 20 0 C20 0.66 20 1.32 20 2 C21.32 1.67 22.64 1.34 24 1 C26.07538624 4.11307936 26.24772151 4.76348195 26.22705078 8.2878418 C26.22689972 9.14850754 26.22674866 10.00917328 26.22659302 10.8959198 C26.21627045 11.82100845 26.20594788 12.74609711 26.1953125 13.69921875 C26.1924826 14.64940384 26.18965271 15.59958893 26.18673706 16.5785675 C26.17553715 19.61500615 26.15043288 22.65115042 26.125 25.6875 C26.11496996 27.74543845 26.10584415 29.80338152 26.09765625 31.86132812 C26.07559842 36.9076656 26.04106982 41.95378288 26 47 C25.08605469 47.15210938 24.17210937 47.30421875 23.23046875 47.4609375 C20.92395354 47.84582154 18.6180258 48.23423292 16.3125 48.625 C13 49 13 49 10 48 C7.62542065 47.95530204 5.24967962 47.96099089 2.875 48 C0.58363995 48.03748646 -1.70881286 48.04687851 -4 48 C-6.09270683 45.90729317 -5.28281749 41.40485107 -5.3515625 38.51171875 C-5.37471527 37.65697464 -5.39786804 36.80223053 -5.42172241 35.92158508 C-5.46944324 34.10834868 -5.51466718 32.29504514 -5.55761719 30.48168945 C-5.62446856 27.70953753 -5.70231559 24.93784667 -5.78125 22.16601562 C-5.82618862 20.40626693 -5.87048045 18.64650157 -5.9140625 16.88671875 C-5.94990952 15.64277596 -5.94990952 15.64277596 -5.98648071 14.373703 C-6.0033493 13.59642349 -6.0202179 12.81914398 -6.03759766 12.01831055 C-6.05456696 11.33737839 -6.07153625 10.65644623 -6.08901978 9.95487976 C-5.9934426 7.85599918 -5.57383147 6.01657404 -5 4 C-5.66 3.67 -6.32 3.34 -7 3 C-3.535 2.505 -3.535 2.505 0 2 C0 1.34 0 0.68 0 0 Z M14 38 C15 40 15 40 15 40 Z M14 41 C15 43 15 43 15 43 Z M14 45 C15 47 15 47 15 47 Z " fill="#010101" transform="translate(158,59)"/>
<path d="M0 0 C0.33 0 0.66 0 1 0 C1 2.97 1 5.94 1 9 C0.67 9 0.34 9 0 9 C0 6.03 0 3.06 0 0 Z " fill="#000000" transform="translate(233,80)"/>
<path d="M0 0 C1.65 0 3.3 0 5 0 C5 0.33 5 0.66 5 1 C3.35 1 1.7 1 0 1 C0 0.67 0 0.34 0 0 Z " fill="#000000" transform="translate(434,108)"/>
<path d="M0 0 C0.99 0.33 1.98 0.66 3 1 C2.01 1.33 1.02 1.66 0 2 C0 1.34 0 0.68 0 0 Z " fill="#000000" transform="translate(406,72)"/>
<path d="M0 0 C1.32 0 2.64 0 4 0 C3.67 0.66 3.34 1.32 3 2 C2.01 1.34 1.02 0.68 0 0 Z " fill="#000000" transform="translate(173,51)"/>
<path d="M0 0 C0.66 0.33 1.32 0.66 2 1 C1.01 1.66 0.02 2.32 -1 3 C-0.67 2.01 -0.34 1.02 0 0 Z " fill="#000000" transform="translate(39,25)"/>
<path d="M0 0 C4 1 4 1 4 1 Z " fill="#000000" transform="translate(130,108)"/>
<path d="M0 0 C0.66 0 1.32 0 2 0 C1.67 0.99 1.34 1.98 1 3 C0.67 2.01 0.34 1.02 0 0 Z " fill="#000000" transform="translate(52,101)"/>
<path d="M0 0 C0.66 0 1.32 0 2 0 C2 0.66 2 1.32 2 2 C1.34 2 0.68 2 0 2 C0 1.34 0 0.68 0 0 Z " fill="#000000" transform="translate(139,100)"/>
<path d="M0 0 C1 4 1 4 1 4 Z " fill="#000000" transform="translate(151,84)"/>
<path d="M0 0 C4 1 4 1 4 1 Z " fill="#000000" transform="translate(381,81)"/>
<path d="M0 0 C1 4 1 4 1 4 Z " fill="#000000" transform="translate(151,77)"/>
<path d="M0 0 C0.66 0 1.32 0 2 0 C2 0.66 2 1.32 2 2 C1.34 2 0.68 2 0 2 C0 1.34 0 0.68 0 0 Z " fill="#000000" transform="translate(126,67)"/>
<path d="M0 0 C1 4 1 4 1 4 Z " fill="#000000" transform="translate(422,63)"/>
<path d="M0 0 C0.66 0.66 1.32 1.32 2 2 C1.01 2.495 1.01 2.495 0 3 C0 2.01 0 1.02 0 0 Z " fill="#000000" transform="translate(444,62)"/>
<path d="M0 0 C0 3 0 3 0 3 Z " fill="#000000" transform="translate(245,63)"/>
<path d="M0 0 C0.99 0.33 1.98 0.66 3 1 C2.01 1 1.02 1 0 1 C0 0.67 0 0.34 0 0 Z " fill="#000000" transform="translate(91,16)"/>
<path d="M0 0 C3 1 3 1 3 1 Z " fill="#000000" transform="translate(450,108)"/>
<path d="M0 0 C3 1 3 1 3 1 Z " fill="#000000" transform="translate(417,108)"/>
<path d="M0 0 C3 1 3 1 3 1 Z " fill="#000000" transform="translate(263,108)"/>
<path d="M0 0 C3 1 3 1 3 1 Z " fill="#000000" transform="translate(4,108)"/>
<path d="M0 0 C3 1 3 1 3 1 Z " fill="#000000" transform="translate(464,107)"/>
<path d="M0 0 C3 1 3 1 3 1 Z " fill="#000000" transform="translate(394,107)"/>
<path d="M0 0 C0.66 0 1.32 0 2 0 C1.67 0.66 1.34 1.32 1 2 C0.67 1.34 0.34 0.68 0 0 Z " fill="#000000" transform="translate(152,107)"/>
<path d="M0 0 C0.33 0.66 0.66 1.32 1 2 C0.34 1.67 -0.32 1.34 -1 1 C-0.67 0.67 -0.34 0.34 0 0 Z " fill="#000000" transform="translate(441,106)"/>
<path d="M0 0 C0.66 0 1.32 0 2 0 C1.67 0.66 1.34 1.32 1 2 C0.67 1.34 0.34 0.68 0 0 Z " fill="#000000" transform="translate(243,103)"/>
<path d="M0 0 C0.66 0 1.32 0 2 0 C1.67 0.66 1.34 1.32 1 2 C0.67 1.34 0.34 0.68 0 0 Z " fill="#000000" transform="translate(76,103)"/>
<path d="" fill="#000000" transform="translate(0,0)"/>
<path d="M0 0 C3 1 3 1 3 1 Z " fill="#000000" transform="translate(386,81)"/>
<path d="M0 0 C3 1 3 1 3 1 Z " fill="#000000" transform="translate(215,81)"/>
<path d="" fill="#000000" transform="translate(0,0)"/>
<path d="" fill="#000000" transform="translate(0,0)"/>
<path d="" fill="#000000" transform="translate(0,0)"/>
<path d="" fill="#000000" transform="translate(0,0)"/>
<path d="M0 0 C0.33 0.66 0.66 1.32 1 2 C0.34 1.67 -0.32 1.34 -1 1 C-0.67 0.67 -0.34 0.34 0 0 Z " fill="#000000" transform="translate(220,64)"/>
<path d="M0 0 C0.66 0 1.32 0 2 0 C1.67 0.66 1.34 1.32 1 2 C0.67 1.34 0.34 0.68 0 0 Z " fill="#000000" transform="translate(291,61)"/>
<path d="M0 0 C0.66 0 1.32 0 2 0 C1.67 0.66 1.34 1.32 1 2 C0.67 1.34 0.34 0.68 0 0 Z " fill="#000000" transform="translate(273,61)"/>
<path d="M0 0 C3 1 3 1 3 1 Z " fill="#000000" transform="translate(8,59)"/>
<path d="M0 0 C0.66 0 1.32 0 2 0 C1.67 0.66 1.34 1.32 1 2 C0.67 1.34 0.34 0.68 0 0 Z " fill="#000000" transform="translate(138,37)"/>
<path d="M0 0 C0.66 0 1.32 0 2 0 C1.67 0.66 1.34 1.32 1 2 C0.67 1.34 0.34 0.68 0 0 Z " fill="#000000" transform="translate(164,35)"/>
<path d="M0 0 C0.66 0.66 1.32 1.32 2 2 C1.34 2 0.68 2 0 2 C0 1.34 0 0.68 0 0 Z " fill="#000000" transform="translate(147,33)"/>
<path d="M0 0 C0.33 0.66 0.66 1.32 1 2 C0.34 1.67 -0.32 1.34 -1 1 C-0.67 0.67 -0.34 0.34 0 0 Z " fill="#000000" transform="translate(128,30)"/>
<path d="M0 0 C0.66 0 1.32 0 2 0 C1.67 0.66 1.34 1.32 1 2 C0.67 1.34 0.34 0.68 0 0 Z " fill="#000000" transform="translate(114,22)"/>
<path d="M0 0 C0.66 0.66 1.32 1.32 2 2 C1.34 2 0.68 2 0 2 C0 1.34 0 0.68 0 0 Z " fill="#000000" transform="translate(27,10)"/>
<path d="M0 0 C0.99 0.495 0.99 0.495 2 1 C1.01 1.495 1.01 1.495 0 2 C0 1.34 0 0.68 0 0 Z " fill="#000000" transform="translate(76,1)"/>
<path d="M0 0 C2 1 2 1 2 1 Z " fill="#000000" transform="translate(402,108)"/>
<path d="M0 0 C2 1 2 1 2 1 Z " fill="#000000" transform="translate(377,108)"/>
<path d="M0 0 C2 1 2 1 2 1 Z " fill="#000000" transform="translate(319,108)"/>
<path d="" fill="#000000" transform="translate(0,0)"/>
<path d="M0 0 C2 1 2 1 2 1 Z " fill="#000000" transform="translate(283,108)"/>
<path d="M0 0 C2 1 2 1 2 1 Z " fill="#000000" transform="translate(231,108)"/>
<path d="M0 0 C2 1 2 1 2 1 Z " fill="#000000" transform="translate(176,108)"/>
<path d="M0 0 C2 1 2 1 2 1 Z " fill="#000000" transform="translate(168,108)"/>
<path d="M0 0 C2 1 2 1 2 1 Z " fill="#000000" transform="translate(147,108)"/>
<path d="" fill="#000000" transform="translate(0,0)"/>
<path d="M0 0 C2 1 2 1 2 1 Z " fill="#000000" transform="translate(108,108)"/>
<path d="M0 0 C2 1 2 1 2 1 Z " fill="#000000" transform="translate(47,108)"/>
<path d="M0 0 C2 1 2 1 2 1 Z " fill="#000000" transform="translate(44,108)"/>
<path d="" fill="#000000" transform="translate(0,0)"/>
<path d="M0 0 C2 1 2 1 2 1 Z " fill="#000000" transform="translate(8,108)"/>
<path d="" fill="#000000" transform="translate(0,0)"/>
<path d="M0 0 C2 1 2 1 2 1 Z " fill="#000000" transform="translate(336,107)"/>
<path d="M0 0 C2 1 2 1 2 1 Z " fill="#000000" transform="translate(237,107)"/>
<path d="M0 0 C2 1 2 1 2 1 Z " fill="#000000" transform="translate(213,107)"/>
<path d="M0 0 C2 1 2 1 2 1 Z " fill="#000000" transform="translate(156,107)"/>
<path d="M0 0 C2 1 2 1 2 1 Z " fill="#000000" transform="translate(89,107)"/>
<path d="M0 0 C2 1 2 1 2 1 Z " fill="#000000" transform="translate(49,107)"/>
<path d="M0 0 C2 1 2 1 2 1 Z " fill="#000000" transform="translate(11,107)"/>
<path d="M0 0 C2 1 2 1 2 1 Z " fill="#000000" transform="translate(114,106)"/>
<path d="" fill="#000000" transform="translate(0,0)"/>
<path d="" fill="#000000" transform="translate(0,0)"/>
<path d="M0 0 C2 1 2 1 2 1 Z " fill="#000000" transform="translate(341,105)"/>
<path d="M0 0 C2 1 2 1 2 1 Z " fill="#000000" transform="translate(273,105)"/>
<path d="" fill="#000000" transform="translate(0,0)"/>
<path d="" fill="#000000" transform="translate(0,0)"/>
<path d="" fill="#000000" transform="translate(0,0)"/>
<path d="M0 0 C2 1 2 1 2 1 Z " fill="#000000" transform="translate(196,102)"/>
<path d="" fill="#000000" transform="translate(0,0)"/>
<path d="" fill="#000000" transform="translate(0,0)"/>
<path d="" fill="#000000" transform="translate(0,0)"/>
<path d="M0 0 C2 1 2 1 2 1 Z " fill="#000000" transform="translate(377,85)"/>
<path d="M0 0 C2 1 2 1 2 1 Z " fill="#000000" transform="translate(382,84)"/>
<path d="M0 0 C2 1 2 1 2 1 Z " fill="#000000" transform="translate(208,84)"/>
<path d="" fill="#000000" transform="translate(0,0)"/>
<path d="" fill="#000000" transform="translate(0,0)"/>
<path d="M0 0 C2 1 2 1 2 1 Z " fill="#050505" transform="translate(273,82)"/>
<path d="M0 0 C2 1 2 1 2 1 Z " fill="#000000" transform="translate(377,81)"/>
<path d="" fill="#000000" transform="translate(0,0)"/>
<path d="" fill="#000000" transform="translate(0,0)"/>
<path d="" fill="#000000" transform="translate(0,0)"/>
<path d="" fill="#000000" transform="translate(0,0)"/>
<path d="" fill="#000000" transform="translate(0,0)"/>
<path d="" fill="#000000" transform="translate(0,0)"/>
<path d="" fill="#000000" transform="translate(0,0)"/>
<path d="M0 0 C2 1 2 1 2 1 Z " fill="#000000" transform="translate(314,72)"/>
<path d="" fill="#000000" transform="translate(0,0)"/>
<path d="" fill="#000000" transform="translate(0,0)"/>
<path d="" fill="#000000" transform="translate(0,0)"/>
<path d="" fill="#000000" transform="translate(0,0)"/>
<path d="" fill="#000000" transform="translate(0,0)"/>
<path d="" fill="#000000" transform="translate(0,0)"/>
<path d="" fill="#000000" transform="translate(0,0)"/>
<path d="" fill="#000000" transform="translate(0,0)"/>
<path d="" fill="#000000" transform="translate(0,0)"/>
<path d="" fill="#000000" transform="translate(0,0)"/>
<path d="M0 0 C2 1 2 1 2 1 Z " fill="#000000" transform="translate(384,60)"/>
<path d="M0 0 C2 1 2 1 2 1 Z " fill="#000000" transform="translate(335,60)"/>
<path d="M0 0 C2 1 2 1 2 1 Z " fill="#000000" transform="translate(433,59)"/>
<path d="M0 0 C2 1 2 1 2 1 Z " fill="#000000" transform="translate(430,59)"/>
<path d="M0 0 C2 1 2 1 2 1 Z " fill="#000000" transform="translate(377,59)"/>
<path d="M0 0 C2 1 2 1 2 1 Z " fill="#000000" transform="translate(234,59)"/>
<path d="M0 0 C2 1 2 1 2 1 Z " fill="#000000" transform="translate(182,59)"/>
<path d="M0 0 C2 1 2 1 2 1 Z " fill="#000000" transform="translate(144,59)"/>
<path d="M0 0 C2 1 2 1 2 1 Z " fill="#000000" transform="translate(118,59)"/>
<path d="M0 0 C2 1 2 1 2 1 Z " fill="#000000" transform="translate(28,59)"/>
<path d="M0 0 C2 1 2 1 2 1 Z " fill="#000000" transform="translate(153,57)"/>
<path d="M0 0 C2 1 2 1 2 1 Z " fill="#000000" transform="translate(178,54)"/>
<path d="M0 0 C2 1 2 1 2 1 Z " fill="#000000" transform="translate(170,49)"/>
<path d="M0 0 C2 1 2 1 2 1 Z " fill="#000000" transform="translate(166,46)"/>
<path d="M0 0 C2 1 2 1 2 1 Z " fill="#000000" transform="translate(28,41)"/>
<path d="" fill="#000000" transform="translate(0,0)"/>
<path d="M0 0 C2 1 2 1 2 1 Z " fill="#000000" transform="translate(135,36)"/>
<path d="M0 0 C2 1 2 1 2 1 Z " fill="#000000" transform="translate(121,26)"/>
<path d="M0 0 C2 1 2 1 2 1 Z " fill="#000000" transform="translate(149,25)"/>
<path d="M0 0 C2 1 2 1 2 1 Z " fill="#000000" transform="translate(119,25)"/>
<path d="M0 0 C2 1 2 1 2 1 Z " fill="#000000" transform="translate(125,19)"/>
<path d="M0 0 C2 1 2 1 2 1 Z " fill="#000000" transform="translate(138,18)"/>
<path d="" fill="#000000" transform="translate(0,0)"/>
<path d="M0 0 C2 1 2 1 2 1 Z " fill="#000000" transform="translate(108,18)"/>
<path d="M0 0 C2 1 2 1 2 1 Z " fill="#000000" transform="translate(53,16)"/>
<path d="" fill="#000000" transform="translate(0,0)"/>
<path d="M0 0 C2 1 2 1 2 1 Z " fill="#000000" transform="translate(126,10)"/>
<path d="" fill="#000000" transform="translate(0,0)"/>
<path d="M0 0 C2 1 2 1 2 1 Z " fill="#000000" transform="translate(95,8)"/>
<path d="M0 0 C2 1 2 1 2 1 Z " fill="#000000" transform="translate(102,6)"/>
<path d="M0 0 C2 1 2 1 2 1 Z " fill="#000000" transform="translate(85,3)"/>
<path d="M0 0 C2 1 2 1 2 1 Z " fill="#000000" transform="translate(82,1)"/>
<path d="" fill="#000000" transform="translate(0,0)"/>
<path d="" fill="#000000" transform="translate(0,0)"/>
<path d="" fill="#000000" transform="translate(0,0)"/>
<path d="" fill="#000000" transform="translate(0,0)"/>
<path d="" fill="#000000" transform="translate(0,0)"/>
<path d="" fill="#000000" transform="translate(0,0)"/>
<path d="" fill="#000000" transform="translate(0,0)"/>
<path d="" fill="#000000" transform="translate(0,0)"/>
<path d="" fill="#000000" transform="translate(0,0)"/>
<path d="" fill="#000000" transform="translate(0,0)"/>
<path d="" fill="#000000" transform="translate(0,0)"/>
<path d="" fill="#000000" transform="translate(0,0)"/>
<path d="" fill="#000000" transform="translate(0,0)"/>
<path d="" fill="#000000" transform="translate(0,0)"/>
<path d="" fill="#000000" transform="translate(0,0)"/>
<path d="" fill="#000000" transform="translate(0,0)"/>
<path d="" fill="#000000" transform="translate(0,0)"/>
<path d="" fill="#000000" transform="translate(0,0)"/>
<path d="" fill="#000000" transform="translate(0,0)"/>
<path d="" fill="#000000" transform="translate(0,0)"/>
<path d="" fill="#000000" transform="translate(0,0)"/>
<path d="" fill="#000000" transform="translate(0,0)"/>
<path d="" fill="#000000" transform="translate(0,0)"/>
<path d="" fill="#000000" transform="translate(0,0)"/>
<path d="" fill="#000000" transform="translate(0,0)"/>
<path d="" fill="#000000" transform="translate(0,0)"/>
<path d="" fill="#000000" transform="translate(0,0)"/>
<path d="" fill="#000000" transform="translate(0,0)"/>
<path d="" fill="#000000" transform="translate(0,0)"/>
<path d="" fill="#000000" transform="translate(0,0)"/>
<path d="" fill="#000000" transform="translate(0,0)"/>
<path d="" fill="#000000" transform="translate(0,0)"/>
<path d="" fill="#000000" transform="translate(0,0)"/>
<path d="" fill="#000000" transform="translate(0,0)"/>
<path d="" fill="#000000" transform="translate(0,0)"/>
<path d="" fill="#000000" transform="translate(0,0)"/>
<path d="" fill="#000000" transform="translate(0,0)"/>
<path d="" fill="#000000" transform="translate(0,0)"/>
<path d="" fill="#000000" transform="translate(0,0)"/>
<path d="" fill="#000000" transform="translate(0,0)"/>
<path d="" fill="#000000" transform="translate(0,0)"/>
<path d="" fill="#000000" transform="translate(0,0)"/>
<path d="" fill="#000000" transform="translate(0,0)"/>
<path d="" fill="#000000" transform="translate(0,0)"/>
<path d="" fill="#000000" transform="translate(0,0)"/>
<path d="" fill="#0C0C0C" transform="translate(0,0)"/>
<path d="" fill="#000000" transform="translate(0,0)"/>
<path d="" fill="#000000" transform="translate(0,0)"/>
<path d="" fill="#000000" transform="translate(0,0)"/>
<path d="" fill="#000000" transform="translate(0,0)"/>
<path d="" fill="#000000" transform="translate(0,0)"/>
<path d="" fill="#000000" transform="translate(0,0)"/>
<path d="" fill="#000000" transform="translate(0,0)"/>
<path d="" fill="#000000" transform="translate(0,0)"/>
<path d="" fill="#000000" transform="translate(0,0)"/>
<path d="" fill="#000000" transform="translate(0,0)"/>
<path d="" fill="#000000" transform="translate(0,0)"/>
<path d="" fill="#000000" transform="translate(0,0)"/>
<path d="" fill="#000000" transform="translate(0,0)"/>
<path d="" fill="#000000" transform="translate(0,0)"/>
<path d="" fill="#000000" transform="translate(0,0)"/>
<path d="" fill="#000000" transform="translate(0,0)"/>
<path d="" fill="#000000" transform="translate(0,0)"/>
<path d="" fill="#000000" transform="translate(0,0)"/>
<path d="" fill="#000000" transform="translate(0,0)"/>
<path d="" fill="#000000" transform="translate(0,0)"/>
<path d="" fill="#000000" transform="translate(0,0)"/>
<path d="" fill="#000000" transform="translate(0,0)"/>
<path d="" fill="#000000" transform="translate(0,0)"/>
<path d="" fill="#000000" transform="translate(0,0)"/>
<path d="" fill="#000000" transform="translate(0,0)"/>
<path d="" fill="#000000" transform="translate(0,0)"/>
<path d="" fill="#000000" transform="translate(0,0)"/>
<path d="" fill="#000000" transform="translate(0,0)"/>
<path d="" fill="#000000" transform="translate(0,0)"/>
<path d="" fill="#000000" transform="translate(0,0)"/>
<path d="" fill="#000000" transform="translate(0,0)"/>
<path d="" fill="#000000" transform="translate(0,0)"/>
<path d="" fill="#000000" transform="translate(0,0)"/>
<path d="" fill="#000000" transform="translate(0,0)"/>
<path d="" fill="#000000" transform="translate(0,0)"/>
<path d="" fill="#000000" transform="translate(0,0)"/>
<path d="" fill="#000000" transform="translate(0,0)"/>
<path d="" fill="#000000" transform="translate(0,0)"/>
<path d="" fill="#151515" transform="translate(0,0)"/>
<path d="" fill="#000000" transform="translate(0,0)"/>
<path d="" fill="#000000" transform="translate(0,0)"/>
<path d="" fill="#000000" transform="translate(0,0)"/>
<path d="" fill="#000000" transform="translate(0,0)"/>
<path d="" fill="#000000" transform="translate(0,0)"/>
<path d="" fill="#000000" transform="translate(0,0)"/>
<path d="" fill="#000000" transform="translate(0,0)"/>
<path d="" fill="#000000" transform="translate(0,0)"/>
<path d="" fill="#000000" transform="translate(0,0)"/>
<path d="" fill="#000000" transform="translate(0,0)"/>
<path d="" fill="#000000" transform="translate(0,0)"/>
<path d="" fill="#000000" transform="translate(0,0)"/>
<path d="" fill="#000000" transform="translate(0,0)"/>
<path d="" fill="#000000" transform="translate(0,0)"/>
<path d="" fill="#000000" transform="translate(0,0)"/>
<path d="" fill="#000000" transform="translate(0,0)"/>
<path d="" fill="#000000" transform="translate(0,0)"/>
<path d="" fill="#000000" transform="translate(0,0)"/>
<path d="" fill="#000000" transform="translate(0,0)"/>
<path d="" fill="#000000" transform="translate(0,0)"/>
<path d="" fill="#000000" transform="translate(0,0)"/>
<path d="" fill="#000000" transform="translate(0,0)"/>
<path d="" fill="#000000" transform="translate(0,0)"/>
<path d="" fill="#000000" transform="translate(0,0)"/>
<path d="" fill="#000000" transform="translate(0,0)"/>
<path d="" fill="#000000" transform="translate(0,0)"/>
<path d="" fill="#000000" transform="translate(0,0)"/>
<path d="" fill="#000000" transform="translate(0,0)"/>
<path d="" fill="#000000" transform="translate(0,0)"/>
<path d="" fill="#000000" transform="translate(0,0)"/>
<path d="" fill="#000000" transform="translate(0,0)"/>
<path d="" fill="#000000" transform="translate(0,0)"/>
<path d="" fill="#000000" transform="translate(0,0)"/>
<path d="" fill="#000000" transform="translate(0,0)"/>
<path d="" fill="#000000" transform="translate(0,0)"/>
<path d="" fill="#000000" transform="translate(0,0)"/>
<path d="" fill="#000000" transform="translate(0,0)"/>
<path d="" fill="#000000" transform="translate(0,0)"/>
<path d="" fill="#000000" transform="translate(0,0)"/>
<path d="" fill="#000000" transform="translate(0,0)"/>
<path d="" fill="#000000" transform="translate(0,0)"/>
<path d="" fill="#000000" transform="translate(0,0)"/>
<path d="" fill="#000000" transform="translate(0,0)"/>
<path d="" fill="#000000" transform="translate(0,0)"/>
<path d="" fill="#000000" transform="translate(0,0)"/>
<path d="" fill="#000000" transform="translate(0,0)"/>
<path d="" fill="#000000" transform="translate(0,0)"/>
<path d="" fill="#000000" transform="translate(0,0)"/>
<path d="" fill="#000000" transform="translate(0,0)"/>
<path d="" fill="#000000" transform="translate(0,0)"/>
<path d="" fill="#000000" transform="translate(0,0)"/>
<path d="" fill="#000000" transform="translate(0,0)"/>
<path d="" fill="#000000" transform="translate(0,0)"/>
<path d="" fill="#000000" transform="translate(0,0)"/>
<path d="" fill="#000000" transform="translate(0,0)"/>
<path d="" fill="#000000" transform="translate(0,0)"/>
<path d="" fill="#000000" transform="translate(0,0)"/>
<path d="" fill="#000000" transform="translate(0,0)"/>
<path d="" fill="#000000" transform="translate(0,0)"/>
<path d="" fill="#000000" transform="translate(0,0)"/>
<path d="" fill="#000000" transform="translate(0,0)"/>
<path d="" fill="#000000" transform="translate(0,0)"/>
<path d="" fill="#000000" transform="translate(0,0)"/>
<path d="" fill="#000000" transform="translate(0,0)"/>
<path d="" fill="#000000" transform="translate(0,0)"/>
<path d="" fill="#000000" transform="translate(0,0)"/>
<path d="" fill="#000000" transform="translate(0,0)"/>
<path d="" fill="#000000" transform="translate(0,0)"/>
<path d="" fill="#000000" transform="translate(0,0)"/>
<path d="" fill="#000000" transform="translate(0,0)"/>
<path d="" fill="#111111" transform="translate(0,0)"/>
<path d="" fill="#000000" transform="translate(0,0)"/>
<path d="" fill="#000000" transform="translate(0,0)"/>
<path d="" fill="#000000" transform="translate(0,0)"/>
<path d="" fill="#000000" transform="translate(0,0)"/>
<path d="" fill="#000000" transform="translate(0,0)"/>
<path d="" fill="#000000" transform="translate(0,0)"/>
<path d="" fill="#000000" transform="translate(0,0)"/>
<path d="" fill="#000000" transform="translate(0,0)"/>
<path d="" fill="#000000" transform="translate(0,0)"/>
<path d="" fill="#000000" transform="translate(0,0)"/>
<path d="" fill="#000000" transform="translate(0,0)"/>
<path d="" fill="#000000" transform="translate(0,0)"/>
<path d="" fill="#000000" transform="translate(0,0)"/>
<path d="" fill="#000000" transform="translate(0,0)"/>
<path d="" fill="#000000" transform="translate(0,0)"/>
<path d="" fill="#000000" transform="translate(0,0)"/>
<path d="" fill="#000000" transform="translate(0,0)"/>
<path d="" fill="#000000" transform="translate(0,0)"/>
<path d="" fill="#000000" transform="translate(0,0)"/>
<path d="" fill="#000000" transform="translate(0,0)"/>
<path d="" fill="#000000" transform="translate(0,0)"/>
<path d="" fill="#000000" transform="translate(0,0)"/>
<path d="" fill="#000000" transform="translate(0,0)"/>
<path d="" fill="#000000" transform="translate(0,0)"/>
<path d="" fill="#000000" transform="translate(0,0)"/>
<path d="" fill="#000000" transform="translate(0,0)"/>
<path d="" fill="#000000" transform="translate(0,0)"/>
<path d="" fill="#000000" transform="translate(0,0)"/>
<path d="" fill="#000000" transform="translate(0,0)"/>
<path d="" fill="#000000" transform="translate(0,0)"/>
<path d="" fill="#000000" transform="translate(0,0)"/>
<path d="" fill="#000000" transform="translate(0,0)"/>
<path d="" fill="#000000" transform="translate(0,0)"/>
<path d="" fill="#000000" transform="translate(0,0)"/>
<path d="" fill="#000000" transform="translate(0,0)"/>
<path d="" fill="#000000" transform="translate(0,0)"/>
<path d="" fill="#000000" transform="translate(0,0)"/>
<path d="" fill="#000000" transform="translate(0,0)"/>
<path d="" fill="#000000" transform="translate(0,0)"/>
<path d="" fill="#000000" transform="translate(0,0)"/>
<path d="" fill="#000000" transform="translate(0,0)"/>
<path d="" fill="#000000" transform="translate(0,0)"/>
<path d="" fill="#000000" transform="translate(0,0)"/>
<path d="" fill="#000000" transform="translate(0,0)"/>
<path d="" fill="#000000" transform="translate(0,0)"/>
<path d="" fill="#000000" transform="translate(0,0)"/>
<path d="" fill="#000000" transform="translate(0,0)"/>
<path d="" fill="#000000" transform="translate(0,0)"/>
<path d="" fill="#000000" transform="translate(0,0)"/>
<path d="" fill="#000000" transform="translate(0,0)"/>
<path d="" fill="#000000" transform="translate(0,0)"/>
<path d="" fill="#000000" transform="translate(0,0)"/>
<path d="" fill="#000000" transform="translate(0,0)"/>
<path d="" fill="#000000" transform="translate(0,0)"/>
<path d="" fill="#000000" transform="translate(0,0)"/>
<path d="" fill="#000000" transform="translate(0,0)"/>
<path d="" fill="#000000" transform="translate(0,0)"/>
<path d="" fill="#000000" transform="translate(0,0)"/>
<path d="" fill="#000000" transform="translate(0,0)"/>
<path d="" fill="#000000" transform="translate(0,0)"/>
<path d="" fill="#000000" transform="translate(0,0)"/>
<path d="" fill="#000000" transform="translate(0,0)"/>
<path d="" fill="#000000" transform="translate(0,0)"/>
<path d="" fill="#000000" transform="translate(0,0)"/>
<path d="" fill="#000000" transform="translate(0,0)"/>
<path d="" fill="#000000" transform="translate(0,0)"/>
<path d="" fill="#000000" transform="translate(0,0)"/>
<path d="" fill="#000000" transform="translate(0,0)"/>
<path d="" fill="#000000" transform="translate(0,0)"/>
<path d="" fill="#000000" transform="translate(0,0)"/>
<path d="" fill="#000000" transform="translate(0,0)"/>
<path d="" fill="#000000" transform="translate(0,0)"/>
<path d="" fill="#000000" transform="translate(0,0)"/>
<path d="" fill="#000000" transform="translate(0,0)"/>
<path d="" fill="#000000" transform="translate(0,0)"/>
<path d="" fill="#000000" transform="translate(0,0)"/>
<path d="" fill="#000000" transform="translate(0,0)"/>
<path d="" fill="#000000" transform="translate(0,0)"/>
<path d="" fill="#000000" transform="translate(0,0)"/>
<path d="" fill="#000000" transform="translate(0,0)"/>
<path d="" fill="#000000" transform="translate(0,0)"/>
<path d="" fill="#000000" transform="translate(0,0)"/>
<path d="" fill="#000000" transform="translate(0,0)"/>
<path d="" fill="#000000" transform="translate(0,0)"/>
<path d="" fill="#000000" transform="translate(0,0)"/>
<path d="" fill="#000000" transform="translate(0,0)"/>
<path d="" fill="#000000" transform="translate(0,0)"/>
<path d="" fill="#000000" transform="translate(0,0)"/>
<path d="" fill="#000000" transform="translate(0,0)"/>
<path d="" fill="#000000" transform="translate(0,0)"/>
<path d="" fill="#000000" transform="translate(0,0)"/>
<path d="" fill="#000000" transform="translate(0,0)"/>
<path d="" fill="#000000" transform="translate(0,0)"/>
<path d="" fill="#000000" transform="translate(0,0)"/>
<path d="" fill="#000000" transform="translate(0,0)"/>
<path d="" fill="#000000" transform="translate(0,0)"/>
<path d="" fill="#000000" transform="translate(0,0)"/>
<path d="" fill="#000000" transform="translate(0,0)"/>
<path d="" fill="#000000" transform="translate(0,0)"/>
<path d="" fill="#000000" transform="translate(0,0)"/>
<path d="" fill="#000000" transform="translate(0,0)"/>
<path d="" fill="#000000" transform="translate(0,0)"/>
<path d="" fill="#000000" transform="translate(0,0)"/>
<path d="" fill="#000000" transform="translate(0,0)"/>
<path d="" fill="#000000" transform="translate(0,0)"/>
<path d="" fill="#000000" transform="translate(0,0)"/>
<path d="" fill="#000000" transform="translate(0,0)"/>
<path d="" fill="#000000" transform="translate(0,0)"/>
<path d="" fill="#000000" transform="translate(0,0)"/>
<path d="" fill="#000000" transform="translate(0,0)"/>
<path d="" fill="#000000" transform="translate(0,0)"/>
<path d="" fill="#000000" transform="translate(0,0)"/>
<path d="" fill="#000000" transform="translate(0,0)"/>
<path d="" fill="#000000" transform="translate(0,0)"/>
<path d="" fill="#000000" transform="translate(0,0)"/>
<path d="" fill="#000000" transform="translate(0,0)"/>
<path d="" fill="#000000" transform="translate(0,0)"/>
<path d="" fill="#000000" transform="translate(0,0)"/>
<path d="" fill="#000000" transform="translate(0,0)"/>
<path d="" fill="#000000" transform="translate(0,0)"/>
<path d="" fill="#000000" transform="translate(0,0)"/>
<path d="" fill="#000000" transform="translate(0,0)"/>
<path d="" fill="#000000" transform="translate(0,0)"/>
<path d="" fill="#000000" transform="translate(0,0)"/>
<path d="" fill="#000000" transform="translate(0,0)"/>
<path d="" fill="#090909" transform="translate(0,0)"/>
<path d="" fill="#000000" transform="translate(0,0)"/>
<path d="" fill="#000000" transform="translate(0,0)"/>
<path d="" fill="#000000" transform="translate(0,0)"/>
<path d="" fill="#000000" transform="translate(0,0)"/>
<path d="" fill="#000000" transform="translate(0,0)"/>
<path d="" fill="#000000" transform="translate(0,0)"/>
<path d="" fill="#000000" transform="translate(0,0)"/>
<path d="" fill="#000000" transform="translate(0,0)"/>
<path d="" fill="#000000" transform="translate(0,0)"/>
<path d="" fill="#000000" transform="translate(0,0)"/>
</svg>
