<?xml version="1.0" encoding="UTF-8"?>
<svg version="1.1" xmlns="http://www.w3.org/2000/svg" width="486" height="110">
<path d="M0 0 C4.95 0 9.9 0 15 0 C16.18312112 7.09872674 17.28209832 13.80649277 17 21 C17.66 21 18.32 21 19 21 C18.97679688 20.07058594 18.95359375 19.14117187 18.9296875 18.18359375 C18.90261719 16.32927734 18.90261719 16.32927734 18.875 14.4375 C18.85179688 13.21933594 18.82859375 12.00117187 18.8046875 10.74609375 C19 7 19 7 21 0 C25.95 0 30.9 0 36 0 C36 14.85 36 29.7 36 45 C33.03 45 30.06 45 27 45 C26.67 39.06 26.34 33.12 26 27 C25.01 32.94 24.02 38.88 23 45 C20.03 45 17.06 45 14 45 C11.73589353 38.74041152 10.93957001 32.5769901 10 26 C9.67 32.27 9.34 38.54 9 45 C6.03 45 3.06 45 0 45 C0 30.15 0 15.3 0 0 Z " fill="#FCFCFC" transform="translate(1,60)"/>
<path d="M0 0 C3.15829702 2.00039312 6.1395396 4.18115244 9.16015625 6.3828125 C11.74961308 8.17592613 11.74961308 8.17592613 14.03125 7.96875 C17.68842456 6.16918792 20.92050979 3.73883456 24.24609375 1.3984375 C27 0 27 0 29.3984375 0 C33.00051999 1.38458426 36.03921968 3.43543058 39.1875 5.625 C39.85313965 6.07866943 40.5187793 6.53233887 41.20458984 6.99975586 C43.14271574 8.32427475 45.07270107 9.65979078 47 11 C47.90621094 11.62777344 48.81242188 12.25554688 49.74609375 12.90234375 C51.31908399 14.00007914 52.88945047 15.10158483 54.45703125 16.20703125 C57.56728449 18.39997478 60.68766567 20.57790191 63.8125 22.75 C64.87082031 23.48734375 65.92914063 24.2246875 67.01953125 24.984375 C68.74814009 26.15339487 70.4958982 27.29671295 72.28662109 28.36816406 C77.25210517 31.35442423 82.07562728 34.56366023 86.9128418 37.75195312 C88.18554012 38.58809679 89.46097022 39.42009628 90.73901367 40.24804688 C92.58916562 41.44722382 94.43006923 42.65950855 96.26953125 43.875 C97.91852417 44.95394531 97.91852417 44.95394531 99.60083008 46.0546875 C100.39255615 46.69664063 101.18428223 47.33859375 102 48 C102 48.99 102 49.98 102 51 C99 52 99 52 96 51 C96 50.34 96 49.68 96 49 C94.92105469 48.61908203 94.92105469 48.61908203 93.8203125 48.23046875 C90.79166339 46.90910522 88.50352528 45.30939458 85.875 43.3125 C82.31378713 40.61182337 78.69155534 38.14339085 74.91015625 35.7578125 C68.69458163 31.83580592 62.62663719 27.71361301 56.5625 23.5625 C53.42312991 21.4171667 50.28274346 19.27349097 47.13720703 17.13720703 C44.99038749 15.67469666 42.85105238 14.20115575 40.71826172 12.71826172 C39.66525879 11.99525879 38.61225586 11.27225586 37.52734375 10.52734375 C36.5849585 9.8737085 35.64257324 9.22007324 34.67163086 8.54663086 C32.00004015 7.00002324 30.05809876 6.29546219 27 6 C24.71305098 6.86035274 24.71305098 6.86035274 22.6875 8.3125 C21.99011719 8.76238281 21.29273437 9.21226563 20.57421875 9.67578125 C20.05472656 10.11277344 19.53523438 10.54976562 19 11 C19 11.66 19 12.32 19 13 C20.70908199 14.38804602 20.70908199 14.38804602 22.953125 15.7578125 C23.79399658 16.29688232 24.63486816 16.83595215 25.5012207 17.39135742 C26.40831787 17.96345947 27.31541504 18.53556152 28.25 19.125 C30.10318054 20.31070424 31.95604665 21.49690007 33.80859375 22.68359375 C34.70819824 23.25706543 35.60780273 23.83053711 36.53466797 24.42138672 C39.48427764 26.31009499 42.40258972 28.23822035 45.3125 30.1875 C46.22128906 30.7959375 47.13007813 31.404375 48.06640625 32.03125 C49.03449219 32.6809375 50.00257813 33.330625 51 34 C53.58207105 35.73105915 56.16579976 37.45962158 58.75 39.1875 C59.3879248 39.61579102 60.02584961 40.04408203 60.68310547 40.48535156 C64.04951768 42.73666723 67.44461702 44.88504487 70.9375 46.9375 C71.948125 47.618125 72.95875 48.29875 74 49 C74 49.99 74 50.98 74 52 C69.08056238 51.63104218 66.03848334 49.99720764 62.03515625 47.34375 C59.10579345 45.40958339 56.05869261 43.7205146 53 42 C53 41.34 53 40.68 53 40 C52.319375 39.773125 51.63875 39.54625 50.9375 39.3125 C47.89096348 37.95128155 45.49646192 36.31219659 42.84375 34.31640625 C40.94066841 32.92073393 40.94066841 32.92073393 38.578125 31.546875 C36.04652901 30.02791741 33.65580999 28.397512 31.25 26.6875 C23.13176311 20.95157761 23.13176311 20.95157761 14.7265625 15.65234375 C11.14041333 13.4790757 7.66932328 11.1481537 4.1875 8.8125 C3.49462891 8.34908203 2.80175781 7.88566406 2.08789062 7.40820312 C0.39122125 6.27318982 -1.30448707 5.13674011 -3 4 C-11.97918712 9.64905886 -20.84419883 15.46744224 -29.70343018 21.30203247 C-32.22363283 22.96128922 -34.74527745 24.61833754 -37.26708984 26.27514648 C-44.76774475 31.20704147 -52.258015 36.15090133 -59.68359375 41.1953125 C-60.80118358 41.95191105 -61.91877778 42.70850314 -63.03637695 43.46508789 C-65.04430499 44.82862514 -67.04706796 46.19981055 -69.04370117 47.57983398 C-69.91873291 48.17352783 -70.79376465 48.76722168 -71.6953125 49.37890625 C-72.43797363 49.8901001 -73.18063477 50.40129395 -73.94580078 50.92797852 C-76 52 -76 52 -80 52 C-79.63327431 49.40151644 -79.29225771 48.25889515 -77.29760742 46.49194336 C-76.57420166 46.02925049 -75.8507959 45.56655762 -75.10546875 45.08984375 C-74.31462891 44.57486328 -73.52378906 44.05988281 -72.70898438 43.52929688 C-71.87689453 43.00400391 -71.04480469 42.47871094 -70.1875 41.9375 C-68.5554564 40.88494085 -66.92392861 39.83158139 -65.29296875 38.77734375 C-64.5661792 38.31577881 -63.83938965 37.85421387 -63.09057617 37.37866211 C-60.95061196 36.00735869 -60.95061196 36.00735869 -58.85668945 34.32641602 C-57 33 -57 33 -55 33 C-55.00785522 31.9627478 -55.00785522 31.9627478 -55.01586914 30.90454102 C-55.036575 27.79053648 -55.04963963 24.67654639 -55.0625 21.5625 C-55.07087891 20.47388672 -55.07925781 19.38527344 -55.08789062 18.26367188 C-55.09272461 16.71196289 -55.09272461 16.71196289 -55.09765625 15.12890625 C-55.10551147 13.69140015 -55.10551147 13.69140015 -55.11352539 12.22485352 C-55 10 -55 10 -54 9 C-51.13732433 8.92674832 -48.299281 8.90761795 -45.4375 8.9375 C-44.63119141 8.94201172 -43.82488281 8.94652344 -42.99414062 8.95117188 C-40.99606244 8.96299482 -38.99802217 8.98093086 -37 9 C-36.505 13.95 -36.505 13.95 -36 19 C-35.505 18.505 -35.505 18.505 -35 18 C-33.31890484 17.03997309 -31.63725228 16.08090274 -29.95214844 15.12792969 C-26.94608087 13.39105723 -24.03776984 11.51283819 -21.125 9.625 C-20.51857666 9.23650879 -19.91215332 8.84801758 -19.28735352 8.44775391 C-15.07421782 5.73823033 -10.9762777 2.90105539 -6.96484375 -0.1015625 C-4.17956839 -1.37514766 -2.88302323 -0.99237595 0 0 Z M-51 13 C-51 18.28 -51 23.56 -51 29 C-49.35 28.34 -47.7 27.68 -46 27 C-45.071875 26.690625 -44.14375 26.38125 -43.1875 26.0625 C-40.73643927 24.1935875 -40.73643927 24.1935875 -40.6875 21.359375 C-40.6875 18.55625031 -40.78650085 15.79446663 -41 13 C-44.3 13 -47.6 13 -51 13 Z " fill="#FCFCFC" transform="translate(81,3)"/>
<path d="M0 0 C3.3 0 6.6 0 10 0 C10.66 2.64 11.32 5.28 12 8 C12.33 5.36 12.66 2.72 13 0 C16.3 0 19.6 0 23 0 C23 14.85 23 29.7 23 45 C19.7 45 16.4 45 13 45 C12.34 42.36 11.68 39.72 11 37 C10.87625 38.299375 10.7525 39.59875 10.625 40.9375 C10.4140625 43.15234375 10.4140625 43.15234375 10 45 C8 46 8 46 0 45 C0 30.15 0 15.3 0 0 Z " fill="#FDFDFD" transform="translate(460,60)"/>
<path d="M0 0 C3.3 0 6.6 0 10 0 C10.66 2.64 11.32 5.28 12 8 C12.33 5.36 12.66 2.72 13 0 C16.3 0 19.6 0 23 0 C23.16819852 5.44413988 23.32869423 10.88843317 23.48217773 16.33300781 C23.53541864 18.18365529 23.59073291 20.03424436 23.64819336 21.88476562 C23.73060655 24.55065319 23.80546525 27.21666449 23.87890625 29.8828125 C23.90594131 30.70492218 23.93297638 31.52703186 23.96083069 32.37405396 C24.07287432 36.7248056 23.89568498 40.71156887 23 45 C19.7 45 16.4 45 13 45 C12.34 42.36 11.68 39.72 11 37 C10.67 39.64 10.34 42.28 10 45 C6.7 45 3.4 45 0 45 C0 30.15 0 15.3 0 0 Z " fill="#FDFDFD" transform="translate(259,60)"/>
<path d="M0 0 C16 0 16 0 21 3 C23.34704735 8.33419852 23.34491958 13.40339918 22 19 C21.34 19.99 20.68 20.98 20 22 C20.66 22.99 21.32 23.98 22 25 C22.22705078 27.17651367 22.22705078 27.17651367 22.1953125 29.66796875 C22.18886719 30.56064453 22.18242187 31.45332031 22.17578125 32.37304688 C22.15064453 33.76620117 22.15064453 33.76620117 22.125 35.1875 C22.11597656 36.12787109 22.10695313 37.06824219 22.09765625 38.03710938 C22.07409207 40.35818157 22.03822121 42.67912289 22 45 C18.7 45 15.4 45 12 45 C11.67 38.73 11.34 32.46 11 26 C10.67 32.27 10.34 38.54 10 45 C6.7 45 3.4 45 0 45 C0 30.15 0 15.3 0 0 Z M10 9 C10 11.64 10 14.28 10 17 C10.66 17 11.32 17 12 17 C12.33 14.69 12.66 12.38 13 10 C12.01 9.67 11.02 9.34 10 9 Z " fill="#FCFCFC" transform="translate(329,60)"/>
<path d="M0 0 C3.3 0 6.6 0 10 0 C10.33 11.88 10.66 23.76 11 36 C11.33 36 11.66 36 12 36 C12.33 24.12 12.66 12.24 13 0 C16.3 0 19.6 0 23 0 C23.9887778 3.9551112 24.08825315 7.37645379 23.984375 11.3984375 C23.96787903 12.11101715 23.95138306 12.8235968 23.93438721 13.55776978 C23.89697578 15.06235527 23.85644081 16.56686592 23.81298828 18.07128906 C23.75041175 20.35994062 23.70884604 22.64837173 23.66796875 24.9375 C23.62890051 26.40368095 23.58857665 27.86982909 23.546875 29.3359375 C23.53734802 30.01425629 23.52782104 30.69257507 23.51800537 31.39144897 C23.35617124 35.94184824 22.36386783 39.11793985 20 43 C17.13665595 45.38612004 15.32998086 45.9572247 11.625 46.4375 C6.96602748 45.87521021 4.77498119 44.79348608 1 42 C-0.43293142 37.61694551 -0.12773267 32.98380357 -0.09765625 28.41796875 C-0.09553383 27.19670036 -0.09553383 27.19670036 -0.09336853 25.95075989 C-0.08779317 23.36296844 -0.07524524 20.77526508 -0.0625 18.1875 C-0.05748181 16.42773563 -0.05291946 14.66796989 -0.04882812 12.90820312 C-0.03783181 8.60543506 -0.02058421 4.30273244 0 0 Z " fill="#FCFCFC" transform="translate(353,60)"/>
<path d="M0 0 C5.61 0 11.22 0 17 0 C21.68659624 4.68659624 22.14915549 5.60183813 22.1875 11.875 C22.20167969 12.92429687 22.21585938 13.97359375 22.23046875 15.0546875 C22 18 22 18 20.86328125 20.0703125 C19.70756943 22.05381363 19.70756943 22.05381363 20.86328125 24.37890625 C21.23839844 25.24386719 21.61351562 26.10882813 22 27 C22.47647549 33.00036083 22.30841588 39.11212853 21 45 C18.03 45 15.06 45 12 45 C11.67 38.73 11.34 32.46 11 26 C10.34 25.67 9.68 25.34 9 25 C9.33 25.99 9.66 26.98 10 28 C10.02172852 29.90112305 10.02172852 29.90112305 9.87890625 32.01171875 C9.83056641 32.76904297 9.78222656 33.52636719 9.73242188 34.30664062 C9.67634766 35.09232422 9.62027344 35.87800781 9.5625 36.6875 C9.51029297 37.48478516 9.45808594 38.28207031 9.40429688 39.10351562 C9.27480978 41.06936522 9.13809959 43.03473665 9 45 C5.7 45 2.4 45 -1 45 C-0.67 30.15 -0.34 15.3 0 0 Z M10 9 C8.58422523 10.18424326 8.58422523 10.18424326 8.9375 13.5625 C8.958125 14.696875 8.97875 15.83125 9 17 C9.99 16.67 10.98 16.34 12 16 C13.17755913 13.05610218 13.03348696 12.10046087 12 9 C11.34 9 10.68 9 10 9 Z " fill="#FCFCFC" transform="translate(148,60)"/>
<path d="M0 0 C0.70253906 0.00386719 1.40507812 0.00773437 2.12890625 0.01171875 C2.83144531 0.00785156 3.53398437 0.00398438 4.2578125 0 C9.50229247 0.01010497 9.50229247 0.01010497 10.62890625 1.13671875 C11.0039342 4.04037595 11.32175636 6.93047027 11.6015625 9.84375 C11.68893173 10.72069016 11.77630096 11.59763031 11.86631775 12.50114441 C12.05075278 14.36131462 12.23302625 16.2217002 12.41333008 18.08227539 C12.6892611 20.9271024 12.97197303 23.77119137 13.25585938 26.61523438 C13.43399614 28.42053326 13.6117432 30.22587064 13.7890625 32.03125 C13.91559959 33.30800346 13.91559959 33.30800346 14.04469299 34.61054993 C14.12154831 35.40785019 14.19840363 36.20515045 14.27758789 37.02661133 C14.34563126 37.72530838 14.41367462 38.42400543 14.48377991 39.14387512 C14.62891201 41.13679778 14.62890625 43.13851855 14.62890625 45.13671875 C11.32890625 45.13671875 8.02890625 45.13671875 4.62890625 45.13671875 C3.50390625 40.38671875 3.50390625 40.38671875 4.62890625 38.13671875 C2.97890625 38.13671875 1.32890625 38.13671875 -0.37109375 38.13671875 C-0.37109375 40.44671875 -0.37109375 42.75671875 -0.37109375 45.13671875 C-4.82609375 45.63171875 -4.82609375 45.63171875 -9.37109375 46.13671875 C-10.21242783 42.77138242 -10.45384919 41.20335616 -10.13330078 37.93481445 C-10.05636993 37.11749344 -9.97943909 36.30017242 -9.900177 35.45808411 C-9.81065765 34.58504135 -9.72113831 33.7119986 -9.62890625 32.8125 C-9.5410788 31.91049362 -9.45325134 31.00848724 -9.36276245 30.07914734 C-9.17596853 28.17670556 -8.98579563 26.27459293 -8.79248047 24.37280273 C-8.49622309 21.45049456 -8.21215581 18.52718545 -7.9296875 15.60351562 C-7.74681417 13.75643895 -7.56324458 11.90943105 -7.37890625 10.0625 C-7.25069992 8.74382683 -7.25069992 8.74382683 -7.11990356 7.39851379 C-6.35888893 0.01225219 -6.35888893 0.01225219 0 0 Z M1.62890625 12.13671875 C1.29890625 18.07671875 0.96890625 24.01671875 0.62890625 30.13671875 C1.61890625 30.13671875 2.60890625 30.13671875 3.62890625 30.13671875 C3.29890625 24.19671875 2.96890625 18.25671875 2.62890625 12.13671875 C2.29890625 12.13671875 1.96890625 12.13671875 1.62890625 12.13671875 Z " fill="#FDFDFD" transform="translate(131.37109375,59.86328125)"/>
<path d="M0 0 C5.28 0 10.56 0 16 0 C16.57437687 4.96169304 17.14557126 9.92355242 17.70898438 14.88647461 C17.90118035 16.5712529 18.09515641 18.25582919 18.29101562 19.94018555 C18.57381081 22.37496555 18.84998715 24.81042388 19.125 27.24609375 C19.21249512 27.98709824 19.29999023 28.72810272 19.39013672 29.49156189 C19.96814544 34.68873404 20.07234942 39.7704933 20 45 C17.03 45 14.06 45 11 45 C10.5978125 43.5459375 10.5978125 43.5459375 10.1875 42.0625 C9.795625 41.051875 9.40375 40.04125 9 39 C8.01 38.67 7.02 38.34 6 38 C5.67 40.31 5.34 42.62 5 45 C2.03 45 -0.94 45 -4 45 C-4.20053996 37.23125629 -3.52105202 29.59095166 -2.77319336 21.86889648 C-2.56133668 19.67545563 -2.35737492 17.48137862 -2.15429688 15.28710938 C-1.13738521 4.54954083 -1.13738521 4.54954083 0 0 Z M7 14 C6.67 19.28 6.34 24.56 6 30 C6.99 30 7.98 30 9 30 C9.09688221 24.55306686 9.12862175 19.36095333 8 14 C7.67 14 7.34 14 7 14 Z " fill="#FCFCFC" transform="translate(43,60)"/>
<path d="M0 0 C5.28 0 10.56 0 16 0 C18.50101919 14.82747093 20.44951812 29.94114302 20 45 C17.03 45 14.06 45 11 45 C11 42.69 11 40.38 11 38 C9.02 38.495 9.02 38.495 7 39 C6.67 40.98 6.34 42.96 6 45 C2.7 45 -0.6 45 -4 45 C-3.93941406 44.28457031 -3.87882813 43.56914063 -3.81640625 42.83203125 C-3.54084443 39.55496532 -3.27038437 36.27749701 -3 33 C-2.90460938 31.87464844 -2.80921875 30.74929687 -2.7109375 29.58984375 C-2.32051076 24.82106006 -1.93940486 20.09951575 -2 15.3125 C-2 12 -2 12 -1 10 C-0.77377919 8.29636178 -0.59111527 6.58671299 -0.4375 4.875 C-0.293125 3.26625 -0.14875 1.6575 0 0 Z M8 14 C7.67 19.28 7.34 24.56 7 30 C7.99 30 8.98 30 10 30 C9.67 24.72 9.34 19.44 9 14 C8.67 14 8.34 14 8 14 Z " fill="#FCFCFC" transform="translate(175,60)"/>
<path d="M0 0 C5.28 0 10.56 0 16 0 C16.57360731 5.44392998 17.14314681 10.88826475 17.70898438 16.33300781 C17.90188718 18.18370953 18.09588487 20.03429748 18.29101562 21.88476562 C18.57191955 24.55048659 18.84883355 27.21659708 19.125 29.8828125 C19.21249512 30.70492218 19.29999023 31.52703186 19.39013672 32.37405396 C19.82431826 36.60486699 20.09587683 40.73947318 20 45 C17.03 45 14.06 45 11 45 C9.9375 42.625 9.9375 42.625 9 40 C9.33 39.34 9.66 38.68 10 38 C8.02 38.495 8.02 38.495 6 39 C5.67 40.98 5.34 42.96 5 45 C2.03 45 -0.94 45 -4 45 C-4.20053996 37.23125629 -3.52105202 29.59095166 -2.77319336 21.86889648 C-2.56133668 19.67545563 -2.35737492 17.48137862 -2.15429688 15.28710938 C-1.13738521 4.54954083 -1.13738521 4.54954083 0 0 Z M7 14 C6.67 19.28 6.34 24.56 6 30 C6.99 30 7.98 30 9 30 C9.09688221 24.55306686 9.12862175 19.36095333 8 14 C7.67 14 7.34 14 7 14 Z " fill="#FCFCFC" transform="translate(68,60)"/>
<path d="M0 0 C2.93423195 1.79646854 4.47205355 2.9441071 6 6 C6.11074254 8.43410239 6.16409243 10.83872076 6.16796875 13.2734375 C6.17129715 13.99359039 6.17462555 14.71374329 6.17805481 15.45571899 C6.1831205 16.98056397 6.18546325 18.50542005 6.18530273 20.03027344 C6.18748492 22.35891101 6.20563196 24.68707155 6.22460938 27.015625 C6.22754427 28.49739421 6.22952842 29.97916568 6.23046875 31.4609375 C6.23765427 32.15585297 6.24483978 32.85076843 6.25224304 33.56674194 C6.2351729 37.19494362 6.12320249 39.98482778 4 43 C-0.39444602 45.86149973 -3.79824752 46.56746391 -9 46 C-11.74619458 44.77946907 -13.42383277 43.84937388 -15.11572266 41.35522461 C-16.33395029 38.11054156 -16.32483235 34.9868175 -16.3359375 31.56640625 C-16.3425943 30.85145493 -16.3492511 30.1365036 -16.35610962 29.39988708 C-16.3662117 27.89121057 -16.3709274 26.3824896 -16.37060547 24.8737793 C-16.37497946 22.5733033 -16.41132198 20.2747463 -16.44921875 17.97460938 C-16.45508747 16.50521486 -16.4590565 15.03581128 -16.4609375 13.56640625 C-16.47530853 12.88292618 -16.48967957 12.19944611 -16.50448608 11.49525452 C-16.45921438 6.73213089 -15.35731161 4.34675402 -12 1 C-8.30274625 -0.84862688 -4.03538558 -0.47587094 0 0 Z M-6 9 C-7.74073204 10.74073204 -7.13022093 13.13091635 -7.1328125 15.49609375 C-7.13410156 16.61177734 -7.13539063 17.72746094 -7.13671875 18.87695312 C-7.13285156 20.05193359 -7.12898437 21.22691406 -7.125 22.4375 C-7.12886719 23.60861328 -7.13273438 24.77972656 -7.13671875 25.98632812 C-7.13542969 27.10330078 -7.13414062 28.22027344 -7.1328125 29.37109375 C-7.13168457 30.40161865 -7.13055664 31.43214355 -7.12939453 32.49389648 C-7.16782632 34.99809675 -7.16782632 34.99809675 -6 37 C-5.34 37 -4.68 37 -4 37 C-2.98105924 31.15111957 -2.88201547 25.49080831 -2.9375 19.5625 C-2.94201172 18.64017578 -2.94652344 17.71785156 -2.95117188 16.76757812 C-2.96286062 14.51164952 -2.97924545 12.25586033 -3 10 C-3.99 9.67 -4.98 9.34 -6 9 Z " fill="#FCFCFC" transform="translate(250,60)"/>
<path d="M0 0 C2.93423195 1.79646854 4.47205355 2.9441071 6 6 C6.2829355 10.63727707 6.31372338 15.27531639 6.35009766 19.92041016 C6.36662431 21.46646207 6.39387144 23.01243861 6.43212891 24.55810547 C6.48716157 26.79434583 6.50881095 29.02879685 6.5234375 31.265625 C6.54610687 31.9502179 6.56877625 32.63481079 6.59213257 33.34014893 C6.57550611 37.15413026 5.95797912 39.50551938 3.60986328 42.42651367 C0.29869916 45.69152592 -1.39536723 45.9646101 -5.8515625 46.171875 C-9.80599086 45.85552073 -11.92462401 44.10415297 -14.60571289 41.35131836 C-16.50973786 38.14038078 -16.44913529 35.19552824 -16.43359375 31.56640625 C-16.4388356 30.85145493 -16.44407745 30.1365036 -16.44947815 29.39988708 C-16.45588716 27.89119767 -16.45457581 26.38245821 -16.44604492 24.8737793 C-16.43753935 22.57314462 -16.4662987 20.27499861 -16.49804688 17.97460938 C-16.49965928 16.50520907 -16.4990806 15.0358044 -16.49609375 13.56640625 C-16.50732773 12.88292618 -16.51856171 12.19944611 -16.53013611 11.49525452 C-16.46122211 6.73937453 -15.35084685 4.34381464 -12 1 C-8.30274625 -0.84862688 -4.03538558 -0.47587094 0 0 Z M-6 9 C-7.7059965 10.7059965 -7.13013541 12.91350164 -7.1328125 15.2421875 C-7.13410156 16.30824219 -7.13539063 17.37429687 -7.13671875 18.47265625 C-7.13285156 19.59542969 -7.12898438 20.71820313 -7.125 21.875 C-7.12886719 22.99003906 -7.13273437 24.10507813 -7.13671875 25.25390625 C-7.13542969 26.32253906 -7.13414062 27.39117187 -7.1328125 28.4921875 C-7.13168457 29.47558105 -7.13055664 30.45897461 -7.12939453 31.47216797 C-7.10645973 34.12614852 -7.10645973 34.12614852 -6 37 C-5.34 37 -4.68 37 -4 37 C-2.6691089 34.33821779 -2.88731007 32.31260604 -2.90234375 29.3359375 C-2.90556641 28.21445313 -2.90878906 27.09296875 -2.91210938 25.9375 C-2.92048828 24.761875 -2.92886719 23.58625 -2.9375 22.375 C-2.94201172 21.19164062 -2.94652344 20.00828125 -2.95117188 18.7890625 C-2.96298533 15.85932493 -2.97945742 12.92968728 -3 10 C-3.99 9.67 -4.98 9.34 -6 9 Z " fill="#FCFCFC" transform="translate(451,60)"/>
<path d="M0 0 C4.16614582 0.69220125 5.75974344 2.23810541 8.515625 5.41796875 C10.19488332 9.73606157 9.58397329 14.83863363 9.515625 19.41796875 C6.215625 19.41796875 2.915625 19.41796875 -0.484375 19.41796875 C-0.6796875 17.10677083 -0.875 14.79557292 -1.0703125 12.484375 C-1.27527344 11.46150391 -1.27527344 11.46150391 -1.484375 10.41796875 C-2.144375 10.08796875 -2.804375 9.75796875 -3.484375 9.41796875 C-3.154375 18.32796875 -2.824375 27.23796875 -2.484375 36.41796875 C-2.154375 36.41796875 -1.824375 36.41796875 -1.484375 36.41796875 C-1.154375 32.78796875 -0.824375 29.15796875 -0.484375 25.41796875 C2.815625 25.41796875 6.115625 25.41796875 9.515625 25.41796875 C10.07476856 38.21614355 10.07476856 38.21614355 6.515625 43.41796875 C3.64260071 46.29099304 1.01097068 46.1903897 -2.9375 46.515625 C-6.75201277 46.36936301 -8.7279617 44.96765105 -11.484375 42.41796875 C-14.77030859 37.44639848 -13.81826236 31.30130483 -13.80004883 25.57348633 C-13.79689023 23.49051512 -13.82036019 21.40896755 -13.84570312 19.32617188 C-13.84634766 18.00681641 -13.84699219 16.68746094 -13.84765625 15.328125 C-13.85063721 14.12293213 -13.85361816 12.91773926 -13.85668945 11.67602539 C-13.3690584 7.40885398 -11.68151028 4.95569745 -9.09765625 1.63671875 C-6.27331791 -0.49692184 -3.41641211 -0.10488985 0 0 Z " fill="#FCFCFC" transform="translate(391.484375,59.58203125)"/>
<path d="M0 0 C3.57052209 1.93341549 5.69451966 4.08355899 7 8 C7.0685495 9.89470816 7.08480372 11.7916834 7.0625 13.6875 C7.05347656 14.68136719 7.04445312 15.67523438 7.03515625 16.69921875 C7.02355469 17.45847656 7.01195312 18.21773437 7 19 C3.7 19 0.4 19 -3 19 C-3 15.7 -3 12.4 -3 9 C-3.99 9 -4.98 9 -6 9 C-5.67 17.91 -5.34 26.82 -5 36 C-4.67 36 -4.34 36 -4 36 C-4 32.7 -4 29.4 -4 26 C-0.74696956 24.37348478 2.39225602 24.88546844 6 25 C7.78569161 26.78569161 7.21468103 29.33653738 7.25 31.75 C7.27578125 32.79671875 7.3015625 33.8434375 7.328125 34.921875 C6.95780518 38.39582755 6.04697853 40.20016639 4 43 C1.09799637 45.33772514 -0.72300894 45.96474659 -4.4375 46.4375 C-8.70968693 45.91284546 -10.75031771 44.79623825 -14 42 C-17.05210246 36.03909541 -16.32912589 29.59647524 -16.3125 23.0625 C-16.32861328 21.79986328 -16.34472656 20.53722656 -16.36132812 19.23632812 C-16.36197266 18.01494141 -16.36261719 16.79355469 -16.36328125 15.53515625 C-16.36626221 14.425354 -16.36924316 13.31555176 -16.37231445 12.17211914 C-15.85659771 7.77821252 -14.2667441 4.4616278 -11.375 1.125 C-7.60823446 -0.65925736 -4.07801406 -0.76903725 0 0 Z " fill="#FBFBFB" transform="translate(225,60)"/>
<path d="M0 0 C2.93038162 1.2469709 4.41759241 2.22345655 6.3125 4.75 C7.26539512 7.86856585 7.12452507 10.76234825 7 14 C3.7 14 0.4 14 -3 14 C-3 12.35 -3 10.7 -3 9 C-3.99 9.495 -3.99 9.495 -5 10 C-4.44113306 13.47242658 -3.46501615 14.7695595 -0.6875 16.875 C3.90672382 20.64848979 6.53871424 23.95716307 7.875 29.875 C8.27628296 34.85281953 7.60264279 39.83991624 4.5625 43.9375 C0.88484482 46.43830553 -2.70757459 46.222022 -7 46 C-10.59435884 45.18310026 -11.65714086 44.50204374 -13.75 41.4375 C-15.24283714 37.33219787 -15.96316519 33.37413336 -16 29 C-15 28 -15 28 -12.93359375 27.90234375 C-11.69802734 27.91974609 -11.69802734 27.91974609 -10.4375 27.9375 C-9.61121094 27.94652344 -8.78492188 27.95554687 -7.93359375 27.96484375 C-6.97646484 27.98224609 -6.97646484 27.98224609 -6 28 C-5.87625 28.763125 -5.7525 29.52625 -5.625 30.3125 C-5.11897208 33.20267136 -5.11897208 33.20267136 -3 36 C-3 32.09071097 -3.18109548 29.97313766 -5.7421875 26.9296875 C-7.1702485 25.55393643 -8.60789763 24.18807265 -10.0546875 22.83203125 C-13.81601686 19.28973513 -15.15631008 16.6055685 -15.375 11.5 C-15.23819411 7.58474573 -14.53538566 5.09880469 -12 2 C-7.95514343 -0.69657104 -4.74692804 -0.5422677 0 0 Z " fill="#FAFAFA" transform="translate(299,60)"/>
<path d="M0 0 C0.19406478 1.64507218 0.38007935 3.29109594 0.5625 4.9375 C0.66691406 5.85402344 0.77132813 6.77054687 0.87890625 7.71484375 C0.91886719 8.46894531 0.95882813 9.22304687 1 10 C0.67 10.33 0.34 10.66 0 11 C-1.65 11 -3.3 11 -5 11 C-5 22.55 -5 34.1 -5 46 C-8.3 46 -11.6 46 -15 46 C-15 34.45 -15 22.9 -15 11 C-16.65 10.67 -18.3 10.34 -20 10 C-20 7.03 -20 4.06 -20 1 C-16.8541831 0.83301825 -13.70834772 0.66639938 -10.5625 0.5 C-9.66466797 0.45230469 -8.76683594 0.40460937 -7.84179688 0.35546875 C-6.98779297 0.31035156 -6.13378906 0.26523437 -5.25390625 0.21875 C-4.46314697 0.17685547 -3.6723877 0.13496094 -2.85766602 0.09179688 C-1.90578081 0.04475931 -0.95304668 0 0 0 Z " fill="#FDFDFD" transform="translate(327,59)"/>
<path d="M0 0 C6.6 0 13.2 0 20 0 C20 3.3 20 6.6 20 10 C18.35 10 16.7 10 15 10 C15 21.55 15 33.1 15 45 C11.7 45 8.4 45 5 45 C5 33.45 5 21.9 5 10 C3.35 10 1.7 10 0 10 C0 6.7 0 3.4 0 0 Z " fill="#FDFDFD" transform="translate(101,60)"/>
<path d="M0 0 C6.93 0 13.86 0 21 0 C21 2.97 21 5.94 21 9 C20.67 9.33 20.34 9.66 20 10 C18.35 10 16.7 10 15 10 C15 21.55 15 33.1 15 45 C12.03 45 9.06 45 6 45 C6 33.45 6 21.9 6 10 C4.35 10 2.7 10 1 10 C0.67 9.67 0.34 9.34 0 9 C0 6.03 0 3.06 0 0 Z " fill="#FDFDFD" transform="translate(401,60)"/>
<path d="M0 0 C2.97 0 5.94 0 9 0 C9 14.85 9 29.7 9 45 C6.03 45 3.06 45 0 45 C0 30.15 0 15.3 0 0 Z " fill="#FDFDFD" transform="translate(423,60)"/>
<path d="" fill="#FFFFFF" transform="translate(0,0)"/>
<path d="M0 0 C0.99 0.495 0.99 0.495 2 1 C1.01 1.495 1.01 1.495 0 2 C0 1.34 0 0.68 0 0 Z " fill="#FFFFFF" transform="translate(133,99)"/>
<path d="M0 0 C2 1 2 1 2 1 Z " fill="#FFFFFF" transform="translate(244,94)"/>
<path d="" fill="#FFFFFF" transform="translate(0,0)"/>
<path d="" fill="#FFFFFF" transform="translate(0,0)"/>
<path d="" fill="#FFFFFF" transform="translate(0,0)"/>
<path d="" fill="#FFFFFF" transform="translate(0,0)"/>
<path d="" fill="#FFFFFF" transform="translate(0,0)"/>
<path d="" fill="#FFFFFF" transform="translate(0,0)"/>
<path d="" fill="#FFFFFF" transform="translate(0,0)"/>
<path d="" fill="#FFFFFF" transform="translate(0,0)"/>
<path d="" fill="#FFFFFF" transform="translate(0,0)"/>
<path d="" fill="#FFFFFF" transform="translate(0,0)"/>
<path d="" fill="#FFFFFF" transform="translate(0,0)"/>
<path d="" fill="#FFFFFF" transform="translate(0,0)"/>
<path d="" fill="#FFFFFF" transform="translate(0,0)"/>
<path d="" fill="#FFFFFF" transform="translate(0,0)"/>
<path d="" fill="#FFFFFF" transform="translate(0,0)"/>
<path d="" fill="#FFFFFF" transform="translate(0,0)"/>
<path d="" fill="#FFFFFF" transform="translate(0,0)"/>
<path d="" fill="#FFFFFF" transform="translate(0,0)"/>
<path d="" fill="#FFFFFF" transform="translate(0,0)"/>
<path d="" fill="#FFFFFF" transform="translate(0,0)"/>
<path d="" fill="#FFFFFF" transform="translate(0,0)"/>
<path d="" fill="#FFFFFF" transform="translate(0,0)"/>
<path d="" fill="#FFFFFF" transform="translate(0,0)"/>
</svg>
