<?xml version="1.0" encoding="UTF-8"?>
<svg version="1.1" xmlns="http://www.w3.org/2000/svg" width="478" height="113">
<path d="M0 0 C2.16932124 0.0641466 4.33671723 0.20099682 6.5 0.375 C7.6859375 0.46523438 8.871875 0.55546875 10.09375 0.6484375 C13 1 13 1 14 2 C14.29430772 3.33630117 14.53661833 4.68419222 14.75390625 6.03515625 C14.8732251 6.76355713 14.99254395 7.49195801 15.11547852 8.24243164 C15.26299561 9.1730542 15.4105127 10.10367676 15.5625 11.0625 C16.036875 14.011875 16.51125 16.96125 17 20 C17.99 13.73 18.98 7.46 20 1 C30.83984375 0.90234375 30.83984375 0.90234375 34 1 C35 2 35 2 35.11352539 5.96899414 C35.1133662 7.74105607 35.10766785 9.5131226 35.09765625 11.28515625 C35.0962413 12.21597519 35.09482635 13.14679413 35.09336853 14.1058197 C35.08775172 17.09141191 35.0751964 20.07693029 35.0625 23.0625 C35.05748716 25.08137913 35.05292388 27.10025943 35.04882812 29.11914062 C35.03777683 34.07945572 35.02050095 39.03971532 35 44 C35.66 44 36.32 44 37 44 C36.97498413 43.07973022 36.97498413 43.07973022 36.94946289 42.14086914 C36.83715299 34.51704972 37.43554242 27.04197902 38.22680664 19.46264648 C38.44035996 17.41001057 38.6435596 15.35652227 38.84570312 13.30273438 C39.86803552 3.26392896 39.86803552 3.26392896 41 1 C43.47923801 0.97314905 45.9581884 0.95323453 48.4375 0.9375 C49.14455078 0.92912109 49.85160156 0.92074219 50.58007812 0.91210938 C52.38693559 0.90346412 54.19387603 0.94779989 56 1 C57.5250837 2.5250837 57.29294061 4.02652115 57.48071289 6.15258789 C57.56072037 7.03342545 57.64072784 7.914263 57.72315979 8.8217926 C57.80549362 9.77907761 57.88782745 10.73636261 57.97265625 11.72265625 C58.1037101 13.18547279 58.1037101 13.18547279 58.2374115 14.67784119 C58.51665663 17.80570268 58.78964026 20.93407562 59.0625 24.0625 C59.2502402 26.17777088 59.43838585 28.29300582 59.62695312 30.40820312 C60.08934863 35.60506268 60.5461277 40.80238941 61 46 C57.7 46 54.4 46 51 46 C49.875 41.25 49.875 41.25 51 39 C49.35 39 47.7 39 46 39 C46 41.31 46 43.62 46 46 C38.74 46 31.48 46 24 46 C24 44.35 24 42.7 24 41 C24.33 41 24.66 41 25 41 C25 36.05 25 31.1 25 26 C24.80664062 27.43214844 24.61328125 28.86429688 24.4140625 30.33984375 C24.15151645 32.20579603 23.88846978 34.07167792 23.625 35.9375 C23.43550781 37.35579102 23.43550781 37.35579102 23.2421875 38.80273438 C23.11328125 39.70185547 22.984375 40.60097656 22.8515625 41.52734375 C22.73635254 42.35999756 22.62114258 43.19265137 22.50244141 44.05053711 C22.33663574 44.69385986 22.17083008 45.33718262 22 46 C19.51599398 47.24200301 18.17792364 46.98221651 15.4375 46.6875 C14.63183594 46.60886719 13.82617188 46.53023437 12.99609375 46.44921875 C12.33738281 46.30097656 11.67867187 46.15273437 11 46 C10.67 45.34 10.34 44.68 10 44 C10.66 44 11.32 44 12 44 C10.515 36.575 10.515 36.575 9 29 C8.67 34.61 8.34 40.22 8 46 C3.545 46.495 3.545 46.495 -1 47 C-2.17330037 44.65339926 -2.09480067 43.35955447 -2.03759766 40.74975586 C-2.02072906 39.87222153 -2.00386047 38.99468719 -1.98648071 38.09056091 C-1.9625827 37.14157425 -1.93868469 36.19258759 -1.9140625 35.21484375 C-1.89282318 34.24341934 -1.87158386 33.27199493 -1.84970093 32.27113342 C-1.80340122 30.21577125 -1.75446996 28.16046694 -1.703125 26.10522461 C-1.62523988 22.94722637 -1.55813341 19.78912696 -1.4921875 16.63085938 C-1.44595963 14.63800572 -1.39910594 12.64516646 -1.3515625 10.65234375 C-1.33171295 9.70133286 -1.3118634 8.75032196 -1.29141235 7.77049255 C-1.26823944 6.89611038 -1.24506653 6.02172821 -1.22119141 5.12084961 C-1.20263092 4.34744736 -1.18407043 3.5740451 -1.16494751 2.77720642 C-1 1 -1 1 0 0 Z M48 12 C47.67 18.27 47.34 24.54 47 31 C47.99 31 48.98 31 50 31 C49.67 24.73 49.34 18.46 49 12 C48.67 12 48.34 12 48 12 Z " fill="#FDFDFD" transform="translate(6,61)"/>
<path d="M0 0 C2.97 0 5.94 0 9 0 C9.33 3.3 9.66 6.6 10 10 C10.309375 8.535625 10.61875 7.07125 10.9375 5.5625 C11.875 1.125 11.875 1.125 13 0 C14.51928038 -0.07179964 16.04167482 -0.08392007 17.5625 -0.0625 C18.38878906 -0.05347656 19.21507813 -0.04445312 20.06640625 -0.03515625 C20.70449219 -0.02355469 21.34257813 -0.01195312 22 0 C21.60676649 4.47044413 21.13571489 8.79103125 19.9375 13.125 C18.11868974 20.64274907 19.47341708 26.6429534 21.34375 34.01171875 C22 37 22 37 22 41 C22.66 41 23.32 41 24 41 C23.98259766 40.38793701 23.96519531 39.77587402 23.94726562 39.14526367 C23.81880343 30.79904437 24.61364136 22.59806954 25.5 14.3125 C25.64504539 12.91737106 25.78957994 11.52218892 25.93359375 10.12695312 C26.28406163 6.75077922 26.64133299 3.37531272 27 0 C32.28 0 37.56 0 43 0 C44.10459741 2.20919481 44.25847473 3.72252771 44.48071289 6.17431641 C44.56072037 7.03505768 44.64072784 7.89579895 44.72315979 8.78262329 C44.80549362 9.71287323 44.88782745 10.64312317 44.97265625 11.6015625 C45.06002548 12.55316254 45.14739471 13.50476257 45.2374115 14.48519897 C45.51622097 17.5314685 45.78942071 20.57821197 46.0625 23.625 C46.25028243 25.68753359 46.4384288 27.75003409 46.62695312 29.8125 C47.08886303 34.87462525 47.54574173 39.93718262 48 45 C44.7 45 41.4 45 38 45 C37.855625 44.21625 37.71125 43.4325 37.5625 42.625 C37.12201075 40.03578982 37.12201075 40.03578982 36 38 C35.01 38 34.02 38 33 38 C33 40.31 33 42.62 33 45 C30.59564994 46.20217503 29.31618631 46.03897118 26.6484375 45.87890625 C25.79765625 45.83056641 24.946875 45.78222656 24.0703125 45.73242188 C23.18085938 45.67634766 22.29140625 45.62027344 21.375 45.5625 C20.4778125 45.51029297 19.580625 45.45808594 18.65625 45.40429688 C16.43715988 45.2744565 14.21850129 45.13948661 12 45 C11.77213542 43.01432292 11.54427083 41.02864583 11.31640625 39.04296875 C11.02829265 36.80603607 11.02829265 36.80603607 10 34 C10 37.63 10 41.26 10 45 C8 46 8 46 -1 45 C-0.67 30.15 -0.34 15.3 0 0 Z M35 14 C34.67 19.28 34.34 24.56 34 30 C34.99 30 35.98 30 37 30 C36.67 24.72 36.34 19.44 36 14 C35.67 14 35.34 14 35 14 Z M9 28 C10 31 10 31 10 31 Z " fill="#FCFCFC" transform="translate(106,62)"/>
<path d="M0 0 C3.17192926 2.00439802 6.10474412 4.21941416 9.09765625 6.48046875 C11.85827432 8.32089208 11.85827432 8.32089208 14.59375 7.4375 C17.77196188 5.53882797 20.68160515 3.3899009 23.62109375 1.14453125 C26.86538717 -0.41635212 28.57533133 0.01457921 32 1 C34.4375 2.3203125 34.4375 2.3203125 37 4.125 C38.02222656 4.83269531 39.04445313 5.54039063 40.09765625 6.26953125 C40.98928467 6.89529053 40.98928467 6.89529053 41.89892578 7.53369141 C45.39882291 9.9762178 48.92860915 12.37487405 52.45507812 14.77880859 C54.42041307 16.11895595 56.38400074 17.46166983 58.34570312 18.80712891 C59.26158203 19.43409668 60.17746094 20.06106445 61.12109375 20.70703125 C62.34977173 21.54971558 62.34977173 21.54971558 63.60327148 22.40942383 C66.02725723 24.01808911 68.50111098 25.51111137 71 27 C72.13394159 27.73510696 73.26217548 28.47914097 74.3828125 29.234375 C74.98762451 29.64034912 75.59243652 30.04632324 76.21557617 30.46459961 C76.84568604 30.88878174 77.4757959 31.31296387 78.125 31.75 C83.60866648 35.42753557 89.13137009 39.02683199 94.73046875 42.52734375 C95.47941406 43.01332031 96.22835937 43.49929687 97 44 C97.75925781 44.47566406 98.51851562 44.95132813 99.30078125 45.44140625 C99.86152344 45.95574219 100.42226562 46.47007813 101 47 C101 48.32 101 49.64 101 51 C97.85262818 50.30058404 94.97411124 49.23921302 92 48 C92 47.34 92 46.68 92 46 C90.92878906 45.61328125 90.92878906 45.61328125 89.8359375 45.21875 C86.8146858 43.92036084 84.3390442 42.35497698 81.625 40.5 C80.57570312 39.7884375 79.52640625 39.076875 78.4453125 38.34375 C77.8874707 37.96347656 77.32962891 37.58320312 76.75488281 37.19140625 C73.68398919 35.10654803 70.59051362 33.05560781 67.5 31 C66.21474411 30.14337865 64.92958682 29.28660934 63.64453125 28.4296875 C63.02529785 28.01686523 62.40606445 27.60404297 61.76806641 27.17871094 C59.24121094 25.49414063 56.71435547 23.80957031 54.1875 22.125 C53.24132812 21.49980469 52.29515625 20.87460937 51.3203125 20.23046875 C48.66752715 18.44842118 46.04581953 16.63550607 43.4296875 14.80078125 C42.62635986 14.24567871 41.82303223 13.69057617 40.99536133 13.11865234 C39.39831696 12.01506504 37.80925522 10.89981705 36.22924805 9.77197266 C32.08368881 6.80039804 32.08368881 6.80039804 27.203125 6.03125 C25.11169105 6.95088762 23.14000165 7.87568527 21.1875 9.0625 C20.135625 9.701875 19.08375 10.34125 18 11 C21.15981581 14.31759582 24.76073329 16.66617695 28.5625 19.1875 C29.24763672 19.65091797 29.93277344 20.11433594 30.63867188 20.59179688 C34.02547502 23.11221483 34.02547502 23.11221483 38 24 C38.515625 24.54140625 39.03125 25.0828125 39.5625 25.640625 C42.99908209 28.96706023 46.93829044 31.25234818 51 33.75 C52.70494848 34.81557245 54.40937536 35.88197994 56.11328125 36.94921875 C56.94424316 37.46790527 57.77520508 37.9865918 58.63134766 38.52099609 C61.82874202 40.5174726 65.01817658 42.52156174 68.1875 44.5625 C69.12980469 45.16191406 70.07210937 45.76132812 71.04296875 46.37890625 C72.01169922 47.18134766 72.01169922 47.18134766 73 48 C73 48.99 73 49.98 73 51 C72.01 51.495 72.01 51.495 71 52 C63.85909385 49.18794865 57.46200288 44.03514535 51.12109375 39.76171875 C46.79999692 36.85423044 42.43659467 34.01444689 38.0625 31.1875 C37.37736328 30.74390137 36.69222656 30.30030273 35.98632812 29.84326172 C32.59175524 27.65127637 29.18371117 25.4841389 25.75390625 23.34765625 C23.0961078 21.69176059 20.46741036 20.00719865 17.875 18.25 C13.83741555 15.54418425 9.77012167 12.88715578 5.6875 10.25 C5.08856934 9.86102539 4.48963867 9.47205078 3.87255859 9.07128906 C0.98397881 7.21057241 -1.88095759 5.44785179 -5 4 C-5.57105469 4.4125 -6.14210938 4.825 -6.73046875 5.25 C-12.7728028 9.55360199 -18.9565923 13.48573759 -25.3125 17.30078125 C-28.02372126 18.87720065 -28.02372126 18.87720065 -30 21 C-32.79263666 22.67469825 -35.6299356 24.26050329 -38.46875 25.85546875 C-42.21537726 28.05317405 -45.71745746 30.57751908 -49.26123047 33.0847168 C-54.04416676 36.42953184 -58.92800139 39.61866714 -63.8125 42.8125 C-64.82248047 43.47958984 -65.83246094 44.14667969 -66.87304688 44.83398438 C-67.84951172 45.47271484 -68.82597656 46.11144531 -69.83203125 46.76953125 C-70.70577393 47.34292236 -71.5795166 47.91631348 -72.47973633 48.50708008 C-74.92943653 49.95820056 -77.33082077 51.02147057 -80 52 C-80.625 50.125 -80.625 50.125 -81 48 C-77.26550184 44.26550184 -72.46838915 41.77764731 -68 39 C-67.04996094 38.40832031 -66.09992188 37.81664062 -65.12109375 37.20703125 C-58.25593824 33 -58.25593824 33 -56 33 C-56 25.08 -56 17.16 -56 9 C-50.06 9 -44.12 9 -38 9 C-37.505 13.95 -37.505 13.95 -37 19 C-35.6279898 18.11939124 -34.256114 17.23857265 -32.88476562 16.35693359 C-31.65437945 15.56733689 -30.42257041 14.7799536 -29.18945312 13.99462891 C-25.58411159 11.69161407 -22.02151213 9.34183613 -18.49609375 6.91796875 C-17.7477124 6.41177002 -16.99933105 5.90557129 -16.22827148 5.3840332 C-14.76397267 4.39237866 -13.3086481 3.38731685 -11.86352539 2.36791992 C-7.60847069 -0.48617283 -5.11132706 -1.89334096 0 0 Z M-52 13 C-52 18.28 -52 23.56 -52 29 C-50.68 28.34 -49.36 27.68 -48 27 C-46.9275 26.505 -45.855 26.01 -44.75 25.5 C-41.78433452 23.33037871 -41.78433452 23.33037871 -41.6171875 20.515625 C-41.62427351 18.00717899 -41.80257828 15.50067516 -42 13 C-45.3 13 -48.6 13 -52 13 Z " fill="#FDFDFD" transform="translate(85,5)"/>
<path d="M0 0 C3.3 0 6.6 0 10 0 C10.66 2.31 11.32 4.62 12 7 C12 5.02 12 3.04 12 1 C14 0 14 0 23 0 C23 15.18 23 30.36 23 46 C19.37 45.67 15.74 45.34 12 45 C11.67 42.03 11.34 39.06 11 36 C11.020625 37.299375 11.04125 38.59875 11.0625 39.9375 C11.08399454 41.29165633 11.07148199 42.64756083 11 44 C10.505 44.495 10.505 44.495 10 45 C6.7 45 3.4 45 0 45 C0 30.15 0 15.3 0 0 Z M13 13 C14 16 14 16 14 16 Z " fill="#FDFDFD" transform="translate(450,62)"/>
<path d="M0 0 C3.3 0 6.6 0 10 0 C10.99 3.96 11.98 7.92 13 12 C12.979375 10.39125 12.95875 8.7825 12.9375 7.125 C12.875 2.25 12.875 2.25 14 0 C16.97 0 19.94 0 23 0 C23.33 14.85 23.66 29.7 24 45 C19.80104745 46.04973814 17.20594226 45.72795155 13 45 C12.22678118 42.01758453 11.58803797 39.02419525 11 36 C11 38.97 11 41.94 11 45 C9.35492782 45.19406478 7.70890406 45.38007935 6.0625 45.5625 C4.68771484 45.71912109 4.68771484 45.71912109 3.28515625 45.87890625 C2.53105469 45.91886719 1.77695313 45.95882812 1 46 C0 45 0 45 -0.12025452 43.17137146 C-0.11803391 42.37417191 -0.11581329 41.57697235 -0.11352539 40.75561523 C-0.11344986 39.85475693 -0.11337433 38.95389862 -0.11329651 38.02574158 C-0.10813522 37.04658279 -0.10297394 36.06742401 -0.09765625 35.05859375 C-0.0962413 34.06118668 -0.09482635 33.0637796 -0.09336853 32.03614807 C-0.08775114 28.83656876 -0.07519571 25.63705831 -0.0625 22.4375 C-0.05748724 20.27408955 -0.05292395 18.11067801 -0.04882812 15.94726562 C-0.03777606 10.63148371 -0.02049979 5.31575354 0 0 Z " fill="#FDFDFD" transform="translate(249,62)"/>
<path d="M0 0 C2.97 0.33 5.94 0.66 9 1 C9 13.21 9 25.42 9 38 C11.97 38 14.94 38 18 38 C18.33 25.79 18.66 13.58 19 1 C21 0 21 0 29 1 C29 16.18 29 31.36 29 47 C14.15 46.505 14.15 46.505 -1 46 C-1.16760991 41.68082149 -1.33046743 37.36193768 -1.48217773 33.04223633 C-1.53489097 31.57892325 -1.59014521 30.11569905 -1.64819336 28.65258789 C-2.01277675 19.41119156 -2.29767663 10.19259229 -1 1 C-0.67 0.67 -0.34 0.34 0 0 Z " fill="#FDFDFD" transform="translate(156,61)"/>
<path d="M0 0 C17 0 17 0 22 4 C23.98573633 8.89169193 23.60855603 15.13629714 22 20.0625 C21.67 20.701875 21.34 21.34125 21 22 C21.33 22.33 21.66 22.66 22 23 C22.15714654 24.63256758 22.25085414 26.27135338 22.31640625 27.91015625 C22.35830078 28.89951172 22.40019531 29.88886719 22.44335938 30.90820312 C22.48267578 31.94912109 22.52199219 32.99003906 22.5625 34.0625 C22.60568359 35.10728516 22.64886719 36.15207031 22.69335938 37.22851562 C22.79981105 39.81883972 22.90044308 42.40940175 23 45 C18.05 45.495 18.05 45.495 13 46 C12.09761253 43.29283758 11.88148698 41.76223232 11.90234375 38.98828125 C11.90556641 38.23095703 11.90878906 37.47363281 11.91210938 36.69335938 C11.92048828 35.90767578 11.92886719 35.12199219 11.9375 34.3125 C11.94201172 33.51521484 11.94652344 32.71792969 11.95117188 31.89648438 C11.9629415 29.93095743 11.98087652 27.96546915 12 26 C11.34 25.67 10.68 25.34 10 25 C10.33 31.6 10.66 38.2 11 45 C7.04 45 3.08 45 -1 45 C-0.67 30.15 -0.34 15.3 0 0 Z M10 9 C10 11.64 10 14.28 10 17 C10.99 16.67 11.98 16.34 13 16 C13 13.69 13 11.38 13 9 C12.01 9 11.02 9 10 9 Z " fill="#FCFCFC" transform="translate(319,62)"/>
<path d="M0 0 C3.61883293 2.65873439 5.22726197 4.64636313 6 9 C6.25322847 13.43418403 6.23127287 17.87182866 6.25 22.3125 C6.270625 23.52357422 6.29125 24.73464844 6.3125 25.98242188 C6.34060389 32.40064667 6.28927356 37.40190942 3 43 C0.08028473 45.51419926 -1.65848838 45.96340947 -5.5 46.375 C-9.28541073 45.96942028 -11.05344689 45.37361222 -14 43 C-16.95444806 39.00314695 -17.38446439 36.08434765 -17.3984375 31.16015625 C-17.40230469 29.84982422 -17.40617187 28.53949219 -17.41015625 27.18945312 C-17.40387207 26.51148682 -17.39758789 25.83352051 -17.39111328 25.13500977 C-17.37507194 23.07175265 -17.39097288 21.01046173 -17.41015625 18.94726562 C-17.40628906 17.63564453 -17.40242188 16.32402344 -17.3984375 14.97265625 C-17.39505371 13.77906494 -17.39166992 12.58547363 -17.38818359 11.35571289 C-16.9569897 7.62819083 -15.925243 5.20175319 -14 2 C-9.89155913 -0.9468027 -4.83962765 -0.77528016 0 0 Z M-7 9 C-6.96447021 9.67579102 -6.92894043 10.35158203 -6.89233398 11.04785156 C-6.73455368 14.11495312 -6.58593069 17.18243236 -6.4375 20.25 C-6.38142578 21.31347656 -6.32535156 22.37695312 -6.26757812 23.47265625 C-6.21923828 24.49746094 -6.17089844 25.52226563 -6.12109375 26.578125 C-6.0739624 27.52075195 -6.02683105 28.46337891 -5.97827148 29.43457031 C-5.99849742 31.82259456 -6.30539398 33.72674392 -7 36 C-6.01 36 -5.02 36 -4 36 C-4 27.42 -4 18.84 -4 10 C-4.99 9.67 -5.98 9.34 -7 9 Z " fill="#FDFDFD" transform="translate(442,62)"/>
<path d="M0 0 C2.97 0 5.94 0 9 0 C9.33 11.88 9.66 23.76 10 36 C10.66 36.33 11.32 36.66 12 37 C11.99476318 35.91468994 11.98952637 34.82937988 11.98413086 33.71118164 C11.96608164 29.69882018 11.95456829 25.68646233 11.94506836 21.67407227 C11.94002796 19.93480832 11.9331957 18.19554864 11.92456055 16.45629883 C11.91248208 13.96174063 11.90676892 11.46723827 11.90234375 8.97265625 C11.89718246 8.19036148 11.89202118 7.40806671 11.88670349 6.60206604 C11.88650774 4.73432886 11.93800306 2.86670796 12 1 C13 0 13 0 15.06640625 -0.09765625 C16.30197266 -0.08025391 16.30197266 -0.08025391 17.5625 -0.0625 C18.38878906 -0.05347656 19.21507812 -0.04445312 20.06640625 -0.03515625 C20.70449219 -0.02355469 21.34257812 -0.01195312 22 0 C22.07438973 5.30188966 22.12871511 10.60347268 22.16479492 15.90576172 C22.1798424 17.70789892 22.2002853 19.50999973 22.22631836 21.31201172 C22.26288021 23.90862021 22.27976681 26.50474275 22.29296875 29.1015625 C22.30845261 29.9017984 22.32393646 30.7020343 22.33988953 31.52651978 C22.34134845 36.42196605 21.71938117 39.75948417 19 44 C15.13539549 46.36170276 11.44970065 46.3972947 7 46 C3.4613006 44.34860695 2.18929847 43.28394771 0 40 C-1.44243245 31.25015035 -1.09740425 22.09312467 -1.125 13.25 C-1.12967285 12.17790283 -1.1343457 11.10580566 -1.13916016 10.0012207 C-1.13706543 8.99534912 -1.1349707 7.98947754 -1.1328125 6.953125 C-1.13168457 6.04723633 -1.13055664 5.14134766 -1.12939453 4.20800781 C-1 2 -1 2 0 0 Z " fill="#FDFDFD" transform="translate(344,62)"/>
<path d="M0 0 C5.28 0 10.56 0 16 0 C16.11593506 1.15000488 16.23187012 2.30000977 16.35131836 3.48486328 C16.78360895 7.76777739 17.21845287 12.05042912 17.65405273 16.33300781 C17.84191989 18.18352356 18.02910254 20.03410894 18.21557617 21.88476562 C18.4843467 24.55096923 18.75561038 27.21690943 19.02734375 29.8828125 C19.10967758 30.70492218 19.19201141 31.52703186 19.27684021 32.37405396 C19.71162954 36.61478917 20.24124589 40.80175743 21 45 C17.37 45 13.74 45 10 45 C10 42.69 10 40.38 10 38 C8.02 38.495 8.02 38.495 6 39 C6 40.98 6 42.96 6 45 C1.05 45.495 1.05 45.495 -4 46 C-4.18382046 37.86394645 -3.56090711 29.88016131 -2.77319336 21.79345703 C-2.56093774 19.60892125 -2.35712153 17.42371083 -2.15429688 15.23828125 C-1.13988642 4.55954567 -1.13988642 4.55954567 0 0 Z M7 13 C6.67 18.61 6.34 24.22 6 30 C6.99 30 7.98 30 9 30 C9.10477512 24.21408489 8.99250545 18.70690634 8 13 C7.67 13 7.34 13 7 13 Z " fill="#FCFCFC" transform="translate(72,62)"/>
<path d="M0 0 C2.93423195 1.79646854 4.47205355 2.9441071 6 6 C6.12285662 8.42232293 6.18832331 10.81482056 6.203125 13.23828125 C6.20882507 13.95606247 6.21452515 14.67384369 6.22039795 15.41337585 C6.22984952 16.93401617 6.23638256 18.45467699 6.24023438 19.9753418 C6.24991925 22.29317389 6.2809308 24.61011125 6.3125 26.92773438 C6.31903237 28.40624474 6.32428192 29.88476145 6.328125 31.36328125 C6.3404718 32.05303543 6.3528186 32.74278961 6.36553955 33.45344543 C6.34552069 37.81497157 5.6523594 40.52270368 3 44 C-0.94199716 46.62799811 -5.05060401 46.0991998 -9.59765625 45.875 C-13.3354011 44.51361 -14.25148891 42.51270389 -16 39 C-16.61683061 35.99854452 -16.74510145 33.05847852 -16.8125 30 C-16.84110107 29.16710449 -16.86970215 28.33420898 -16.89916992 27.47607422 C-17.428826 8.09252003 -17.428826 8.09252003 -14.07421875 3.1796875 C-10.08701818 -1.01025208 -5.510066 -0.64977193 0 0 Z M-6 9 C-7.74073204 10.74073204 -7.13022093 13.13091635 -7.1328125 15.49609375 C-7.13410156 16.61177734 -7.13539063 17.72746094 -7.13671875 18.87695312 C-7.13285156 20.05193359 -7.12898437 21.22691406 -7.125 22.4375 C-7.12886719 23.60861328 -7.13273438 24.77972656 -7.13671875 25.98632812 C-7.13542969 27.10330078 -7.13414062 28.22027344 -7.1328125 29.37109375 C-7.13168457 30.40161865 -7.13055664 31.43214355 -7.12939453 32.49389648 C-7.16782632 34.99809675 -7.16782632 34.99809675 -6 37 C-5.34 37 -4.68 37 -4 37 C-2.6691089 34.33821779 -2.88731007 32.31260604 -2.90234375 29.3359375 C-2.90556641 28.21445313 -2.90878906 27.09296875 -2.91210938 25.9375 C-2.92048828 24.761875 -2.92886719 23.58625 -2.9375 22.375 C-2.94201172 21.19164062 -2.94652344 20.00828125 -2.95117188 18.7890625 C-2.96298533 15.85932493 -2.97945742 12.92968728 -3 10 C-3.99 9.67 -4.98 9.34 -6 9 Z " fill="#FCFCFC" transform="translate(240,62)"/>
<path d="M0 0 C3.25538651 1.31600731 4.55924846 2.09006134 6.08984375 5.25 C7.58593224 9.77037037 7.65752724 14.26246011 8 19 C4.04 19 0.08 19 -4 19 C-3.67 15.7 -3.34 12.4 -3 9 C-3.99 9 -4.98 9 -6 9 C-5.86188078 13.31278385 -5.71321891 17.62513953 -5.5625 21.9375 C-5.52318359 23.16919922 -5.48386719 24.40089844 -5.44335938 25.66992188 C-5.38051758 27.4246582 -5.38051758 27.4246582 -5.31640625 29.21484375 C-5.27974854 30.29886475 -5.24309082 31.38288574 -5.20532227 32.49975586 C-5.27635735 34.939263 -5.27635735 34.939263 -4 36 C-3.67 32.37 -3.34 28.74 -3 25 C0.3 25 3.6 25 7 25 C7.57824288 39.43465563 7.57824288 39.43465563 4 44 C0.13539549 46.36170276 -3.55029935 46.3972947 -8 46 C-12.70394904 44.07565721 -14.05978976 41.58772463 -16 37 C-16.38818359 33.95141602 -16.38818359 33.95141602 -16.3984375 30.75390625 C-16.40230469 29.58666016 -16.40617188 28.41941406 -16.41015625 27.21679688 C-16.39855469 26.01087891 -16.38695312 24.80496094 -16.375 23.5625 C-16.38660156 22.36044922 -16.39820313 21.15839844 -16.41015625 19.91992188 C-16.38605853 12.63839384 -16.21849187 6.83743261 -11.375 1.0625 C-7.61866551 -0.61796543 -4.04228083 -0.52694018 0 0 Z " fill="#FCFCFC" transform="translate(215,62)"/>
<path d="M0 0 C3.31163244 1.31085451 4.539359 2.07227546 6.1171875 5.25 C7.58878681 9.83409695 7.11539406 14.2111467 7 19 C3.37 19 -0.26 19 -4 19 C-3.67 15.7 -3.34 12.4 -3 9 C-3.99 9 -4.98 9 -6 9 C-5.67 17.91 -5.34 26.82 -5 36 C-4.67 36 -4.34 36 -4 36 C-3.67 32.37 -3.34 28.74 -3 25 C0.3 25 3.6 25 7 25 C7.08150744 27.06183633 7.1394194 29.12461349 7.1875 31.1875 C7.23970703 32.91033203 7.23970703 32.91033203 7.29296875 34.66796875 C6.97202292 38.31819263 6.1685578 40.08778809 4 43 C0.06538376 46.16955197 -3.02077887 46.53348798 -8 46 C-12.7037502 44.07573855 -14.06722837 41.59229267 -16 37 C-16.38818359 33.84375 -16.38818359 33.84375 -16.3984375 30.5 C-16.40423828 28.6746875 -16.40423828 28.6746875 -16.41015625 26.8125 C-16.39855469 25.554375 -16.38695312 24.29625 -16.375 23 C-16.38660156 21.741875 -16.39820313 20.48375 -16.41015625 19.1875 C-16.40628906 17.970625 -16.40242188 16.75375 -16.3984375 15.5 C-16.39505371 14.3965625 -16.39166992 13.293125 -16.38818359 12.15625 C-15.85807772 7.84605585 -14.20013979 4.60696684 -11.6171875 1.1484375 C-8.26159112 -1.23452225 -3.91472773 -0.45650978 0 0 Z " fill="#FCFCFC" transform="translate(384,62)"/>
<path d="M0 0 C2.93423195 1.79646854 4.47205355 2.9441071 6 6 C6.13415472 8.6723621 6.04318541 11.32250488 6 14 C3.03 14 0.06 14 -3 14 C-3.33 12.68 -3.66 11.36 -4 10 C-4.66 9.67 -5.32 9.34 -6 9 C-4.68192762 12.94738775 -3.14500825 15.10820489 -0.0625 17.875 C4.64286269 22.43518816 7.03960015 26.29200308 7.375 33 C7.19313237 37.2490892 6.07757771 40.2900398 4 44 C1.09978086 46.47055705 -2.23746623 46.36138161 -5.96875 46.25 C-9.17754363 45.85507155 -11.35474322 44.82648682 -14 43 C-16.94272563 38.58591155 -16.17851888 33.10762344 -16 28 C-13.29120665 26.64560332 -10.99066732 26.93498549 -8 27 C-8.763125 26.319375 -9.52625 25.63875 -10.3125 24.9375 C-14.14580065 20.74761325 -16.1124108 16.61572467 -16.4375 10.9375 C-15.94471364 6.50242274 -14.82409474 4.40552601 -12 1 C-8.30274625 -0.84862688 -4.03538558 -0.47587094 0 0 Z M-7 27 C-6.34 27.66 -5.68 28.32 -5 29 C-5 28.34 -5 27.68 -5 27 C-5.66 27 -6.32 27 -7 27 Z M-5 29 C-5.79953138 32.28696233 -6.09658936 33.71023192 -5 37 C-4.34 36.67 -3.68 36.34 -3 36 C-3 34.02 -3 32.04 -3 30 C-3.66 29.67 -4.32 29.34 -5 29 Z " fill="#FBFBFB" transform="translate(290,62)"/>
<path d="M0 0 C6.6 0 13.2 0 20 0 C20 2.97 20 5.94 20 9 C18.35 9.33 16.7 9.66 15 10 C15 21.55 15 33.1 15 45 C11.78548731 46.60725635 8.56387464 46.05748185 5 46 C3.46062561 42.92125123 3.99703214 39.73263303 4.12109375 36.3671875 C4.15651024 35.23943405 4.15651024 35.23943405 4.19264221 34.08889771 C4.2693062 31.68407434 4.35331844 29.27957082 4.4375 26.875 C4.49071797 25.24610948 4.54345839 23.61720328 4.59570312 21.98828125 C4.72492498 17.9919844 4.86073827 13.99595908 5 10 C3.35 10 1.7 10 0 10 C0 6.7 0 3.4 0 0 Z " fill="#FDFDFD" transform="translate(392,62)"/>
<path d="M0 0 C6.93 0 13.86 0 21 0 C21 2.97 21 5.94 21 9 C20.67 9.33 20.34 9.66 20 10 C18.35 10 16.7 10 15 10 C15.33 21.55 15.66 33.1 16 45 C12.37 45 8.74 45 5 45 C5.33 33.45 5.66 21.9 6 10 C4.35 10 2.7 10 1 10 C0.67 9.67 0.34 9.34 0 9 C0 6.03 0 3.06 0 0 Z " fill="#FDFDFD" transform="translate(297,62)"/>
<path d="M0 0 C2 2 2 2 2.24050903 3.91091919 C2.23606781 4.68813324 2.23162659 5.46534729 2.22705078 6.26611328 C2.22682419 7.58725632 2.22682419 7.58725632 2.22659302 8.93508911 C2.21627045 9.88721283 2.20594788 10.83933655 2.1953125 11.8203125 C2.1924826 12.79410858 2.18965271 13.76790466 2.18673706 14.77120972 C2.17551913 17.88926349 2.1504117 21.00703268 2.125 24.125 C2.11497228 26.23567294 2.10584607 28.34635038 2.09765625 30.45703125 C2.07557458 35.63811835 2.04208129 40.81903885 2 46 C0 47 0 47 -8 46 C-8 31.15 -8 16.3 -8 1 C-5.36 0.67 -2.72 0.34 0 0 Z " fill="#FDFDFD" transform="translate(421,61)"/>
<path d="M0 0 C0.66 0 1.32 0 2 0 C2 0.66 2 1.32 2 2 C1.34 2 0.68 2 0 2 C0 1.34 0 0.68 0 0 Z " fill="#FFFFFF" transform="translate(6,58)"/>
<path d="M0 0 C3 1 3 1 3 1 Z " fill="#FFFFFF" transform="translate(8,60)"/>
<path d="" fill="#FFFFFF" transform="translate(0,0)"/>
<path d="" fill="#FFFFFF" transform="translate(0,0)"/>
<path d="" fill="#FFFFFF" transform="translate(0,0)"/>
<path d="" fill="#FFFFFF" transform="translate(0,0)"/>
<path d="" fill="#FFFFFF" transform="translate(0,0)"/>
<path d="" fill="#FFFFFF" transform="translate(0,0)"/>
<path d="" fill="#FFFFFF" transform="translate(0,0)"/>
<path d="" fill="#FFFFFF" transform="translate(0,0)"/>
<path d="" fill="#FFFFFF" transform="translate(0,0)"/>
<path d="" fill="#FFFFFF" transform="translate(0,0)"/>
<path d="" fill="#FFFFFF" transform="translate(0,0)"/>
<path d="" fill="#FFFFFF" transform="translate(0,0)"/>
<path d="" fill="#FFFFFF" transform="translate(0,0)"/>
<path d="" fill="#FFFFFF" transform="translate(0,0)"/>
<path d="" fill="#FFFFFF" transform="translate(0,0)"/>
<path d="" fill="#FFFFFF" transform="translate(0,0)"/>
<path d="" fill="#FFFFFF" transform="translate(0,0)"/>
<path d="" fill="#FFFFFF" transform="translate(0,0)"/>
<path d="" fill="#FFFFFF" transform="translate(0,0)"/>
<path d="" fill="#FFFFFF" transform="translate(0,0)"/>
<path d="" fill="#FFFFFF" transform="translate(0,0)"/>
<path d="" fill="#FFFFFF" transform="translate(0,0)"/>
<path d="" fill="#FFFFFF" transform="translate(0,0)"/>
<path d="" fill="#FFFFFF" transform="translate(0,0)"/>
<path d="" fill="#FFFFFF" transform="translate(0,0)"/>
<path d="" fill="#FFFFFF" transform="translate(0,0)"/>
</svg>
