<?xml version="1.0" encoding="UTF-8"?>
<svg version="1.1" xmlns="http://www.w3.org/2000/svg" width="489" height="109">
<path d="M0 0 C0.495 0.99 0.495 0.99 1 2 C3.64 1.67 6.28 1.34 9 1 C9.99 2.65 10.98 4.3 12 6 C11.67 6.33 11.34 6.66 11 7 C10.92475177 8.68725345 10.91686113 10.37760178 10.9375 12.06640625 C10.94910156 13.63165039 10.94910156 13.63165039 10.9609375 15.22851562 C10.98665884 17.4238319 11.01269243 19.61914455 11.0390625 21.81445312 C11.07335365 26.48090758 11.09001166 31.02515769 10.4375 35.65234375 C9.70006459 38.86625287 9.70006459 38.86625287 11 41 C10.01 41.99 10.01 41.99 9 43 C8.505 43.99 8.505 43.99 8 45 C4.17092663 48.11112211 0.90692556 48.44696787 -3.8515625 48.3046875 C-6.73120483 47.89630186 -8.64763058 46.66049606 -11 45 C-11.99 45 -12.98 45 -14 45 C-14.495 45.99 -14.495 45.99 -15 47 C-18.3 47 -21.6 47 -25 47 C-25 40.73 -25 34.46 -25 28 C-26.23759823 31.71279469 -26.35608897 35.31306346 -26.5625 39.1875 C-26.62727539 40.31188477 -26.62727539 40.31188477 -26.69335938 41.45898438 C-26.79922685 43.30578375 -26.9000976 45.15286834 -27 47 C-30.3 47 -33.6 47 -37 47 C-37.495 29.675 -37.495 29.675 -38 12 C-38.66 12.66 -39.32 13.32 -40 14 C-41.32 14 -42.64 14 -44 14 C-44 24.89 -44 35.78 -44 47 C-47.3 47 -50.6 47 -54 47 C-54 35.78 -54 24.56 -54 13 C-55.32 13 -56.64 13 -58 13 C-58.33 13.99 -58.66 14.98 -59 16 C-61.0625 16.6875 -61.0625 16.6875 -63 17 C-63 17.66 -63 18.32 -63 19 C-63.99 19 -64.98 19 -66 19 C-65.01 19.66 -64.02 20.32 -63 21 C-63.33 21.66 -63.66 22.32 -64 23 C-63.34 23 -62.68 23 -62 23 C-61.71125 23.639375 -61.4225 24.27875 -61.125 24.9375 C-60.17176549 27.15206079 -60.17176549 27.15206079 -58 28 C-58.165 28.495 -58.33 28.99 -58.5 29.5 C-59.13860669 32.19872202 -59.13860669 32.19872202 -58.875 35.8125 C-58.86680272 40.19804671 -59.53265932 43.26160503 -62 47 C-66.3768855 48.93975607 -70.42459003 49.45537989 -75 48 C-76.299375 47.4740625 -76.299375 47.4740625 -77.625 46.9375 C-79.88449553 45.87761116 -79.88449553 45.87761116 -82 46 C-81.979375 45.21625 -81.95875 44.4325 -81.9375 43.625 C-81.81315937 41.01885039 -81.81315937 41.01885039 -83 39 C-83.06950541 37.45976004 -83.08452357 35.91665012 -83.0625 34.375 C-83.05347656 33.55773437 -83.04445313 32.74046875 -83.03515625 31.8984375 C-83.02355469 31.27195312 -83.01195312 30.64546875 -83 30 C-80.36 29.34 -77.72 28.68 -75 28 C-75.66 27.67 -76.32 27.34 -77 27 C-77 26.34 -77 25.68 -77 25 C-77.66 25 -78.32 25 -79 25 C-81.53883967 19.89965244 -83.55554151 15.83318584 -83 10 C-83 9.01 -83 8.02 -83 7 C-80.78604794 3.79358667 -79.09115889 2.21302119 -75.21875 1.45703125 C-72.47380967 1.21295795 -69.75485566 1.05307077 -67 1 C-66.67 1.66 -66.34 2.32 -66 3 C-64.34178227 3.37309899 -62.67422986 3.70700977 -61 4 C-60.67 4.33 -60.34 4.66 -60 5 C-60 4.01 -60 3.02 -60 2 C-57.23434618 1.07811539 -55.61716298 0.88214778 -52.76953125 0.90234375 C-51.56586914 0.90717773 -51.56586914 0.90717773 -50.33789062 0.91210938 C-49.50451172 0.92048828 -48.67113281 0.92886719 -47.8125 0.9375 C-46.96751953 0.94201172 -46.12253906 0.94652344 -45.25195312 0.95117188 C-43.16793845 0.96294597 -41.08396023 0.9808811 -39 1 C-39 1.66 -39 2.32 -39 3 C-38.34 2.67 -37.68 2.34 -37 2 C-29.14512236 0.79840399 -23.21961031 0.59452344 -16 4 C-15.34 4 -14.68 4 -14 4 C-13.608125 3.505 -13.21625 3.01 -12.8125 2.5 C-11 1 -11 1 -7.5 0.5 C-4 1 -4 1 -2.29956055 3.11791992 C-0.76390762 6.52359018 -0.65598063 8.88658583 -0.70703125 12.61328125 C-0.71669922 13.86044922 -0.72636719 15.10761719 -0.73632812 16.39257812 C-0.76146484 17.68615234 -0.78660156 18.97972656 -0.8125 20.3125 C-0.83280273 22.28186523 -0.83280273 22.28186523 -0.85351562 24.29101562 C-0.88882557 27.52776077 -0.9381472 30.76367105 -1 34 C-1.66 34 -2.32 34 -3 34 C-2.01 35.98 -2.01 35.98 -1 38 C-1.00523682 36.95545654 -1.01047363 35.91091309 -1.01586914 34.8347168 C-1.03396598 30.96021379 -1.04544918 27.08571452 -1.05493164 23.21118164 C-1.05996113 21.53409192 -1.06678548 19.85700658 -1.07543945 18.17993164 C-1.08756559 15.769683 -1.09324215 13.35949232 -1.09765625 10.94921875 C-1.10281754 10.19912033 -1.10797882 9.44902191 -1.11329651 8.67619324 C-1.11363785 5.51048768 -1.00887343 3.02662028 0 0 Z M-14 6 C-15.231394 9.69418201 -14.64432764 12.2056261 -14 16 C-13.67 16 -13.34 16 -13 16 C-13 12.7 -13 9.4 -13 6 C-13.33 6 -13.66 6 -14 6 Z M-38 7 C-38.33 7.99 -38.66 8.98 -39 10 C-38.01 10.495 -38.01 10.495 -37 11 C-37.33 9.68 -37.66 8.36 -38 7 Z M-60 9 C-59 12 -59 12 -59 12 Z M-72 11 C-72.33 11.66 -72.66 12.32 -73 13 C-72.34 13 -71.68 13 -71 13 C-71.33 12.34 -71.66 11.68 -72 11 Z M-26 11 C-26.33 11.66 -26.66 12.32 -27 13 C-26.01 13.33 -25.02 13.66 -24 14 C-24.33 13.01 -24.66 12.02 -25 11 C-25.33 11 -25.66 11 -26 11 Z M-26 14 C-26 15.65 -26 17.3 -26 19 C-25.34 18.01 -24.68 17.02 -24 16 C-24.66 15.34 -25.32 14.68 -26 14 Z M-69 16 C-68.67 16.66 -68.34 17.32 -68 18 C-67.67 17.34 -67.34 16.68 -67 16 C-67.66 16 -68.32 16 -69 16 Z M-67 17 C-66 19 -66 19 -66 19 Z M-15 20 C-14.67 21.65 -14.34 23.3 -14 25 C-13.67 23.68 -13.34 22.36 -13 21 C-13.66 20.67 -14.32 20.34 -15 20 Z M-16 24 C-15 26 -15 26 -15 26 Z M-15 26 C-14.67 27.32 -14.34 28.64 -14 30 C-13.67 28.68 -13.34 27.36 -13 26 C-13.66 26 -14.32 26 -15 26 Z M-72 30 C-72 32.64 -72 35.28 -72 38 C-71.01 38.495 -71.01 38.495 -70 39 C-69.19032562 36.08517222 -68.78154007 34.53886783 -69.9375 31.6875 C-70.288125 31.130625 -70.63875 30.57375 -71 30 C-71.33 30 -71.66 30 -72 30 Z M-15 30 C-15.05395478 31.62463842 -15.09277195 33.24978541 -15.125 34.875 C-15.14820313 35.77992187 -15.17140625 36.68484375 -15.1953125 37.6171875 C-15.24324836 40.18806994 -15.24324836 40.18806994 -13 42 C-11.62941805 37.88825414 -12.24359138 35.26339405 -13 31 C-13.66 30.67 -14.32 30.34 -15 30 Z " fill="#020202" transform="translate(369,57)"/>
<path d="M0 0 C2.29225435 0.11371497 4.58382388 0.24130964 6.875 0.375 C8.15117187 0.44460937 9.42734375 0.51421875 10.7421875 0.5859375 C14 1 14 1 16 3 C16.53230225 2.51249268 17.06460449 2.02498535 17.61303711 1.52270508 C20.65997888 -0.42101752 22.59476811 -0.3731074 26.19140625 -0.36328125 C27.38314453 -0.36263672 28.57488281 -0.36199219 29.80273438 -0.36132812 C31.66381836 -0.3371582 31.66381836 -0.3371582 33.5625 -0.3125 C34.80708984 -0.31572266 36.05167969 -0.31894531 37.33398438 -0.32226562 C46.59937304 -0.26708464 46.59937304 -0.26708464 50 2 C50.1875 5.4375 50.1875 5.4375 50 9 C50 11.78195849 50.01198789 14.56369402 50.02565002 17.34561157 C50.03892138 20.32056863 50.04712249 23.29553195 50.05493164 26.27050781 C50.05998875 27.84375672 50.06683279 29.41700088 50.07543945 30.99023438 C50.08750928 33.25652213 50.09322672 35.52274859 50.09765625 37.7890625 C50.10281754 38.49632477 50.10797882 39.20358704 50.11329651 39.93228149 C50.11349257 41.62194308 50.06193127 43.31147377 50 45 C49.67 45.33 49.34 45.66 49 46 C46.03 46 43.06 46 40 46 C39.505 28.675 39.505 28.675 39 11 C37.35 11.33 35.7 11.66 34 12 C33.67 23.22 33.34 34.44 33 46 C30.03 46 27.06 46 24 46 C23.97494385 45.04633545 23.9498877 44.0926709 23.92407227 43.11010742 C23.82987929 39.57090893 23.72968769 36.03190125 23.62768555 32.49291992 C23.58438167 30.96138982 23.54270333 29.42981285 23.50268555 27.89819336 C23.44487268 25.69630818 23.38121031 23.49465789 23.31640625 21.29296875 C23.29969376 20.60849167 23.28298126 19.92401459 23.26576233 19.21879578 C23.1726445 16.22879896 22.95312563 13.85937689 22 11 C21.01 11 20.02 11 19 11 C19 13.64 19 16.28 19 19 C15.32937509 20.57312496 13.55697326 21.14440048 9.625 20.125 C8.75875 19.75375 7.8925 19.3825 7 19 C7 17.02 7 15.04 7 13 C5.55792059 15.88415883 5.90605113 18.41721528 5.9375 21.625 C5.94652344 22.81351563 5.95554687 24.00203125 5.96484375 25.2265625 C5.97644531 26.14179687 5.98804688 27.05703125 6 28 C6.39832031 27.49855469 6.79664063 26.99710938 7.20703125 26.48046875 C9 25 9 25 11.26171875 24.92578125 C12.06222656 25.05339844 12.86273438 25.18101563 13.6875 25.3125 C14.49574219 25.43238281 15.30398438 25.55226563 16.13671875 25.67578125 C16.75160156 25.78277344 17.36648438 25.88976562 18 26 C20.19895584 32.59686752 18.64784291 37.70288886 16.265625 43.9609375 C15 46 15 46 13.1328125 46.7734375 C6.86058354 47.43971823 1.33866167 47.90633781 -4 44 C-5.92043814 39.55017467 -6.20661631 35.83744025 -6.046875 31.02734375 C-6.00433594 29.71572266 -5.96179688 28.40410156 -5.91796875 27.05273438 C-5.87615479 26.038927 -5.87615479 26.038927 -5.83349609 25.00463867 C-5.75010767 22.94016571 -5.68830014 20.87583438 -5.62890625 18.81054688 C-5.38491647 12.10742234 -5.0138467 7.0276934 -2 1 C-1.34 1.33 -0.68 1.66 0 2 C0 1.34 0 0.68 0 0 Z M39 3 C40 5 40 5 40 5 Z M17 5 C18 7 18 7 18 7 Z M6 10 C5.67 10.66 5.34 11.32 5 12 C5.99 12.33 6.98 12.66 8 13 C7.67 12.01 7.34 11.02 7 10 C6.67 10 6.34 10 6 10 Z M23 11 C24 13 24 13 24 13 Z M6 30 C5.67 30.99 5.34 31.98 5 33 C5.66 33 6.32 33 7 33 C7.33 33.66 7.66 34.32 8 35 C7.67 33.35 7.34 31.7 7 30 C6.67 30 6.34 30 6 30 Z M5 35 C5 35.66 5 36.32 5 37 C5.66 37 6.32 37 7 37 C7 36.34 7 35.68 7 35 C6.34 35 5.68 35 5 35 Z " fill="#020202" transform="translate(386,58)"/>
<path d="M0 0 C0.66 0 1.32 0 2 0 C3.37482707 1.63260714 4.70647667 3.30225062 6 5 C6.66 5.66 7.32 6.32 8 7 C9 10 9 10 9 11 C9.33 8.69 9.66 6.38 10 4 C15.46175735 1.91933053 20.06015219 0.51511446 26 1 C26.66 1.33 27.32 1.66 28 2 C28 2.66 28 3.32 28 4 C30.475 4.495 30.475 4.495 33 5 C32.34 5.33 31.68 5.66 31 6 C31 6.66 31 7.32 31 8 C31.66 8 32.32 8 33 8 C33.09932276 12.44736742 33.17168003 16.89413713 33.21972656 21.34228516 C33.23976791 22.85346736 33.26700905 24.36457272 33.30175781 25.87548828 C33.35061109 28.05520643 33.37304224 30.23389431 33.390625 32.4140625 C33.41157227 33.7232666 33.43251953 35.0324707 33.45410156 36.38134766 C32.85966247 41.11832414 31.02861497 44.40608823 27.25 47.375 C20.74943936 49.18071129 15.82634832 47.91317416 10 45 C9.375 42.4375 9.375 42.4375 9 40 C8.34 40 7.68 40 7 40 C7.33 40.99 7.66 41.98 8 43 C5.11457221 46.08442281 3.25499809 47.78041217 -1.0859375 48.203125 C-5.89901744 48.30168636 -9.10124383 48.16773939 -13 45 C-13.33 44.34 -13.66 43.68 -14 43 C-14.66 42.67 -15.32 42.34 -16 42 C-15.67 41.01 -15.34 40.02 -15 39 C-14.98402849 36.86035593 -15.03402866 34.71996285 -15.12109375 32.58203125 C-15.16943359 31.32841797 -15.21777344 30.07480469 -15.26757812 28.78320312 C-15.32365234 27.47287109 -15.37972656 26.16253906 -15.4375 24.8125 C-15.49074235 23.4772337 -15.5434826 22.14194728 -15.59570312 20.80664062 C-15.72552346 17.53752856 -15.86049536 14.26871081 -16 11 C-15.34 11 -14.68 11 -14 11 C-14.33 8.69 -14.66 6.38 -15 4 C-14.01 4 -13.02 4 -12 4 C-12.33 3.34 -12.66 2.68 -13 2 C-6.565 1.505 -6.565 1.505 0 1 C0 0.67 0 0.34 0 0 Z M-5 12 C-4 14 -4 14 -4 14 Z M21 11 C20.01 11.495 20.01 11.495 19 12 C18.91323092 16.12486838 18.85968705 20.24950384 18.8125 24.375 C18.78736328 25.550625 18.76222656 26.72625 18.73632812 27.9375 C18.72666016 29.05898437 18.71699219 30.18046875 18.70703125 31.3359375 C18.6913208 32.37282715 18.67561035 33.4097168 18.65942383 34.47802734 C18.77181396 35.31027832 18.8842041 36.1425293 19 37 C20.485 37.99 20.485 37.99 22 39 C23.01894076 33.15111957 23.11798453 27.49080831 23.0625 21.5625 C23.05798828 20.64017578 23.05347656 19.71785156 23.04882812 18.76757812 C23.03713938 16.51164952 23.02075455 14.25586033 23 12 C22.34 11.67 21.68 11.34 21 11 Z M8 15 C8 16.32 8 17.64 8 19 C8.66 18.67 9.32 18.34 10 18 C9.34 17.01 8.68 16.02 8 15 Z M-5 23 C-5.40363738 25.79259626 -5.40363738 25.79259626 -5.25 28.9375 C-5.23453125 29.99839844 -5.2190625 31.05929688 -5.203125 32.15234375 C-5.11296675 35.07431256 -5.11296675 35.07431256 -4 38 C-3.34 38 -2.68 38 -2 38 C-2 34.7 -2 31.4 -2 28 C2.53374042 26.96960445 3.64467851 26.82233925 8 29 C8 32.3 8 35.6 8 39 C10.49118953 35.2632157 10.2065226 33.25548181 10.125 28.8125 C10.10695312 27.54019531 10.08890625 26.26789063 10.0703125 24.95703125 C10.04710937 23.98121094 10.02390625 23.00539063 10 22 C8.14375 21.7525 8.14375 21.7525 6.25 21.5 C5.55390625 21.4071875 4.8578125 21.314375 4.140625 21.21875 C0.15996282 20.811967 -1.60549568 20.73699712 -5 23 Z " fill="#020202" transform="translate(227,57)"/>
<path d="M0 0 C0 0.66 0 1.32 0 2 C2.31 2.33 4.62 2.66 7 3 C7.0825 3.61875 7.165 4.2375 7.25 4.875 C7.80603954 7.13472902 7.80603954 7.13472902 9.8125 8.1875 C11.86376758 8.94939939 13.86154631 9.54175992 16 10 C15.505 8.515 15.505 8.515 15 7 C16.11375 6.8453125 16.11375 6.8453125 17.25 6.6875 C20.23008479 5.9424788 21.60879792 4.86812663 24 3 C26.32421875 1.72265625 26.32421875 1.72265625 29 1 C31.45703125 2.1171875 31.45703125 2.1171875 33.8125 3.875 C34.60269531 4.44992188 35.39289063 5.02484375 36.20703125 5.6171875 C36.79871094 6.07351562 37.39039062 6.52984375 38 7 C38.66 6.67 39.32 6.34 40 6 C40.495 7.485 40.495 7.485 41 9 C44.76865248 11.27361255 44.76865248 11.27361255 49 12 C49.20882812 12.58523438 49.41765625 13.17046875 49.6328125 13.7734375 C51.51135045 16.83277073 53.75357971 17.89257358 56.875 19.625 C57.92429688 20.21539063 58.97359375 20.80578125 60.0546875 21.4140625 C62.35291368 22.6515689 64.65451877 23.85558645 67 25 C67 25.99 67 26.98 67 28 C67.7425 28.12375 68.485 28.2475 69.25 28.375 C73.43745799 29.326695 75.464946 30.45156965 78.5 33.5625 C81.04851842 36.04730546 81.75436385 36.26711442 85 37 C86.35368596 38.31266518 87.68799596 39.64567325 89 41 C89.99 41.33 90.98 41.66 92 42 C92.598125 42.639375 93.19625 43.27875 93.8125 43.9375 C96.38750415 46.36536105 98.61963637 47.07808265 102 48 C102 49.65 102 51.3 102 53 C98.535 53.495 98.535 53.495 95 54 C94.67 53.01 94.34 52.02 94 51 C92.66923011 50.65657551 91.33568021 50.32380126 90 50 C89.34 49.01 88.68 48.02 88 47 C86.989375 46.67 85.97875 46.34 84.9375 46 C83.968125 45.67 82.99875 45.34 82 45 C81.67 44.01 81.34 43.02 81 42 C80.34 42 79.68 42 79 42 C78 41 77 40 76 39 C73.98330173 37.86649466 73.98330173 37.86649466 72 37 C70 36 70 36 67.1875 33.4375 C64.89881821 31.48059272 64.23424372 31.02546127 61.125 30.6875 C60.073125 30.8421875 60.073125 30.8421875 59 31 C59 30.01 59 29.02 59 28 C58.443125 27.773125 57.88625 27.54625 57.3125 27.3125 C55 26 55 26 52.5625 23.375 C50.23283667 20.74370475 50.23283667 20.74370475 47.1875 20.6875 C46.465625 20.790625 45.74375 20.89375 45 21 C45 20.01 45 19.02 45 18 C42.57527749 16.14296053 42.57527749 16.14296053 39.5625 14.4375 C34.09536785 11.19073569 34.09536785 11.19073569 33 9 C30.63285019 8.02048973 29.44011084 7.8487119 27 8.6875 C24.6534391 10.22743059 22.84740215 11.88868326 21 14 C21 14.66 21 15.32 21 16 C22.11375 16.433125 23.2275 16.86625 24.375 17.3125 C28 19 28 19 30 22 C30.99 22 31.98 22 33 22 C33 22.99 33 23.98 33 25 C33.78375 24.938125 34.5675 24.87625 35.375 24.8125 C36.674375 24.9053125 36.674375 24.9053125 38 25 C38.99 26.485 38.99 26.485 40 28 C40.66 28.33 41.32 28.66 42 29 C42.804375 29.66 43.60875 30.32 44.4375 31 C46.90151377 33.1529545 46.90151377 33.1529545 50 34 C50.639375 34.66 51.27875 35.32 51.9375 36 C53.7705913 38.12499006 53.7705913 38.12499006 55.9375 38.4375 C58.53436823 39.14573679 59.58715998 40.60230299 61.3671875 42.5390625 C64.18696373 45.06202018 67.5668965 46.69770656 70.890625 48.47265625 C73 50 73 50 73.796875 52.18359375 C73.86390625 52.78300781 73.9309375 53.38242187 74 54 C71 55 71 55 68.9921875 54.29296875 C68.29351562 53.92816406 67.59484375 53.56335937 66.875 53.1875 C66.17117187 52.83042969 65.46734375 52.47335938 64.7421875 52.10546875 C63 51 63 51 62 49 C61.34 49 60.68 49 60 49 C59.34 48.34 58.68 47.68 58 47 C56.55848163 45.97590973 55.09778333 44.97859357 53.625 44 C52.85414063 43.484375 52.08328125 42.96875 51.2890625 42.4375 C47.418407 39.86619472 47.418407 39.86619472 43 39 C42.75121094 38.38253906 42.50242187 37.76507813 42.24609375 37.12890625 C40.76777026 34.60324387 39.71421288 34.07818096 37.0625 32.9375 C34.07597124 31.63682486 32.26514544 30.32039289 30 28 C28.96875 27.484375 27.9375 26.96875 26.875 26.4375 C24 25 24 25 23 23 C21.68 23 20.36 23 19 23 C19 22.34 19 21.68 19 21 C17.515 20.505 17.515 20.505 16 20 C16 19.34 16 18.68 16 18 C13.54883719 16.72539534 11.15228075 15.67632538 8.5625 14.6875 C4.83307128 12.9209285 2.84737711 10.92433325 0 8 C-1.97104162 6.85912001 -1.97104162 6.85912001 -4 7 C-6.02329393 8.24577228 -6.02329393 8.24577228 -8 10 C-10.2324851 11.39530319 -12.4229404 12.73261247 -14.8125 13.83984375 C-17.58609789 15.3108412 -19.98580552 17.12126127 -22.5 19 C-27.56753555 22.78672986 -27.56753555 22.78672986 -30.28125 24.125 C-32.18836311 24.88157014 -32.18836311 24.88157014 -33 27 C-34.7421875 28.03515625 -34.7421875 28.03515625 -36.875 29.0625 C-37.57367188 29.40410156 -38.27234375 29.74570312 -38.9921875 30.09765625 C-41 31 -41 31 -44 32 C-44.495 32.99 -44.495 32.99 -45 34 C-46.44357797 35.09045225 -47.92923734 36.12592682 -49.4375 37.125 C-50.24058594 37.66382813 -51.04367188 38.20265625 -51.87109375 38.7578125 C-54 40 -54 40 -56 40 C-56.33 40.99 -56.66 41.98 -57 43 C-58.65697379 43.69040574 -60.3255761 44.3530635 -62 45 C-63.67083819 46.32810215 -65.33729713 47.66172696 -67 49 C-68.99212671 50.01559401 -70.9911515 51.01789629 -73 52 C-73.66 52.66 -74.32 53.32 -75 54 C-76.98356483 54.71408334 -78.98315437 55.38617742 -81 56 C-81.25 53.6875 -81.25 53.6875 -81 51 C-78.95575462 49.02389614 -77.8823175 48 -75 48 C-75 47.34 -75 46.68 -75 46 C-72.525 45.505 -72.525 45.505 -70 45 C-70 44.34 -70 43.68 -70 43 C-69.01 43 -68.02 43 -67 43 C-67 42.34 -67 41.68 -67 41 C-64.98745822 39.5984084 -62.88057705 38.43199526 -60.75 37.21875 C-60.1725 36.8165625 -59.595 36.414375 -59 36 C-59 35.34 -59 34.68 -59 34 C-57.02 33.505 -57.02 33.505 -55 33 C-55 26.73 -55 20.46 -55 14 C-55.66 13.67 -56.32 13.34 -57 13 C-55.71034824 11.62437146 -54.37310707 10.29233607 -53 9 C-52.34 9 -51.68 9 -51 9 C-51 9.66 -51 10.32 -51 11 C-49.35 10.34 -47.7 9.68 -46 9 C-46 9.66 -46 10.32 -46 11 C-45.195625 10.690625 -45.195625 10.690625 -44.375 10.375 C-41.16732692 9.8685253 -38.98682934 10.84599775 -36 12 C-36 13.65 -36 15.3 -36 17 C-34.68 17.66 -33.36 18.32 -32 19 C-31.34 18.01 -30.68 17.02 -30 16 C-28.68352881 15.30062468 -27.34977849 14.63270867 -26 14 C-25.34 13.34 -24.68 12.68 -24 12 C-23.505 12.495 -23.505 12.495 -23 13 C-22.34 12.01 -21.68 11.02 -21 10 C-20.01 10 -19.02 10 -18 10 C-18 9.01 -18 8.02 -18 7 C-17.41992188 6.89816406 -16.83984375 6.79632812 -16.2421875 6.69140625 C-13.62466895 5.88426203 -12.20430362 4.70365549 -10.125 2.9375 C-6.6546563 0.21451497 -4.51534572 -0.67730186 0 0 Z M-50 15 C-50.19601608 16.74906659 -50.38147403 18.49931846 -50.5625 20.25 C-50.66691406 21.22453125 -50.77132812 22.1990625 -50.87890625 23.203125 C-50.98974468 25.7631352 -50.77738092 27.58148159 -50 30 C-48.05000871 29.80528889 -48.05000871 29.80528889 -46 29 C-44.71563266 27.0162233 -44.71563266 27.0162233 -44 25 C-43.01 25.33 -42.02 25.66 -41 26 C-41 22.37 -41 18.74 -41 15 C-43.97 15 -46.94 15 -50 15 Z M-37 19 C-36.34 19.66 -35.68 20.32 -35 21 C-34.67 20.34 -34.34 19.68 -34 19 C-34.99 19 -35.98 19 -37 19 Z " fill="#010101" transform="translate(84,0)"/>
<path d="M0 0 C0.33 0.66 0.66 1.32 1 2 C6.94 1.505 6.94 1.505 13 1 C15.09163921 6.16200185 15.27846434 10.61171125 15.23046875 16.08203125 C15.23001053 16.93681564 15.22955231 17.79160004 15.2290802 18.67228699 C15.22607227 20.46830647 15.21822998 22.26432368 15.20581055 24.06030273 C15.18744416 26.82089369 15.18530181 29.58115092 15.18554688 32.34179688 C15.18063531 34.08854459 15.17480857 35.83529002 15.16796875 37.58203125 C15.16685593 38.41112503 15.1657431 39.24021881 15.16459656 40.09443665 C15.11608383 45.88391617 15.11608383 45.88391617 14 47 C10.66381769 47.14257189 7.34024394 47.04228157 4 47 C4 42.05 4 37.1 4 32 C3.690625 33.546875 3.38125 35.09375 3.0625 36.6875 C2.375 40.125 1.6875 43.5625 1 47 C-2.3 47 -5.6 47 -9 47 C-10.58069904 40.77599753 -11.20373408 35.41762359 -11 29 C-11.66 29 -12.32 29 -13 29 C-12.82597656 29.68449219 -12.65195313 30.36898437 -12.47265625 31.07421875 C-11.92653455 34.45475722 -12.12777331 37.40550643 -12.4375 40.8125 C-12.53933594 41.97394531 -12.64117187 43.13539062 -12.74609375 44.33203125 C-12.82988281 45.21246094 -12.91367188 46.09289062 -13 47 C-15.97 47 -18.94 47 -22 47 C-22.03758423 45.21384277 -22.03758423 45.21384277 -22.07592773 43.39160156 C-22.17014647 38.97092042 -22.27033189 34.5503911 -22.37231445 30.12988281 C-22.41560857 28.21715854 -22.45728756 26.304397 -22.49731445 24.39160156 C-22.5551508 21.64116182 -22.61880676 18.89090872 -22.68359375 16.140625 C-22.70030624 15.28631897 -22.71701874 14.43201294 -22.73423767 13.55181885 C-22.75418289 12.75129089 -22.77412811 11.95076294 -22.79467773 11.12597656 C-22.81022202 10.42426331 -22.8257663 9.72255005 -22.84178162 8.99957275 C-23.00726836 6.90814203 -23.43584497 5.01743692 -24 3 C-20.61949038 0.97169423 -17.85454217 0.64501514 -13.9375 0.5625 C-12.89464844 0.52253906 -11.85179687 0.48257813 -10.77734375 0.44140625 C-8 1 -8 1 -6.12890625 3.52734375 C-5.57009766 4.75130859 -5.57009766 4.75130859 -5 6 C-5.66 6 -6.32 6 -7 6 C-6.855625 6.556875 -6.71125 7.11375 -6.5625 7.6875 C-5.28453328 12.94136317 -4.80353037 17.59708529 -5 23 C-4.18487226 20.08023915 -3.82928651 17.33302196 -3.625 14.3125 C-3.16401557 9.22655699 -1.824632 4.75092861 0 0 Z M-13 24 C-12 27 -12 27 -12 27 Z " fill="#010101" transform="translate(26,57)"/>
<path d="M0 0 C0.33 0.66 0.66 1.32 1 2 C1.515625 1.505 2.03125 1.01 2.5625 0.5 C5.80680017 -1.49649241 8.26217334 -1.21564385 12 -1 C14.81573751 4.96273825 13.75822476 10.6677986 13 17 C13.66 17.33 14.32 17.66 15 18 C14.34 18.99 13.68 19.98 13 21 C13.66 21.33 14.32 21.66 15 22 C14.34 22 13.68 22 13 22 C13.24556641 22.94939453 13.24556641 22.94939453 13.49609375 23.91796875 C14.17453601 28.06751093 14.10555375 32.11641498 14.0625 36.3125 C14.05798828 37.14845703 14.05347656 37.98441406 14.04882812 38.84570312 C14.03710548 40.89716649 14.01917203 42.94859273 14 45 C10.37 45 6.74 45 3 45 C3 44.01 3 43.02 3 42 C2.34 42 1.68 42 1 42 C1 40.35 1 38.7 1 37 C0.67 39.64 0.34 42.28 0 45 C-3.3 45 -6.6 45 -10 45 C-10.02505615 43.82904785 -10.0501123 42.6580957 -10.07592773 41.45166016 C-10.16993703 37.11674622 -10.27017341 32.78199496 -10.37231445 28.44726562 C-10.41568789 26.56937458 -10.45736118 24.69144348 -10.49731445 22.81347656 C-10.55495876 20.1177156 -10.61866981 17.42215673 -10.68359375 14.7265625 C-10.70030624 13.88380768 -10.71701874 13.04105286 -10.73423767 12.17276001 C-10.73236144 7.9513339 -10.73236144 7.9513339 -12 4 C-11.34 4 -10.68 4 -10 4 C-10.33 3.01 -10.66 2.02 -11 1 C-8.28823289 -1.71176711 -3.29832916 -1.09944305 0 0 Z M2 4 C2 5.98 2 7.96 2 10 C2.33 10 2.66 10 3 10 C3 8.02 3 6.04 3 4 C2.67 4 2.34 4 2 4 Z M2 11 C3 13 3 13 3 13 Z " fill="#010101" transform="translate(272,59)"/>
<path d="M0 0 C1.299375 0.144375 2.59875 0.28875 3.9375 0.4375 C6.03400433 3.58225649 6.17695111 4.17221701 6.07275391 7.7253418 C6.05258209 8.58600754 6.03241028 9.44667328 6.0116272 10.3334198 C5.96333267 11.72105278 5.96333267 11.72105278 5.9140625 13.13671875 C5.88903656 14.08690384 5.86401062 15.03708893 5.83822632 16.0160675 C5.75601452 19.05274059 5.65942921 22.08876448 5.5625 25.125 C5.50426167 27.18291614 5.44695836 29.24085896 5.390625 31.29882812 C5.2504338 36.34542588 5.09734987 41.39148821 4.9375 46.4375 C1.6375 46.4375 -1.6625 46.4375 -5.0625 46.4375 C-5.7225 44.4575 -6.3825 42.4775 -7.0625 40.4375 C-7.3925 42.4175 -7.7225 44.3975 -8.0625 46.4375 C-11.3625 46.4375 -14.6625 46.4375 -18.0625 46.4375 C-19.20155319 44.15939361 -19.1891699 42.9005363 -19.19189453 40.37084961 C-19.19504669 39.53335678 -19.19819885 38.69586395 -19.20144653 37.83299255 C-19.1994223 36.92775345 -19.19739807 36.02251434 -19.1953125 35.08984375 C-19.19626923 34.16281143 -19.19722595 33.23577911 -19.19821167 32.28065491 C-19.19889276 30.31950818 -19.1970434 28.3583592 -19.19287109 26.3972168 C-19.18751582 23.38390073 -19.19282158 20.37073332 -19.19921875 17.35742188 C-19.19855807 15.45572884 -19.19727713 13.55403589 -19.1953125 11.65234375 C-19.19733673 10.74508041 -19.19936096 9.83781708 -19.20144653 8.90306091 C-19.17745378 2.55245378 -19.17745378 2.55245378 -18.0625 1.4375 C-16.37641034 1.36544489 -14.68749341 1.35363932 -13 1.375 C-12.08089844 1.38402344 -11.16179687 1.39304688 -10.21484375 1.40234375 C-9.50457031 1.41394531 -8.79429687 1.42554688 -8.0625 1.4375 C-7.7325 2.4275 -7.4025 3.4175 -7.0625 4.4375 C-6.7325 3.7775 -6.4025 3.1175 -6.0625 2.4375 C-3.7525663 0.1275663 -3.14563902 0.09705238 0 0 Z M-7.0625 5.4375 C-6.7325 8.4075 -6.4025 11.3775 -6.0625 14.4375 C-5.7325 14.4375 -5.4025 14.4375 -5.0625 14.4375 C-5.0625 11.7975 -5.0625 9.1575 -5.0625 6.4375 C-5.7225 6.1075 -6.3825 5.7775 -7.0625 5.4375 Z M-8.0625 34.4375 C-7.0625 37.4375 -7.0625 37.4375 -7.0625 37.4375 Z " fill="#010101" transform="translate(481.0625,57.5625)"/>
<path d="M0 0 C2.33745996 3.8957666 2.17472445 7.5445266 2 12 C2.66 12.33 3.32 12.66 4 13 C3.34 13 2.68 13 2 13 C2 13.66 2 14.32 2 15 C2.99 15.33 3.98 15.66 5 16 C3.35 17.65 1.7 19.3 0 21 C0.32524658 21.57145752 0.65049316 22.14291504 0.9855957 22.73168945 C2.06618691 25.14800063 2.24530797 26.66817199 2.23046875 29.29296875 C2.22853516 30.08767578 2.22660156 30.88238281 2.22460938 31.70117188 C2.20624023 32.9319043 2.20624023 32.9319043 2.1875 34.1875 C2.18685547 35.01958984 2.18621094 35.85167969 2.18554688 36.70898438 C2.14043257 42.85956743 2.14043257 42.85956743 1 44 C-2.00331018 44.14193337 -4.99217134 44.04236378 -8 44 C-8 38.39 -8 32.78 -8 27 C-8.66 27.33 -9.32 27.66 -10 28 C-10.31241455 30.71446979 -10.51336592 33.33909361 -10.625 36.0625 C-10.68300781 37.20041992 -10.68300781 37.20041992 -10.7421875 38.36132812 C-10.83673562 40.24047195 -10.91946756 42.12020336 -11 44 C-14.3 44 -17.6 44 -21 44 C-21 39.05 -21 34.1 -21 29 C-21.66 28.67 -22.32 28.34 -23 28 C-22.34 28 -21.68 28 -21 28 C-21.16371094 27.03964844 -21.32742187 26.07929687 -21.49609375 25.08984375 C-22.14094818 20.57586275 -22.11017662 16.11378358 -22.0625 11.5625 C-22.05798828 10.73556641 -22.05347656 9.90863281 -22.04882812 9.05664062 C-22.03715811 7.03772854 -22.01922718 5.01885426 -22 3 C-21.34 3 -20.68 3 -20 3 C-20.66 1.68 -21.32 0.36 -22 -1 C-19.27132267 -1.22262638 -16.54308042 -1.42852324 -13.8125 -1.625 C-13.04357422 -1.68945312 -12.27464844 -1.75390625 -11.48242188 -1.8203125 C-7.16948698 -2.1164797 -3.88084335 -2.21655861 0 0 Z M-10 8 C-10.33 8.66 -10.66 9.32 -11 10 C-10.01 9.67 -9.02 9.34 -8 9 C-8.66 8.67 -9.32 8.34 -10 8 Z M-10 11 C-10 12.32 -10 13.64 -10 15 C-9.34 14.67 -8.68 14.34 -8 14 C-8 13.01 -8 12.02 -8 11 C-8.66 11 -9.32 11 -10 11 Z " fill="#010101" transform="translate(171,60)"/>
<path d="M0 0 C0.33 0.66 0.66 1.32 1 2 C2.66128463 2.35919668 4.32900023 2.68911632 6 3 C8.3125 4.0625 8.3125 4.0625 10 5 C9.01 5.495 9.01 5.495 8 6 C8.66 6.33 9.32 6.66 10 7 C9.67 9.31 9.34 11.62 9 14 C9.66 14.33 10.32 14.66 11 15 C10.91930249 19.27161792 10.80644255 23.54178934 10.6875 27.8125 C10.66494141 29.02744141 10.64238281 30.24238281 10.61914062 31.49414062 C10.58369141 32.65751953 10.54824219 33.82089844 10.51171875 35.01953125 C10.48553467 36.09307861 10.45935059 37.16662598 10.43237305 38.27270508 C9.94367475 41.35528479 9.24777912 41.98847506 7 44 C7 44.99 7 45.98 7 47 C5.33524314 47.34274406 3.66804677 47.67364302 2 48 C1.05125 48.268125 0.1025 48.53625 -0.875 48.8125 C-4.55739193 49.03344352 -6.23906623 48.2399656 -9.38671875 46.49609375 C-12.69509498 43.4280354 -13.91376392 39.89302249 -14.34057617 35.47314453 C-14.32486572 34.20583496 -14.30915527 32.93852539 -14.29296875 31.6328125 C-14.28660149 30.61343094 -14.28660149 30.61343094 -14.28010559 29.57345581 C-14.26344266 27.42355076 -14.22581716 25.27461701 -14.1875 23.125 C-14.172437 21.6588678 -14.15875143 20.19272076 -14.14648438 18.7265625 C-14.1135808 15.15073125 -14.06188663 11.57546059 -14 8 C-13.34 8 -12.68 8 -12 8 C-11.773125 7.401875 -11.54625 6.80375 -11.3125 6.1875 C-9.59923012 3.3320502 -8.0330768 2.34019673 -5 1 C-2.1875 1.3125 -2.1875 1.3125 0 2 C0 1.34 0 0.68 0 0 Z M-3 11 C-4.45214801 15.98148331 -4.18420386 20.97642776 -4.1875 26.125 C-4.19974609 27.13949219 -4.21199219 28.15398437 -4.22460938 29.19921875 C-4.22654297 30.16730469 -4.22847656 31.13539062 -4.23046875 32.1328125 C-4.23457764 33.01855957 -4.23868652 33.90430664 -4.24291992 34.81689453 C-4.20673665 37.20964365 -4.20673665 37.20964365 -2 39 C0.20673665 37.20964365 0.20673665 37.20964365 0.24291992 34.81689453 C0.23881104 33.93114746 0.23470215 33.04540039 0.23046875 32.1328125 C0.22853516 31.16472656 0.22660156 30.19664063 0.22460938 29.19921875 C0.21236328 28.18472656 0.20011719 27.17023438 0.1875 26.125 C0.18685547 25.11824219 0.18621094 24.11148438 0.18554688 23.07421875 C0.17049608 16.96539703 0.17049608 16.96539703 -1 11 C-1.66 11 -2.32 11 -3 11 Z " fill="#020202" transform="translate(451,57)"/>
<path d="M0 0 C5.28 0 10.56 0 16 0 C16.84072894 5.04437364 17.34798476 9.91521954 17.71875 15 C17.95022037 17.95596611 17.95022037 17.95596611 18.49609375 20.6640625 C19.2342053 25.55047537 19.36832142 30.44095405 19.5625 35.375 C19.60568359 36.39722656 19.64886719 37.41945312 19.69335938 38.47265625 C19.79887792 40.98165288 19.90099213 43.49073943 20 46 C17.03 46 14.06 46 11 46 C11 45.34 11 44.68 11 44 C10.34 43.67 9.68 43.34 9 43 C9 42.01 9 41.02 9 40 C7.68 40 6.36 40 5 40 C5.185625 40.61875 5.37125 41.2375 5.5625 41.875 C6 44 6 44 5 46 C2.03 46 -0.94 46 -4 46 C-4.09391157 39.33227873 -3.93821912 32.71779038 -3.5625 26.0625 C-3.52326416 25.329104 -3.48402832 24.59570801 -3.44360352 23.84008789 C-3.23963804 20.44470868 -2.92874437 17.27237273 -2 14 C-1.79104637 12.58633842 -1.60309594 11.16939377 -1.4375 9.75 C-1.293125 8.5125 -1.14875 7.275 -1 6 C-1.66 6 -2.32 6 -3 6 C-2.67 4.68 -2.34 3.36 -2 2 C-2 2.99 -2 3.98 -2 5 C-1.34 3.35 -0.68 1.7 0 0 Z M7 17 C8 19 8 19 8 19 Z M7 23 C7.33 24.98 7.66 26.96 8 29 C7.01 29.495 7.01 29.495 6 30 C6.99 30 7.98 30 9 30 C9 27.69 9 25.38 9 23 C8.34 23 7.68 23 7 23 Z " fill="#020202" transform="translate(71,58)"/>
<path d="M0 0 C1.87939453 -0.34057617 1.87939453 -0.34057617 4.1328125 -0.29296875 C4.93847656 -0.28330078 5.74414062 -0.27363281 6.57421875 -0.26367188 C7.41597656 -0.23853516 8.25773438 -0.21339844 9.125 -0.1875 C9.97449219 -0.17396484 10.82398438 -0.16042969 11.69921875 -0.14648438 C13.79974837 -0.11108219 15.89995293 -0.05727401 18 0 C17.01 0.495 17.01 0.495 16 1 C16 1.66 16 2.32 16 3 C16.66 3.33 17.32 3.66 18 4 C18.04898438 4.94875 18.09796875 5.8975 18.1484375 6.875 C18.83740352 19.60575558 19.90157657 32.29881259 21 45 C17.37 45 13.74 45 10 45 C10.495 42.03 10.495 42.03 11 39 C10.34 40.32 9.68 41.64 9 43 C8.34 42.34 7.68 41.68 7 41 C6.67 42.32 6.34 43.64 6 45 C2.7 45 -0.6 45 -4 45 C-3.8590651 42.56212615 -3.71245458 40.12482147 -3.5625 37.6875 C-3.52318359 36.99720703 -3.48386719 36.30691406 -3.44335938 35.59570312 C-3.25072585 32.52838465 -2.97677283 29.93031848 -2 27 C-2.66 26.67 -3.32 26.34 -4 26 C-3.34 26 -2.68 26 -2 26 C-2 25.34 -2 24.68 -2 24 C-2.66 23.67 -3.32 23.34 -4 23 C-3.68160156 22.4534375 -3.36320313 21.906875 -3.03515625 21.34375 C-1.83894934 18.63535699 -1.62781288 16.4478251 -1.4375 13.5 C-1.21594063 10.20826085 -0.90661552 7.17690067 0 4 C-0.66 3.67 -1.32 3.34 -2 3 C-1.34 2.01 -0.68 1.02 0 0 Z M8 17 C7.67 20.96 7.34 24.92 7 29 C7.99 29 8.98 29 10 29 C9.67 25.04 9.34 21.08 9 17 C8.67 17 8.34 17 8 17 Z " fill="#020202" transform="translate(178,59)"/>
<path d="M0 0 C1.04607422 0.08507813 1.04607422 0.08507813 2.11328125 0.171875 C3.82639312 0.31267872 5.53834611 0.46745972 7.25 0.625 C7.77863653 5.81013707 8.28804093 10.99595994 8.75 16.1875 C9.04778426 19.50500282 9.37246233 22.81564635 9.75 26.125 C11.25 39.33928571 11.25 39.33928571 11.25 45.625 C7.62 45.625 3.99 45.625 0.25 45.625 C0.25 43.645 0.25 41.665 0.25 39.625 C-1.07 40.285 -2.39 40.945 -3.75 41.625 C-3.42 42.945 -3.09 44.265 -2.75 45.625 C-6.71 45.625 -10.67 45.625 -14.75 45.625 C-14.42 43.8925 -14.09 42.16 -13.75 40.375 C-12.83479471 34.95416865 -12.63826653 29.81684256 -12.74609375 24.33203125 C-12.75091647 20.9898889 -12.32165392 17.91201005 -11.75 14.625 C-11.75 13.965 -11.75 13.305 -11.75 12.625 C-11.09 12.625 -10.43 12.625 -9.75 12.625 C-10.12125 11.7175 -10.4925 10.81 -10.875 9.875 C-11.75 6.625 -11.75 6.625 -10.875 4.25 C-10.50375 3.71375 -10.1325 3.1775 -9.75 2.625 C-10.41 2.295 -11.07 1.965 -11.75 1.625 C-7.96332311 -0.93198285 -4.3377666 -0.40999684 0 0 Z M-1.75 13.625 C-2.08 19.235 -2.41 24.845 -2.75 30.625 C-2.09 30.625 -1.43 30.625 -0.75 30.625 C0.65333568 24.85573111 -0.07703384 19.44356895 -0.75 13.625 C-1.08 13.625 -1.41 13.625 -1.75 13.625 Z M-2.75 38.625 C-3.08 39.285 -3.41 39.945 -3.75 40.625 C-3.09 40.625 -2.43 40.625 -1.75 40.625 C-2.08 39.965 -2.41 39.305 -2.75 38.625 Z " fill="#020202" transform="translate(137.75,58.375)"/>
<path d="M0 0 C0.06058594 1.08796875 0.12117188 2.1759375 0.18359375 3.296875 C0.90967022 18.03672858 0.90967022 18.03672858 2.5625 32.6875 C3.11031405 36.83523498 3.06434485 40.81758446 3 45 C0.03 45 -2.94 45 -6 45 C-6 44.34 -6 43.68 -6 43 C-7.485 43.495 -7.485 43.495 -9 44 C-9 43.34 -9 42.68 -9 42 C-8.34 42 -7.68 42 -7 42 C-7 41.01 -7 40.02 -7 39 C-8.98 39.495 -8.98 39.495 -11 40 C-11.495 42.475 -11.495 42.475 -12 45 C-14.97 45 -17.94 45 -21 45 C-21.33 41.7 -21.66 38.4 -22 35 C-21.34 35 -20.68 35 -20 35 C-20.01160156 34.30777344 -20.02320313 33.61554688 -20.03515625 32.90234375 C-20.10146743 25.71231728 -19.74583943 18.61903889 -19.22265625 11.44921875 C-18.975092 7.61414448 -18.92162571 3.84034043 -19 0 C-16.95920995 -0.1968121 -14.91729993 -0.38202831 -12.875 -0.5625 C-11.73804688 -0.66691406 -10.60109375 -0.77132812 -9.4296875 -0.87890625 C-6.11102007 -0.99608016 -3.2437314 -0.6655072 0 0 Z M-10 15 C-10 16.98 -10 18.96 -10 21 C-9.67 21 -9.34 21 -9 21 C-9 19.02 -9 17.04 -9 15 C-9.33 15 -9.66 15 -10 15 Z M-9 21 C-9.84454356 24.37817425 -10.10844919 26.67465243 -9 30 C-8.67 30 -8.34 30 -8 30 C-8 27.03 -8 24.06 -8 21 C-8.33 21 -8.66 21 -9 21 Z " fill="#010101" transform="translate(63,59)"/>
<path d="M0 0 C0.83265381 0.00523682 1.66530762 0.01047363 2.52319336 0.01586914 C3.42231445 0.0190918 4.32143555 0.02231445 5.24780273 0.02563477 C6.66609375 0.03820313 6.66609375 0.03820313 8.11303711 0.05102539 C9.06243164 0.05553711 10.01182617 0.06004883 10.98999023 0.06469727 C13.34356776 0.07652429 15.69702188 0.09300514 18.05053711 0.11352539 C19.2189779 2.45040697 19.11340604 3.54370089 18.86303711 6.11352539 C18.80760742 6.81477539 18.75217773 7.51602539 18.69506836 8.23852539 C18.05053711 10.11352539 18.05053711 10.11352539 14.05053711 12.11352539 C13.72053711 23.00352539 13.39053711 33.89352539 13.05053711 45.11352539 C9.75053711 45.11352539 6.45053711 45.11352539 3.05053711 45.11352539 C3.05053711 33.89352539 3.05053711 22.67352539 3.05053711 11.11352539 C1.40053711 10.78352539 -0.24946289 10.45352539 -1.94946289 10.11352539 C-3.02139769 6.89772101 -3.09582343 4.4798179 -2.94946289 1.11352539 C-1.94946289 0.11352539 -1.94946289 0.11352539 0 0 Z " fill="#010101" transform="translate(105.949462890625,58.886474609375)"/>
<path d="M0 0 C0.33 0 0.66 0 1 0 C1 5.61 1 11.22 1 17 C0.67 17 0.34 17 0 17 C0 11.39 0 5.78 0 0 Z " fill="#000000" transform="translate(326,77)"/>
<path d="M0 0 C0.66 0 1.32 0 2 0 C2 1.32 2 2.64 2 4 C1.34 3.67 0.68 3.34 0 3 C0 2.01 0 1.02 0 0 Z " fill="#000000" transform="translate(235,98)"/>
<path d="M0 0 C0.99 0.33 1.98 0.66 3 1 C2.67 1.99 2.34 2.98 2 4 C2 3.34 2 2.68 2 2 C1.34 2 0.68 2 0 2 C0 1.34 0 0.68 0 0 Z " fill="#000000" transform="translate(41,60)"/>
<path d="M0 0 C0.99 0.495 0.99 0.495 2 1 C2 1.66 2 2.32 2 3 C1.34 3 0.68 3 0 3 C0 2.01 0 1.02 0 0 Z " fill="#000000" transform="translate(101,61)"/>
<path d="M0 0 C0.99 1.485 0.99 1.485 2 3 C1.34 3 0.68 3 0 3 C0 2.01 0 1.02 0 0 Z " fill="#000000" transform="translate(392,77)"/>
<path d="M0 0 C1 4 1 4 1 4 Z " fill="#000000" transform="translate(449,72)"/>
<path d="M0 0 C0.99 0.495 0.99 0.495 2 1 C1.34 1.66 0.68 2.32 0 3 C0 2.01 0 1.02 0 0 Z " fill="#000000" transform="translate(125,62)"/>
<path d="M0 0 C0.66 0.33 1.32 0.66 2 1 C1.01 1 0.02 1 -1 1 C-0.67 0.67 -0.34 0.34 0 0 Z " fill="#000000" transform="translate(438,61)"/>
<path d="M0 0 C4 1 4 1 4 1 Z " fill="#000000" transform="translate(479,57)"/>
<path d="M0 0 C4 1 4 1 4 1 Z " fill="#000000" transform="translate(359,57)"/>
<path d="M0 0 C0.99 0.495 0.99 0.495 2 1 C1.67 1.66 1.34 2.32 1 3 C0.67 2.01 0.34 1.02 0 0 Z " fill="#000000" transform="translate(118,11)"/>
<path d="M0 0 C0.33 0.66 0.66 1.32 1 2 C0.34 1.67 -0.32 1.34 -1 1 C-0.67 0.67 -0.34 0.34 0 0 Z " fill="#000000" transform="translate(258,101)"/>
<path d="M0 0 C0.66 0.66 1.32 1.32 2 2 C1.34 2 0.68 2 0 2 C0 1.34 0 0.68 0 0 Z " fill="#000000" transform="translate(309,99)"/>
<path d="M0 0 C0.99 0.495 0.99 0.495 2 1 C1.01 1.495 1.01 1.495 0 2 C0 1.34 0 0.68 0 0 Z " fill="#000000" transform="translate(136,100)"/>
<path d="M0 0 C0.66 0 1.32 0 2 0 C1.67 0.66 1.34 1.32 1 2 C0.67 1.34 0.34 0.68 0 0 Z " fill="#000000" transform="translate(436,99)"/>
<path d="M0 0 C0.66 0 1.32 0 2 0 C1.67 0.66 1.34 1.32 1 2 C0.67 1.34 0.34 0.68 0 0 Z " fill="#000000" transform="translate(378,99)"/>
<path d="" fill="#000000" transform="translate(0,0)"/>
<path d="M0 0 C3 1 3 1 3 1 Z " fill="#000000" transform="translate(52,99)"/>
<path d="M0 0 C0.33 0.66 0.66 1.32 1 2 C0.34 1.67 -0.32 1.34 -1 1 C-0.67 0.67 -0.34 0.34 0 0 Z " fill="#000000" transform="translate(449,88)"/>
<path d="" fill="#000000" transform="translate(0,0)"/>
<path d="M0 0 C0.33 0.66 0.66 1.32 1 2 C0.34 1.67 -0.32 1.34 -1 1 C-0.67 0.67 -0.34 0.34 0 0 Z " fill="#000000" transform="translate(289,59)"/>
<path d="M0 0 C3 1 3 1 3 1 Z " fill="#000000" transform="translate(125,58)"/>
<path d="M0 0 C3 1 3 1 3 1 Z " fill="#000000" transform="translate(221,57)"/>
<path d="" fill="#000000" transform="translate(0,0)"/>
<path d="" fill="#000000" transform="translate(0,0)"/>
<path d="M0 0 C0.66 0.66 1.32 1.32 2 2 C1.34 2 0.68 2 0 2 C0 1.34 0 0.68 0 0 Z " fill="#000000" transform="translate(132,41)"/>
<path d="M0 0 C0.66 0.66 1.32 1.32 2 2 C1.34 2 0.68 2 0 2 C0 1.34 0 0.68 0 0 Z " fill="#000000" transform="translate(124,35)"/>
<path d="M0 0 C0.66 0.66 1.32 1.32 2 2 C1.34 2 0.68 2 0 2 C0 1.34 0 0.68 0 0 Z " fill="#000000" transform="translate(140,26)"/>
<path d="" fill="#070707" transform="translate(0,0)"/>
<path d="M0 0 C0.66 0 1.32 0 2 0 C1.67 0.66 1.34 1.32 1 2 C0.67 1.34 0.34 0.68 0 0 Z " fill="#000000" transform="translate(50,17)"/>
<path d="M0 0 C0.66 0 1.32 0 2 0 C1.67 0.66 1.34 1.32 1 2 C0.67 1.34 0.34 0.68 0 0 Z " fill="#000000" transform="translate(84,10)"/>
<path d="M0 0 C2 1 2 1 2 1 Z " fill="#000000" transform="translate(436,103)"/>
<path d="" fill="#000000" transform="translate(0,0)"/>
<path d="" fill="#000000" transform="translate(0,0)"/>
<path d="" fill="#000000" transform="translate(0,0)"/>
<path d="" fill="#000000" transform="translate(0,0)"/>
<path d="" fill="#000000" transform="translate(0,0)"/>
<path d="" fill="#000000" transform="translate(0,0)"/>
<path d="" fill="#000000" transform="translate(0,0)"/>
<path d="" fill="#000000" transform="translate(0,0)"/>
<path d="" fill="#000000" transform="translate(0,0)"/>
<path d="" fill="#000000" transform="translate(0,0)"/>
<path d="" fill="#000000" transform="translate(0,0)"/>
<path d="" fill="#000000" transform="translate(0,0)"/>
<path d="M0 0 C2 1 2 1 2 1 Z " fill="#000000" transform="translate(226,79)"/>
<path d="" fill="#000000" transform="translate(0,0)"/>
<path d="M0 0 C2 1 2 1 2 1 Z " fill="#000000" transform="translate(405,72)"/>
<path d="" fill="#000000" transform="translate(0,0)"/>
<path d="" fill="#000000" transform="translate(0,0)"/>
<path d="M0 0 C2 1 2 1 2 1 Z " fill="#000000" transform="translate(405,70)"/>
<path d="M0 0 C2 1 2 1 2 1 Z " fill="#000000" transform="translate(247,70)"/>
<path d="" fill="#000000" transform="translate(0,0)"/>
<path d="" fill="#000000" transform="translate(0,0)"/>
<path d="" fill="#000000" transform="translate(0,0)"/>
<path d="M0 0 C2 1 2 1 2 1 Z " fill="#000000" transform="translate(234,61)"/>
<path d="" fill="#000000" transform="translate(0,0)"/>
<path d="M0 0 C2 1 2 1 2 1 Z " fill="#000000" transform="translate(22,61)"/>
<path d="" fill="#000000" transform="translate(0,0)"/>
<path d="M0 0 C2 1 2 1 2 1 Z " fill="#000000" transform="translate(257,60)"/>
<path d="" fill="#000000" transform="translate(0,0)"/>
<path d="" fill="#000000" transform="translate(0,0)"/>
<path d="M0 0 C2 1 2 1 2 1 Z " fill="#000000" transform="translate(435,58)"/>
<path d="M0 0 C2 1 2 1 2 1 Z " fill="#000000" transform="translate(397,58)"/>
<path d="" fill="#000000" transform="translate(0,0)"/>
<path d="M0 0 C2 1 2 1 2 1 Z " fill="#000000" transform="translate(393,57)"/>
<path d="" fill="#000000" transform="translate(0,0)"/>
<path d="M0 0 C2 1 2 1 2 1 Z " fill="#000000" transform="translate(151,54)"/>
<path d="" fill="#000000" transform="translate(0,0)"/>
<path d="M0 0 C2 1 2 1 2 1 Z " fill="#000000" transform="translate(10,44)"/>
<path d="M0 0 C2 1 2 1 2 1 Z " fill="#000000" transform="translate(177,42)"/>
<path d="M0 0 C2 1 2 1 2 1 Z " fill="#000000" transform="translate(143,40)"/>
<path d="M0 0 C2 1 2 1 2 1 Z " fill="#000000" transform="translate(170,38)"/>
<path d="M0 0 C2 1 2 1 2 1 Z " fill="#000000" transform="translate(138,37)"/>
<path d="M0 0 C2 1 2 1 2 1 Z " fill="#0A0A0A" transform="translate(163,33)"/>
<path d="" fill="#000000" transform="translate(0,0)"/>
<path d="M0 0 C2 1 2 1 2 1 Z " fill="#000000" transform="translate(145,31)"/>
<path d="" fill="#000000" transform="translate(0,0)"/>
<path d="M0 0 C2 1 2 1 2 1 Z " fill="#000000" transform="translate(110,27)"/>
<path d="" fill="#000000" transform="translate(0,0)"/>
<path d="M0 0 C2 1 2 1 2 1 Z " fill="#060606" transform="translate(132,21)"/>
<path d="" fill="#000000" transform="translate(0,0)"/>
<path d="M0 0 C2 1 2 1 2 1 Z " fill="#000000" transform="translate(141,18)"/>
<path d="" fill="#000000" transform="translate(0,0)"/>
<path d="" fill="#000000" transform="translate(0,0)"/>
<path d="" fill="#000000" transform="translate(0,0)"/>
<path d="M0 0 C2 1 2 1 2 1 Z " fill="#000000" transform="translate(96,9)"/>
<path d="M0 0 C2 1 2 1 2 1 Z " fill="#000000" transform="translate(121,5)"/>
<path d="M0 0 C2 1 2 1 2 1 Z " fill="#000000" transform="translate(118,3)"/>
<path d="M0 0 C2 1 2 1 2 1 Z " fill="#090909" transform="translate(108,1)"/>
<path d="M0 0 C2 1 2 1 2 1 Z " fill="#000000" transform="translate(84,1)"/>
<path d="M0 0 C2 1 2 1 2 1 Z " fill="#000000" transform="translate(74,1)"/>
<path d="M0 0 C2 1 2 1 2 1 Z " fill="#000000" transform="translate(113,0)"/>
<path d="M0 0 C2 1 2 1 2 1 Z " fill="#000000" transform="translate(110,0)"/>
<path d="" fill="#000000" transform="translate(0,0)"/>
<path d="" fill="#000000" transform="translate(0,0)"/>
<path d="" fill="#000000" transform="translate(0,0)"/>
<path d="" fill="#000000" transform="translate(0,0)"/>
<path d="" fill="#000000" transform="translate(0,0)"/>
<path d="" fill="#000000" transform="translate(0,0)"/>
<path d="" fill="#000000" transform="translate(0,0)"/>
<path d="" fill="#000000" transform="translate(0,0)"/>
<path d="" fill="#000000" transform="translate(0,0)"/>
<path d="" fill="#000000" transform="translate(0,0)"/>
<path d="" fill="#000000" transform="translate(0,0)"/>
<path d="" fill="#000000" transform="translate(0,0)"/>
<path d="" fill="#000000" transform="translate(0,0)"/>
<path d="" fill="#000000" transform="translate(0,0)"/>
<path d="" fill="#000000" transform="translate(0,0)"/>
<path d="" fill="#000000" transform="translate(0,0)"/>
<path d="" fill="#000000" transform="translate(0,0)"/>
<path d="" fill="#000000" transform="translate(0,0)"/>
<path d="" fill="#000000" transform="translate(0,0)"/>
<path d="" fill="#000000" transform="translate(0,0)"/>
<path d="" fill="#000000" transform="translate(0,0)"/>
<path d="" fill="#000000" transform="translate(0,0)"/>
<path d="" fill="#000000" transform="translate(0,0)"/>
<path d="" fill="#000000" transform="translate(0,0)"/>
<path d="" fill="#000000" transform="translate(0,0)"/>
<path d="" fill="#000000" transform="translate(0,0)"/>
<path d="" fill="#000000" transform="translate(0,0)"/>
<path d="" fill="#000000" transform="translate(0,0)"/>
<path d="" fill="#000000" transform="translate(0,0)"/>
<path d="" fill="#000000" transform="translate(0,0)"/>
<path d="" fill="#000000" transform="translate(0,0)"/>
<path d="" fill="#000000" transform="translate(0,0)"/>
<path d="" fill="#000000" transform="translate(0,0)"/>
<path d="" fill="#000000" transform="translate(0,0)"/>
<path d="" fill="#000000" transform="translate(0,0)"/>
<path d="" fill="#000000" transform="translate(0,0)"/>
<path d="" fill="#000000" transform="translate(0,0)"/>
<path d="" fill="#000000" transform="translate(0,0)"/>
<path d="" fill="#000000" transform="translate(0,0)"/>
<path d="" fill="#000000" transform="translate(0,0)"/>
<path d="" fill="#000000" transform="translate(0,0)"/>
<path d="" fill="#000000" transform="translate(0,0)"/>
<path d="" fill="#000000" transform="translate(0,0)"/>
<path d="" fill="#000000" transform="translate(0,0)"/>
<path d="" fill="#000000" transform="translate(0,0)"/>
<path d="" fill="#000000" transform="translate(0,0)"/>
<path d="" fill="#000000" transform="translate(0,0)"/>
<path d="" fill="#000000" transform="translate(0,0)"/>
<path d="" fill="#000000" transform="translate(0,0)"/>
<path d="" fill="#000000" transform="translate(0,0)"/>
<path d="" fill="#000000" transform="translate(0,0)"/>
<path d="" fill="#000000" transform="translate(0,0)"/>
<path d="" fill="#000000" transform="translate(0,0)"/>
<path d="" fill="#000000" transform="translate(0,0)"/>
<path d="" fill="#000000" transform="translate(0,0)"/>
<path d="" fill="#000000" transform="translate(0,0)"/>
<path d="" fill="#000000" transform="translate(0,0)"/>
<path d="" fill="#000000" transform="translate(0,0)"/>
<path d="" fill="#000000" transform="translate(0,0)"/>
<path d="" fill="#000000" transform="translate(0,0)"/>
<path d="" fill="#000000" transform="translate(0,0)"/>
<path d="" fill="#000000" transform="translate(0,0)"/>
<path d="" fill="#000000" transform="translate(0,0)"/>
<path d="" fill="#000000" transform="translate(0,0)"/>
<path d="" fill="#000000" transform="translate(0,0)"/>
<path d="" fill="#000000" transform="translate(0,0)"/>
<path d="" fill="#000000" transform="translate(0,0)"/>
<path d="" fill="#000000" transform="translate(0,0)"/>
<path d="" fill="#000000" transform="translate(0,0)"/>
<path d="" fill="#000000" transform="translate(0,0)"/>
<path d="" fill="#000000" transform="translate(0,0)"/>
<path d="" fill="#000000" transform="translate(0,0)"/>
<path d="" fill="#000000" transform="translate(0,0)"/>
<path d="" fill="#000000" transform="translate(0,0)"/>
<path d="" fill="#000000" transform="translate(0,0)"/>
<path d="" fill="#000000" transform="translate(0,0)"/>
<path d="" fill="#000000" transform="translate(0,0)"/>
<path d="" fill="#000000" transform="translate(0,0)"/>
<path d="" fill="#000000" transform="translate(0,0)"/>
<path d="" fill="#000000" transform="translate(0,0)"/>
<path d="" fill="#000000" transform="translate(0,0)"/>
<path d="" fill="#000000" transform="translate(0,0)"/>
<path d="" fill="#000000" transform="translate(0,0)"/>
<path d="" fill="#000000" transform="translate(0,0)"/>
<path d="" fill="#000000" transform="translate(0,0)"/>
<path d="" fill="#000000" transform="translate(0,0)"/>
<path d="" fill="#000000" transform="translate(0,0)"/>
<path d="" fill="#000000" transform="translate(0,0)"/>
<path d="" fill="#000000" transform="translate(0,0)"/>
<path d="" fill="#000000" transform="translate(0,0)"/>
<path d="" fill="#000000" transform="translate(0,0)"/>
<path d="" fill="#000000" transform="translate(0,0)"/>
<path d="" fill="#000000" transform="translate(0,0)"/>
<path d="" fill="#000000" transform="translate(0,0)"/>
<path d="" fill="#000000" transform="translate(0,0)"/>
<path d="" fill="#000000" transform="translate(0,0)"/>
<path d="" fill="#000000" transform="translate(0,0)"/>
<path d="" fill="#000000" transform="translate(0,0)"/>
<path d="" fill="#000000" transform="translate(0,0)"/>
<path d="" fill="#000000" transform="translate(0,0)"/>
<path d="" fill="#000000" transform="translate(0,0)"/>
<path d="" fill="#000000" transform="translate(0,0)"/>
<path d="" fill="#000000" transform="translate(0,0)"/>
<path d="" fill="#000000" transform="translate(0,0)"/>
<path d="" fill="#000000" transform="translate(0,0)"/>
<path d="" fill="#000000" transform="translate(0,0)"/>
<path d="" fill="#000000" transform="translate(0,0)"/>
<path d="" fill="#000000" transform="translate(0,0)"/>
<path d="" fill="#000000" transform="translate(0,0)"/>
<path d="" fill="#000000" transform="translate(0,0)"/>
<path d="" fill="#000000" transform="translate(0,0)"/>
<path d="" fill="#000000" transform="translate(0,0)"/>
<path d="" fill="#000000" transform="translate(0,0)"/>
<path d="" fill="#000000" transform="translate(0,0)"/>
<path d="" fill="#000000" transform="translate(0,0)"/>
<path d="" fill="#000000" transform="translate(0,0)"/>
<path d="" fill="#000000" transform="translate(0,0)"/>
<path d="" fill="#000000" transform="translate(0,0)"/>
<path d="" fill="#000000" transform="translate(0,0)"/>
<path d="" fill="#000000" transform="translate(0,0)"/>
<path d="" fill="#000000" transform="translate(0,0)"/>
<path d="" fill="#000000" transform="translate(0,0)"/>
<path d="" fill="#000000" transform="translate(0,0)"/>
<path d="" fill="#000000" transform="translate(0,0)"/>
<path d="" fill="#000000" transform="translate(0,0)"/>
<path d="" fill="#000000" transform="translate(0,0)"/>
<path d="" fill="#000000" transform="translate(0,0)"/>
<path d="" fill="#000000" transform="translate(0,0)"/>
<path d="" fill="#000000" transform="translate(0,0)"/>
<path d="" fill="#000000" transform="translate(0,0)"/>
<path d="" fill="#000000" transform="translate(0,0)"/>
<path d="" fill="#000000" transform="translate(0,0)"/>
<path d="" fill="#000000" transform="translate(0,0)"/>
<path d="" fill="#000000" transform="translate(0,0)"/>
<path d="" fill="#000000" transform="translate(0,0)"/>
<path d="" fill="#000000" transform="translate(0,0)"/>
<path d="" fill="#000000" transform="translate(0,0)"/>
<path d="" fill="#000000" transform="translate(0,0)"/>
<path d="" fill="#000000" transform="translate(0,0)"/>
<path d="" fill="#000000" transform="translate(0,0)"/>
<path d="" fill="#000000" transform="translate(0,0)"/>
<path d="" fill="#000000" transform="translate(0,0)"/>
<path d="" fill="#000000" transform="translate(0,0)"/>
<path d="" fill="#000000" transform="translate(0,0)"/>
<path d="" fill="#000000" transform="translate(0,0)"/>
<path d="" fill="#000000" transform="translate(0,0)"/>
<path d="" fill="#000000" transform="translate(0,0)"/>
<path d="" fill="#000000" transform="translate(0,0)"/>
<path d="" fill="#000000" transform="translate(0,0)"/>
<path d="" fill="#000000" transform="translate(0,0)"/>
<path d="" fill="#000000" transform="translate(0,0)"/>
<path d="" fill="#000000" transform="translate(0,0)"/>
<path d="" fill="#000000" transform="translate(0,0)"/>
<path d="" fill="#000000" transform="translate(0,0)"/>
<path d="" fill="#000000" transform="translate(0,0)"/>
<path d="" fill="#000000" transform="translate(0,0)"/>
<path d="" fill="#000000" transform="translate(0,0)"/>
<path d="" fill="#000000" transform="translate(0,0)"/>
<path d="" fill="#000000" transform="translate(0,0)"/>
<path d="" fill="#000000" transform="translate(0,0)"/>
<path d="" fill="#000000" transform="translate(0,0)"/>
<path d="" fill="#000000" transform="translate(0,0)"/>
<path d="" fill="#000000" transform="translate(0,0)"/>
<path d="" fill="#000000" transform="translate(0,0)"/>
<path d="" fill="#000000" transform="translate(0,0)"/>
<path d="" fill="#000000" transform="translate(0,0)"/>
<path d="" fill="#000000" transform="translate(0,0)"/>
<path d="" fill="#000000" transform="translate(0,0)"/>
<path d="" fill="#000000" transform="translate(0,0)"/>
<path d="" fill="#000000" transform="translate(0,0)"/>
<path d="" fill="#000000" transform="translate(0,0)"/>
<path d="" fill="#000000" transform="translate(0,0)"/>
<path d="" fill="#000000" transform="translate(0,0)"/>
<path d="" fill="#000000" transform="translate(0,0)"/>
<path d="" fill="#000000" transform="translate(0,0)"/>
<path d="" fill="#000000" transform="translate(0,0)"/>
<path d="" fill="#000000" transform="translate(0,0)"/>
<path d="" fill="#000000" transform="translate(0,0)"/>
<path d="" fill="#000000" transform="translate(0,0)"/>
<path d="" fill="#000000" transform="translate(0,0)"/>
<path d="" fill="#000000" transform="translate(0,0)"/>
<path d="" fill="#000000" transform="translate(0,0)"/>
<path d="" fill="#000000" transform="translate(0,0)"/>
<path d="" fill="#000000" transform="translate(0,0)"/>
<path d="" fill="#000000" transform="translate(0,0)"/>
<path d="" fill="#000000" transform="translate(0,0)"/>
<path d="" fill="#000000" transform="translate(0,0)"/>
<path d="" fill="#000000" transform="translate(0,0)"/>
<path d="" fill="#000000" transform="translate(0,0)"/>
<path d="" fill="#0D0D0D" transform="translate(0,0)"/>
<path d="" fill="#000000" transform="translate(0,0)"/>
<path d="" fill="#000000" transform="translate(0,0)"/>
<path d="" fill="#000000" transform="translate(0,0)"/>
<path d="" fill="#000000" transform="translate(0,0)"/>
<path d="" fill="#000000" transform="translate(0,0)"/>
<path d="" fill="#000000" transform="translate(0,0)"/>
<path d="" fill="#000000" transform="translate(0,0)"/>
<path d="" fill="#000000" transform="translate(0,0)"/>
<path d="" fill="#000000" transform="translate(0,0)"/>
<path d="" fill="#000000" transform="translate(0,0)"/>
<path d="" fill="#000000" transform="translate(0,0)"/>
<path d="" fill="#000000" transform="translate(0,0)"/>
<path d="" fill="#000000" transform="translate(0,0)"/>
<path d="" fill="#000000" transform="translate(0,0)"/>
<path d="" fill="#000000" transform="translate(0,0)"/>
<path d="" fill="#000000" transform="translate(0,0)"/>
<path d="" fill="#000000" transform="translate(0,0)"/>
<path d="" fill="#000000" transform="translate(0,0)"/>
<path d="" fill="#000000" transform="translate(0,0)"/>
<path d="" fill="#000000" transform="translate(0,0)"/>
<path d="" fill="#000000" transform="translate(0,0)"/>
<path d="" fill="#000000" transform="translate(0,0)"/>
<path d="" fill="#000000" transform="translate(0,0)"/>
<path d="" fill="#000000" transform="translate(0,0)"/>
<path d="" fill="#000000" transform="translate(0,0)"/>
<path d="" fill="#000000" transform="translate(0,0)"/>
<path d="" fill="#000000" transform="translate(0,0)"/>
<path d="" fill="#000000" transform="translate(0,0)"/>
<path d="" fill="#000000" transform="translate(0,0)"/>
<path d="" fill="#000000" transform="translate(0,0)"/>
<path d="" fill="#000000" transform="translate(0,0)"/>
<path d="" fill="#000000" transform="translate(0,0)"/>
<path d="" fill="#000000" transform="translate(0,0)"/>
<path d="" fill="#000000" transform="translate(0,0)"/>
<path d="" fill="#000000" transform="translate(0,0)"/>
<path d="" fill="#000000" transform="translate(0,0)"/>
<path d="" fill="#000000" transform="translate(0,0)"/>
<path d="" fill="#000000" transform="translate(0,0)"/>
<path d="" fill="#000000" transform="translate(0,0)"/>
<path d="" fill="#000000" transform="translate(0,0)"/>
<path d="" fill="#000000" transform="translate(0,0)"/>
<path d="" fill="#000000" transform="translate(0,0)"/>
<path d="" fill="#000000" transform="translate(0,0)"/>
<path d="" fill="#000000" transform="translate(0,0)"/>
<path d="" fill="#000000" transform="translate(0,0)"/>
<path d="" fill="#000000" transform="translate(0,0)"/>
<path d="" fill="#000000" transform="translate(0,0)"/>
<path d="" fill="#000000" transform="translate(0,0)"/>
<path d="" fill="#000000" transform="translate(0,0)"/>
<path d="" fill="#000000" transform="translate(0,0)"/>
<path d="" fill="#000000" transform="translate(0,0)"/>
<path d="" fill="#000000" transform="translate(0,0)"/>
<path d="" fill="#000000" transform="translate(0,0)"/>
<path d="" fill="#000000" transform="translate(0,0)"/>
<path d="" fill="#000000" transform="translate(0,0)"/>
<path d="" fill="#000000" transform="translate(0,0)"/>
<path d="" fill="#000000" transform="translate(0,0)"/>
<path d="" fill="#000000" transform="translate(0,0)"/>
<path d="" fill="#000000" transform="translate(0,0)"/>
<path d="" fill="#000000" transform="translate(0,0)"/>
<path d="" fill="#000000" transform="translate(0,0)"/>
</svg>
